<svg xmlns="http://www.w3.org/2000/svg" width="17.437" height="17.002" viewBox="0 0 17.437 17.002">
  <g id="그룹_1864" data-name="그룹 1864" transform="translate(-1042.282 -3901.572)">
    <path id="Path" d="M1.34,1.515c.182-.727.273-1.091.544-1.3S2.53,0,3.28,0H14.157c.75,0,1.125,0,1.4.212s.362.576.544,1.3l1.2,4.815a2.745,2.745,0,0,1,.135.738,1,1,0,0,1-.69.884A2.831,2.831,0,0,1,15.982,8a4.913,4.913,0,0,1-1.024-.052,2,2,0,0,1-1.393-1.18,4.779,4.779,0,0,1-.217-.983,1.046,1.046,0,0,0-.05-.235.1.1,0,0,0-.162,0,1.046,1.046,0,0,0-.05.235l-.082.489c-.009.052-.013.078-.017.1A2,2,0,0,1,11.07,8h-.2A2,2,0,0,1,8.948,6.374c0-.023-.009-.049-.017-.1l-.082-.489A1.046,1.046,0,0,0,8.8,5.55a.1.1,0,0,0-.162,0,1.046,1.046,0,0,0-.05.235l-.082.489c-.009.052-.013.078-.017.1A2,2,0,0,1,6.57,8h-.2A2,2,0,0,1,4.448,6.374c0-.023-.009-.049-.017-.1l-.082-.489A1.046,1.046,0,0,0,4.3,5.55a.1.1,0,0,0-.162,0,1.046,1.046,0,0,0-.05.235,4.779,4.779,0,0,1-.217.983,2,2,0,0,1-1.393,1.18A4.913,4.913,0,0,1,1.454,8a2.831,2.831,0,0,1-.763-.049A1,1,0,0,1,0,7.068a2.745,2.745,0,0,1,.135-.738Z" transform="translate(1042.282 3901.572)" fill="#4e4f51"/>
    <path id="Path-2" data-name="Path" d="M.018.629C0,.971,0,1.372,0,1.848V6.724C0,7.49,0,7.873.293,8.111s.764.238,1.707.238H5V5.1a.921.921,0,0,1,1-.813H8A.921.921,0,0,1,9,5.1V8.349h3c.943,0,1.414,0,1.707-.238S14,7.49,14,6.724V1.848c0-.475,0-.877-.017-1.219A5.976,5.976,0,0,1,12.9.554,3.878,3.878,0,0,1,11.5,0,4.009,4.009,0,0,1,9.387.628H9.113A4.009,4.009,0,0,1,7,0,4.009,4.009,0,0,1,4.887.628H4.613A4.009,4.009,0,0,1,2.5,0,3.878,3.878,0,0,1,1.1.554,5.976,5.976,0,0,1,.018.629Z" transform="translate(1044 3910.225)" fill="#4e4f51"/>
  </g>
</svg>
