<?xml version="1.0" encoding="utf-8"?>
<!-- Generator: Adobe Illustrator 25.3.1, SVG Export Plug-In . SVG Version: 6.00 Build 0)  -->
<svg version="1.1" id="레이어_1" xmlns="http://www.w3.org/2000/svg" xmlns:xlink="http://www.w3.org/1999/xlink" x="0px"
	 y="0px" viewBox="0 0 83 85" style="enable-background:new 0 0 83 85;" xml:space="preserve">
<style type="text/css">
	.st0{fill:#485071;}
	.st1{fill:url(#패스_1747_1_);}
	.st2{fill:#9CA2C8;}
	.st3{fill:#FFFFFF;}
	.st4{fill:#50557B;}
	.st5{fill:url(#패스_1752_1_);}
	.st6{fill:#5A6286;}
</style>
<g id="그룹_571" transform="translate(-3313.193 -1297.556)">
	<path id="패스_1745" class="st0" d="M3394.3,1367.8l-4.4-2.5l1.3,3.6l4.4,2.5L3394.3,1367.8z"/>
	<path id="패스_1746" class="st0" d="M3394.6,1367.6l-0.3,0.2l1.3,3.6l0.3-0.2L3394.6,1367.6z"/>
	
		<linearGradient id="패스_1747_1_" gradientUnits="userSpaceOnUse" x1="2375.8696" y1="1909.4625" x2="2376.5967" y2="1908.5656" gradientTransform="matrix(58.6021 0 0 -82.2725 -137429.0312 155761.0312)">
		<stop  offset="0" style="stop-color:#F2F3FA"/>
		<stop  offset="1" style="stop-color:#D5D8ED"/>
	</linearGradient>
	<path id="패스_1747" class="st1" d="M3313.5,1354.5c0-19.7,13.1-43.3,29.2-52.6c7.8-4.6,15-4.9,20.2-1.8v0l0.2,0.1
		c0.1,0.1,0.2,0.1,0.3,0.2l8.6,4.9l-40.2,75.1l-9.8-5.5l0,0C3316.8,1371.3,3313.5,1364.3,3313.5,1354.5z"/>
	<path id="패스_1748" class="st2" d="M3381.1,1325.6c0,19.7-13.1,43.3-29.2,52.6s-29.2,1-29.2-18.7s13.1-43.3,29.2-52.6
		S3381.1,1306,3381.1,1325.6z"/>
	<path id="패스_1749" class="st3" d="M3373.3,1330.2c0,14.4-9.6,31.7-21.4,38.6s-21.4,0.8-21.4-13.7s9.6-31.7,21.4-38.6
		S3373.3,1315.8,3373.3,1330.2z"/>
	<path id="패스_1750" class="st4" d="M3365.5,1334.7c0,9.2-6.1,20.1-13.6,24.5s-13.6,0.5-13.6-8.7s6.1-20.1,13.6-24.5
		S3365.5,1325.6,3365.5,1334.7z"/>
	<path id="패스_1751" class="st3" d="M3357.7,1339.3c0,3.9-2.6,8.5-5.8,10.4s-5.8,0.2-5.8-3.7s2.6-8.5,5.8-10.4
		S3357.7,1335.4,3357.7,1339.3z"/>
	
		<linearGradient id="패스_1752_1_" gradientUnits="userSpaceOnUse" x1="2394.5208" y1="1898.3557" x2="2394.5457" y2="1898.2847" gradientTransform="matrix(43.7244 0 0 -26.3361 -101756.1641 50612.9961)">
		<stop  offset="0" style="stop-color:#5A6286"/>
		<stop  offset="1" style="stop-color:#5A6286"/>
	</linearGradient>
	<path id="패스_1752" class="st5" d="M3351.5,1342.9c0-0.5,0.3-1,0.7-1.3c0.1-0.1,0.3-0.1,0.5,0l0,0h0h0l42.5,24.4l-1,1.8
		l-42.5-24.5l0,0C3351.5,1343.3,3351.5,1343.1,3351.5,1342.9z"/>
	<path id="패스_1753" class="st0" d="M3395.4,1366.5c0,0.5-0.3,1-0.7,1.3c-0.4,0.2-0.7,0-0.7-0.5c0-0.5,0.3-1,0.7-1.3
		C3395.1,1365.8,3395.4,1366,3395.4,1366.5z"/>
	<path id="패스_1754" class="st0" d="M3391.2,1361.4l4.4,2.5l-1.3,2.1l-4.4-2.5L3391.2,1361.4z"/>
	<path id="패스_1755" class="st6" d="M3391.5,1361.2l4.4,2.5l-0.3,0.2l-4.4-2.5L3391.5,1361.2z"/>
	<path id="패스_1756" class="st6" d="M3395.6,1363.9l0.3-0.2l-1.3,2.1l-0.3,0.2L3395.6,1363.9z"/>
</g>
</svg>
