<?xml version="1.0" encoding="utf-8"?>
<!-- Generator: Adobe Illustrator 25.3.1, SVG Export Plug-In . SVG Version: 6.00 Build 0)  -->
<svg version="1.1" id="레이어_1" xmlns="http://www.w3.org/2000/svg" xmlns:xlink="http://www.w3.org/1999/xlink" x="0px"
	 y="0px" viewBox="0 0 181 162" style="enable-background:new 0 0 181 162;" xml:space="preserve">
<style type="text/css">
	.st0{fill:#09223D;}
	.st1{opacity:0.2;fill:#03459B;enable-background:new    ;}
	.st2{fill:#014278;}
	.st3{fill:#AAC1E4;}
	.st4{fill:url(#패스_1854_1_);}
	.st5{fill:#C8D9EB;}
	.st6{fill:url(#패스_1856_1_);}
	.st7{fill:url(#패스_1858_1_);}
	.st8{fill:url(#패스_1860_1_);}
	.st9{fill:url(#패스_1861_1_);}
	.st10{fill:url(#패스_1863_1_);}
	.st11{opacity:0.2;}
	.st12{fill:#03459B;}
	.st13{fill:#004983;}
	.st14{fill:#FFFFFF;}
	.st15{fill:url(#패스_1870_1_);}
	.st16{fill:url(#패스_1872_1_);}
	.st17{fill:url(#패스_1874_1_);}
	.st18{fill:url(#패스_1875_1_);}
	.st19{fill:url(#패스_1877_1_);}
	.st20{fill:url(#패스_1879_1_);}
	.st21{fill:#E8EDF7;}
	.st22{fill:#02559A;}
	.st23{fill:#E94322;}
	.st24{fill:url(#패스_1884_1_);}
	.st25{fill:#F4F5F6;}
	.st26{fill:#D5E0EB;}
	.st27{fill:#DDE8F4;}
	.st28{fill:#569CD1;}
</style>
<g id="그룹_680" transform="translate(-2177.773 -1724.952)">
	<path id="패스_1848" class="st0" d="M2214,1873.9c0.9-0.9,1.9-1.6,2.9-2.3c1.9-1.2,9.9-3.5,8.2,0.1c-1,1.6-2.4,2.8-4.2,3.6
		c0,0,0,0,0,0.1c0.1,0.6-1.2,0.7-3.1,1.5c-1.7,0.7-2.9,0.9-3.2,0.4c-0.1-0.1-0.1-0.2-0.2-0.4c-0.1,0-0.2-0.1-0.3-0.2
		C2213.6,1875.9,2213.5,1874.8,2214,1873.9z"/>
	<g id="그룹_661" transform="translate(2295.73 1724.952)">
		<path id="패스_1849" class="st1" d="M18.6,81.8c6.4-3.6,16.9-3.6,23.3,0s6.5,9.6,0.1,13.2s-16.9,3.6-23.3,0S12.2,85.4,18.6,81.8
			z"/>
		<g id="그룹_660">
			<path id="패스_1850" class="st0" d="M35.4,89.7c1.1-0.4,2.3-0.6,3.5-0.8c1,0.2,1.7,0.9,2,1.8c0.3,1.6-6.6,6-10.4,5.1
				S33.3,90.4,35.4,89.7z"/>
			<path id="패스_1851" class="st0" d="M22.5,82.2c1.1-0.4,2.3-0.6,3.5-0.8c1,0.2,1.7,0.9,2,1.8c0.3,1.6-6.6,6-10.4,5.1
				S20.5,82.9,22.5,82.2z"/>
			<path id="패스_1852" class="st2" d="M38.2,71.6c0,0,1.2,16.4,1.2,17.5c0,2.5-4.2,2.8-4.3,1.7s-3.6-21.1-3.6-21.1l-2.1-16
				L28,66.2c0,0-1.5,13.6-1.6,15.5s-4.1,3.4-4.1,1.7s-1.2-40-1.2-40L38.3,47L38.2,71.6z"/>
			<g id="그룹_658" transform="translate(0 14.648)">
				<path id="패스_1853" class="st3" d="M18.7,6.8c1.5-5.6,3.8-7.3,6-6.6s0.7,5.8-0.1,8.6c-1.1,3.7-4.8,11.7-6.7,11.1
					c-0.8-0.3-1.8-1.1-1.7-3.3C16.3,14,17.8,9.8,18.7,6.8z"/>
				
					<linearGradient id="패스_1854_1_" gradientUnits="userSpaceOnUse" x1="-922.3966" y1="557.7958" x2="-921.3966" y2="557.7958" gradientTransform="matrix(9.3008 0 0 -4.3943 8849.4697 2471.1379)">
					<stop  offset="0" style="stop-color:#FCE0C3"/>
					<stop  offset="1" style="stop-color:#F7B470"/>
				</linearGradient>
				<path id="패스_1854" class="st4" d="M1.9,19.1c0.5,0,1-0.1,1.4-0.3c0,0-0.9-0.2-0.7-0.7s0.3-0.4,2.2-0.2s2.9,0.4,2.9,0.4
					l1.9,2.1c-1.2,0.8-2.6,1.2-4,1.4c-2.8,0.5-3.9,0.3-4.9-0.8S0.7,19.3,1.9,19.1z"/>
				<path id="패스_1855" class="st5" d="M16,15.7c0.6-0.2,1.3-0.1,1.8,0.2c0,0,3.4,2.8,0.6,4.1c0,0-7.3,2.5-11.5,2
					c-0.7-0.1-1.7-2.7-0.7-3.9C6.7,17.8,10.9,16.7,16,15.7z"/>
			</g>
			
				<linearGradient id="패스_1856_1_" gradientUnits="userSpaceOnUse" x1="-958.1924" y1="615.1465" x2="-957.1924" y2="615.1465" gradientTransform="matrix(19.1423 0 0 -33.9291 18582.6582 20902.6992)">
				<stop  offset="5.000000e-03" style="stop-color:#F2F7FC"/>
				<stop  offset="0.233" style="stop-color:#D8E2F3"/>
				<stop  offset="0.713" style="stop-color:#9AAFD8"/>
				<stop  offset="1" style="stop-color:#738FC8"/>
			</linearGradient>
			<path id="패스_1856" class="st6" d="M23.2,14.6c2.8-1.4,14,4.3,14,4.3c4.3,2,1.2,28,1.2,28s-1.4,1.3-6.5,1.3S21.1,44,21.1,44
				s-1-12.1-0.8-19.1S20.4,16,23.2,14.6z"/>
			<g id="그룹_659" transform="translate(13.179 19.044)">
				<path id="패스_1857" class="st3" d="M18.7,6.8c1.5-5.6,3.8-7.3,6-6.6s0.7,5.8-0.1,8.6c-1.1,3.7-4.8,11.7-6.7,11.1
					c-0.8-0.3-1.8-1.1-1.7-3.3C16.3,14,17.8,9.8,18.7,6.8z"/>
				
					<linearGradient id="패스_1858_1_" gradientUnits="userSpaceOnUse" x1="-938.4105" y1="553.3984" x2="-937.4105" y2="553.3984" gradientTransform="matrix(9.301 0 0 -4.3942 8972.2891 2451.748)">
					<stop  offset="0" style="stop-color:#FCE0C3"/>
					<stop  offset="1" style="stop-color:#F7B470"/>
				</linearGradient>
				<path id="패스_1858" class="st7" d="M1.9,19.1c0.5,0,1-0.1,1.4-0.3c0,0-0.9-0.2-0.7-0.7s0.3-0.4,2.2-0.2s2.9,0.4,2.9,0.4
					l1.9,2.1c-1.2,0.8-2.6,1.2-4,1.4c-2.8,0.5-3.9,0.3-4.9-0.8S0.7,19.3,1.9,19.1z"/>
				<path id="패스_1859" class="st3" d="M16,15.7c0.6-0.2,1.3-0.1,1.8,0.2c0,0,3.4,2.8,0.6,4.1c0,0-7.3,2.5-11.5,2
					c-0.7-0.1-1.7-2.7-0.7-3.9C6.7,17.8,10.9,16.7,16,15.7z"/>
			</g>
			
				<linearGradient id="패스_1860_1_" gradientUnits="userSpaceOnUse" x1="-887.8154" y1="589.6431" x2="-886.8154" y2="589.6431" gradientTransform="matrix(5.5615 0 0 -6.7667 5185.3652 4005.0239)">
				<stop  offset="0" style="stop-color:#FCE0C3"/>
				<stop  offset="1" style="stop-color:#F7B470"/>
			</linearGradient>
			<path id="패스_1860" class="st8" d="M32.2,11.7v5.2c-0.6,1.1-1.9,1.8-3.2,1.5c-2.2-0.4-2.6-3-2.3-4.4S32.2,11.7,32.2,11.7z"/>
			
				<linearGradient id="패스_1861_1_" gradientUnits="userSpaceOnUse" x1="-937.6829" y1="606.0688" x2="-936.6829" y2="606.0688" gradientTransform="matrix(11.2556 0 0 -13.9696 10800.7529 8474.9766)">
				<stop  offset="0" style="stop-color:#FCE0C3"/>
				<stop  offset="1" style="stop-color:#F7B470"/>
			</linearGradient>
			<path id="패스_1861" class="st9" d="M33.5,8c-0.2,4.2-2.5,8.2-7.3,7.3s-3.9-9.4-3.9-9.4C23.8-2.5,33.9,2.6,33.5,8z"/>
			<path id="패스_1862" class="st2" d="M27.8,0.1c3.8,0.2,6.8,3.4,6.6,7.2c0.1,2.3-0.7,4.5-2.3,6.1c0,0-0.8-4.4-1.9-5.7
				S29.3,6,29.3,6s-2.6,2-5.1,1.4S21,5.2,21.4,3.6S25.9,0.1,27.8,0.1z"/>
			
				<linearGradient id="패스_1863_1_" gradientUnits="userSpaceOnUse" x1="-758.1314" y1="564.6777" x2="-757.1313" y2="564.6777" gradientTransform="matrix(2.3918 0 0 -3.7937 2060.6975 2152.0989)">
				<stop  offset="0" style="stop-color:#FCE0C3"/>
				<stop  offset="1" style="stop-color:#F7B470"/>
			</linearGradient>
			<path id="패스_1863" class="st10" d="M32.4,8.4c0.9,1.4-0.2,2.5-0.9,3.2s-1.8-0.9-0.9-2.4C30.7,9.2,31.5,7.1,32.4,8.4z"/>
		</g>
	</g>
	<g id="그룹_662" transform="translate(2177.773 1784.099)" class="st11">
		<path id="패스_1864" class="st12" d="M3.3,47.3L83.6,1.8c4.5-2.3,9.8-2.3,14.4,0l79.8,45.6c4,2.3,3.9,5.9-0.1,8.2l-80.3,45.6
			c-4.5,2.3-9.8,2.3-14.4,0L3.2,55.5C-0.7,53.3-0.7,49.6,3.3,47.3z"/>
	</g>
	<g id="그룹_665" transform="translate(2177.773 1778.814)">
		<g id="그룹_664" transform="translate(0 0)">
			<path id="패스_1865" class="st13" d="M3.2,55.5L83,101.1c4.5,2.3,9.8,2.3,14.4,0l80.3-45.6c2-1.1,3-2.6,3-4.1l0,2.6
				c0,1.5-1,3-3,4.1l-80.3,45.6c-4.5,2.3-9.8,2.3-14.4,0L3.2,58.1c-2-1.1-2.9-2.6-3-4.1l0-2.6C0.3,52.9,1.3,54.4,3.2,55.5z"/>
			<g id="그룹_663">
				<path id="패스_1866" class="st14" d="M3.3,47.3L83.6,1.8c4.5-2.3,9.8-2.3,14.4,0l79.8,45.6c4,2.3,3.9,5.9-0.1,8.2l-80.3,45.6
					c-4.5,2.3-9.8,2.3-14.4,0L3.2,55.5C-0.7,53.3-0.7,49.6,3.3,47.3z"/>
			</g>
		</g>
	</g>
	<g id="그룹_668" transform="translate(2212.162 1787.393)">
		<g id="그룹_667" transform="translate(0 0.446)">
			<path id="패스_1867" class="st0" d="M24.1,75.4c1.9-1.2,9.9-3.5,8.2,0.1s-9.8,6.2-10.9,5c-0.6-0.8-0.7-1.9-0.2-2.7
				C22.1,76.8,23,76,24.1,75.4z"/>
			<path id="패스_1868" class="st0" d="M23.5,78.3c1.1-0.8,5.9-2.2,4.9,0s-5.8,4-6.5,3.2c-0.4-0.5-0.4-1.2-0.1-1.7
				C22.3,79.2,22.8,78.7,23.5,78.3z"/>
			<path id="패스_1869" class="st2" d="M27.4,58.5c0,0-1.1,16.9-1.1,18c0,2.6-4.3,2.9-4.5,1.8S20.9,61,20.9,61L9.7,54.7L8.9,67.9
				c0,0-2.1,14-2.2,16s-4.3,3.5-4.3,1.8S1.1,44.2,1.1,44.2L19,47.8L27.4,58.5z"/>
			
				<linearGradient id="패스_1870_1_" gradientUnits="userSpaceOnUse" x1="-865.2798" y1="552.4912" x2="-864.2798" y2="552.4912" gradientTransform="matrix(19.8645 0 0 -35.2128 17615.3789 19486.3105)">
				<stop  offset="5.000000e-03" style="stop-color:#F2F7FC"/>
				<stop  offset="0.233" style="stop-color:#D8E2F3"/>
				<stop  offset="0.713" style="stop-color:#9AAFD8"/>
				<stop  offset="1" style="stop-color:#738FC8"/>
			</linearGradient>
			<path id="패스_1870" class="st15" d="M3.3,14.2c2.9-1.5,14.5,4.5,14.5,4.5c4.4,2.1,1.2,29.1,1.2,29.1s-1.5,1.4-6.7,1.4
				S1.1,44.7,1.1,44.7s-1-12.5-0.8-19.9S0.4,15.6,3.3,14.2z"/>
			<g id="그룹_666" transform="translate(13.896 18.495)">
				<path id="패스_1871" class="st3" d="M2.4,0.1c2.3-0.2,4.2,2.1,4.3,8.1c0.1,3.2,0.5,7.8,0.1,10.5c-0.4,2.2-1.6,2.9-2.5,2.9
					c-2,0.2-3.7-8.9-3.9-12.8C0.2,5.8,0.1,0.2,2.4,0.1z"/>
				
					<linearGradient id="패스_1872_1_" gradientUnits="userSpaceOnUse" x1="-792.5645" y1="514.3359" x2="-791.5645" y2="514.3359" gradientTransform="matrix(5.8638 0 0 -8.3611 5054.396 4333.4854)">
					<stop  offset="0" style="stop-color:#FCE0C3"/>
					<stop  offset="1" style="stop-color:#F7B470"/>
				</linearGradient>
				<path id="패스_1872" class="st16" d="M8.9,29.6c0,0,0.7,0.8,1.8,2.4s1.2,1.7,0.9,2s-1-0.3-1-0.3c0.1,0.5,0.2,1,0.4,1.4
					c0.4,1.1,0.2,2.4-1.3,2.1s-2.2-1.3-3.1-4c-0.5-1.4-0.8-2.8-0.6-4.3L8.9,29.6z"/>
				<path id="패스_1873" class="st3" d="M5.8,13.1c0,0,0.7,2.6,2,7.6s2.2,9.4,2.3,10.1c-0.8,1.4-3.7,1.8-4.1,1.2
					c-2.4-3.7-4.5-17.5-4.5-17.5C1.6,11.3,5.8,13.1,5.8,13.1z"/>
			</g>
			
				<linearGradient id="패스_1874_1_" gradientUnits="userSpaceOnUse" x1="-762.6508" y1="528.0396" x2="-761.6508" y2="528.0396" gradientTransform="matrix(5.384 0 0 -7.0508 4541.0093 3735.9424)">
				<stop  offset="0" style="stop-color:#FCE0C3"/>
				<stop  offset="1" style="stop-color:#F7B470"/>
			</linearGradient>
			<path id="패스_1874" class="st17" d="M12.6,10.5c0.3,1.9,0.2,3.8-0.3,5.7c-1.8,0.6-3.7,0-4.9-1.4V9.4C7.4,9.4,12.3,9,12.6,10.5
				z"/>
			
				<linearGradient id="패스_1875_1_" gradientUnits="userSpaceOnUse" x1="-838.8798" y1="543.745" x2="-837.8798" y2="543.745" gradientTransform="matrix(11.6807 0 0 -14.4987 10228.0156 7890.8882)">
				<stop  offset="0" style="stop-color:#FCE0C3"/>
				<stop  offset="1" style="stop-color:#F7B470"/>
			</linearGradient>
			<path id="패스_1875" class="st18" d="M17.7,4.7c0,0,0.9,8.8-4,9.7s-7.4-3.2-7.6-7.6C5.6,1.3,16.1-4.1,17.7,4.7z"/>
		</g>
		<path id="패스_1876" class="st2" d="M13.4,0.2c6.4,1,6.3,3.6,4.7,5.3s-4.9,3-4.3,6.1c0,0-2.3,2.9-4.8,2.9S5.2,8.4,5.2,6.7
			S6.9-0.8,13.4,0.2z"/>
		
			<linearGradient id="패스_1877_1_" gradientUnits="userSpaceOnUse" x1="-601.5193" y1="504.3068" x2="-600.5193" y2="504.3068" gradientTransform="matrix(2.4812 0 0 -3.9371 1924.1453 1995.2943)">
			<stop  offset="0" style="stop-color:#FCE0C3"/>
			<stop  offset="1" style="stop-color:#F7B470"/>
		</linearGradient>
		<path id="패스_1877" class="st19" d="M15,9.1c1,1.6-0.2,3.1-0.9,2.5s-1.8-1.9-0.9-3.3S15,9.1,15,9.1z"/>
	</g>
	<g id="그룹_670" transform="translate(2236.242 1754.168)">
		<path id="패스_1878" class="st13" d="M30.7,22.5c4.8-2.4,10.4-2.4,15.2,0l17.7,10.1l41.3,6.3v32.9c-0.1,1.5-1.1,3-3.1,4.1
			L74.5,91.6c-4.8,2.4-10.4,2.4-15.2,0L3.4,59.9c-2.1-1.2-3.1-2.8-3.1-4.3V22.9l23.5,3.6L30.7,22.5z"/>
		
			<linearGradient id="패스_1879_1_" gradientUnits="userSpaceOnUse" x1="-921.5029" y1="589.317" x2="-920.5029" y2="589.317" gradientTransform="matrix(104.6152 0 0 -72.6517 96697.3906 42870.9336)">
			<stop  offset="0" style="stop-color:#F2F7FC"/>
			<stop  offset="0.125" style="stop-color:#DCE6F5"/>
			<stop  offset="0.296" style="stop-color:#C6D5ED"/>
			<stop  offset="0.484" style="stop-color:#B6C9E8"/>
			<stop  offset="0.699" style="stop-color:#ACC2E5"/>
			<stop  offset="1" style="stop-color:#AAC1E4"/>
		</linearGradient>
		<path id="패스_1879" class="st20" d="M30.7,21.5c4.8-2.4,10.4-2.4,15.2,0l17.7,10.1l41.3,6.3v32.9c-0.1,1.5-1.1,3-3.1,4.1
			L74.5,90.6c-4.8,2.4-10.4,2.4-15.2,0L3.4,58.9c-2.1-1.2-3.1-2.8-3.1-4.3V21.9l23.5,3.6L30.7,21.5z"/>
		<g id="그룹_669" transform="translate(0 21.798)">
			<path id="패스_1880" class="st13" d="M3.4,4.4l55.9,31.7c4.8,2.4,10.4,2.4,15.2,0l27.3-15.6c2.1-1.2,3.1-2.8,3.1-4.3v2.8
				c-0.7,1-1.6,1.8-2.7,2.3L74.9,36.8c-5.1,2.5-11,2.6-16.1,0L3,5.1C1.9,4.6,1,3.8,0.3,2.8V0.1C0.3,1.6,1.3,3.2,3.4,4.4z"/>
		</g>
		<path id="패스_1881" class="st21" d="M3.4,17.5L30.7,1.9c4.8-2.4,10.4-2.4,15.2,0l55.9,31.7c4.2,2.4,4.2,6.3,0,8.7L74.5,57.8
			c-4.8,2.4-10.4,2.4-15.2,0L3.4,26.2C-0.8,23.8-0.8,19.9,3.4,17.5z"/>
	</g>
	<path id="패스_1882" class="st22" d="M2259.9,1775.4l16.4-9.3c1.5-0.7,3.2-0.7,4.6,0l36.7,20.8c1.3,0.7,1.3,1.9,0,2.6l-16.4,9.3
		c-1.5,0.7-3.2,0.7-4.6,0l-36.7-20.8C2258.6,1777.3,2258.6,1776.1,2259.9,1775.4z"/>
	<g id="그룹_671" transform="translate(2267.83 1767.321)">
		<path id="패스_1883" class="st23" d="M0.3,8.2l19,10.8v-1.8L0.3,6.4L0.3,8.2z"/>
		
			<linearGradient id="패스_1884_1_" gradientUnits="userSpaceOnUse" x1="-937.9789" y1="566.5292" x2="-936.9789" y2="566.5292" gradientTransform="matrix(30.1421 0 0 -17.1061 28577.9863 9699.71)">
			<stop  offset="0" style="stop-color:#F3AACA"/>
			<stop  offset="1.000000e-02" style="stop-color:#F2A7C8"/>
			<stop  offset="0.118" style="stop-color:#EE8AA1"/>
			<stop  offset="0.232" style="stop-color:#E8737F"/>
			<stop  offset="0.352" style="stop-color:#E66264"/>
			<stop  offset="0.479" style="stop-color:#E3544F"/>
			<stop  offset="0.618" style="stop-color:#E34B42"/>
			<stop  offset="0.777" style="stop-color:#E14338"/>
			<stop  offset="1" style="stop-color:#E14236"/>
		</linearGradient>
		<path id="패스_1884" class="st24" d="M0.3,6.4l19,10.8l11.1-6.3l-19-10.8L8.2,1.9L3.3,4.7L0.3,6.4z"/>
		<path id="패스_1885" class="st23" d="M19.3,19l11.1-6.3v-1.8l-11.1,6.3L19.3,19z"/>
	</g>
	<g id="그룹_675" transform="translate(2295.015 1780.799)">
		<path id="패스_1886" class="st25" d="M28.2,6.5L16.8,0.1L0.3,9.4l11.4,6.5L28.2,6.5z"/>
		<path id="패스_1887" class="st26" d="M28.2,6.5v1.1L11.7,17v-1.1L28.2,6.5z"/>
		<path id="패스_1888" class="st27" d="M11.7,17v-1.1L0.3,9.4v1.1L11.7,17z"/>
		<g id="그룹_672" transform="translate(12.958 1.658)">
			<path id="패스_1889" class="st28" d="M12.3,5.1l-8.9-5L2.8,0.4l8.9,5L12.3,5.1z"/>
			<path id="패스_1890" class="st28" d="M11.1,5.8l-8.9-5L1.5,1.1l8.9,5L11.1,5.8z"/>
			<path id="패스_1891" class="st28" d="M9.8,6.5l-8.9-5L0.3,1.9l8.9,5L9.8,6.5z"/>
			<path id="패스_1892" class="st28" d="M8.5,7.3L4.7,5.1L4.1,5.5l3.8,2.2L8.5,7.3z"/>
		</g>
		<g id="그룹_673" transform="translate(7.246 4.904)">
			<path id="패스_1893" class="st28" d="M12.3,5.1l-8.9-5L2.8,0.4l8.9,5L12.3,5.1z"/>
			<path id="패스_1894" class="st28" d="M11.1,5.8l-8.9-5L1.5,1.1l8.9,5L11.1,5.8z"/>
			<path id="패스_1895" class="st28" d="M9.8,6.5l-8.9-5L0.3,1.9l8.9,5L9.8,6.5z"/>
			<path id="패스_1896" class="st28" d="M8.5,7.3L2.2,3.7L1.5,4l6.3,3.6L8.5,7.3z"/>
		</g>
		<g id="그룹_674" transform="translate(2.802 8.14)">
			<path id="패스_1897" class="st28" d="M11.1,5.1l-8.9-5L1.5,0.4l8.9,5L11.1,5.1z"/>
			<path id="패스_1898" class="st28" d="M9.8,5.8l-8.9-5L0.3,1.1l8.9,5L9.8,5.8z"/>
		</g>
	</g>
	<g id="그룹_679" transform="translate(2283.855 1755.41)">
		<path id="패스_1899" class="st25" d="M28.2,6.5L16.8,0.1L0.3,9.4l11.4,6.5L28.2,6.5z"/>
		<path id="패스_1900" class="st26" d="M28.2,6.5v1.1L11.7,17v-1.1L28.2,6.5z"/>
		<path id="패스_1901" class="st27" d="M11.7,17v-1.1L0.3,9.4v1.1L11.7,17z"/>
		<g id="그룹_676" transform="translate(12.957 1.658)">
			<path id="패스_1902" class="st28" d="M12.3,5.1l-8.9-5L2.8,0.4l8.9,5L12.3,5.1z"/>
			<path id="패스_1903" class="st28" d="M11.1,5.8l-8.9-5L1.5,1.1l8.9,5L11.1,5.8z"/>
			<path id="패스_1904" class="st28" d="M9.8,6.5l-8.9-5L0.3,1.9l8.9,5L9.8,6.5z"/>
			<path id="패스_1905" class="st28" d="M8.5,7.3L4.7,5.1L4.1,5.5l3.8,2.2L8.5,7.3z"/>
		</g>
		<g id="그룹_677" transform="translate(7.246 4.904)">
			<path id="패스_1906" class="st28" d="M12.3,5.1l-8.9-5L2.8,0.4l8.9,5L12.3,5.1z"/>
			<path id="패스_1907" class="st28" d="M11.1,5.8l-8.9-5L1.5,1.1l8.9,5L11.1,5.8z"/>
			<path id="패스_1908" class="st28" d="M9.8,6.5l-8.9-5L0.3,1.9l8.9,5L9.8,6.5z"/>
			<path id="패스_1909" class="st28" d="M8.5,7.3L2.2,3.7L1.5,4l6.3,3.6L8.5,7.3z"/>
		</g>
		<g id="그룹_678" transform="translate(2.802 8.14)">
			<path id="패스_1910" class="st28" d="M11.1,5.1l-8.9-5L1.5,0.4l8.9,5L11.1,5.1z"/>
			<path id="패스_1911" class="st28" d="M9.8,5.8l-8.9-5L0.3,1.1l8.9,5L9.8,5.8z"/>
		</g>
	</g>
</g>
</svg>
