<?xml version="1.0" encoding="utf-8"?>
<!-- Generator: Adobe Illustrator 25.3.1, SVG Export Plug-In . SVG Version: 6.00 Build 0)  -->
<svg version="1.1" id="레이어_1" xmlns="http://www.w3.org/2000/svg" xmlns:xlink="http://www.w3.org/1999/xlink" x="0px"
	 y="0px" viewBox="0 0 158 129" style="enable-background:new 0 0 158 129;" xml:space="preserve">
<style type="text/css">
	.st0{opacity:0.2;}
	.st1{opacity:0.5;fill:#040000;enable-background:new    ;}
	.st2{fill:#004983;}
	.st3{fill:#E8EDF7;}
	.st4{fill:#C0D2ED;}
	.st5{fill:#FFFFFF;}
	.st6{fill:#004781;}
	.st7{fill:#00469C;}
	.st8{fill:url(#패스_1517_1_);}
	.st9{fill:#EB5F25;}
	.st10{fill:url(#패스_1520_1_);}
	.st11{opacity:0.2;fill:#040000;enable-background:new    ;}
	.st12{fill:#09223D;}
	.st13{fill:#014278;}
	.st14{fill:url(#패스_1491_1_);}
	.st15{fill:url(#패스_1492_1_);}
	.st16{fill:#AAC1E4;}
	.st17{fill:url(#패스_1495_1_);}
	.st18{fill:url(#패스_1496_1_);}
	.st19{fill:url(#패스_1498_1_);}
</style>
<g id="그룹_717" transform="translate(-1312 -1225.623)">
	<g id="그룹_530" transform="translate(1312 1225.623)">
		<g id="그룹_447" transform="translate(2.77 38.646)" class="st0">
			<path id="패스_1499" class="st1" d="M3.1,60.6l101-58.7c4.1-2.1,8.9-2.1,13,0l35.1,20.4c3.6,2.1,3.5,5.5,0,7.5l-101,58.7
				c-4.1,2.1-8.9,2.1-13,0L3.1,68.1C-0.5,66-0.5,62.6,3.1,60.6z"/>
		</g>
		<g id="그룹_450" transform="translate(33.661 56.714)">
			<g id="그룹_449">
				<path id="패스_1500" class="st2" d="M2,41l21,12.2c2.5,1.2,5.4,1.2,7.8,0L91.4,18c0.9-0.4,1.5-1.3,1.6-2.3v0.7
					c-0.1,1-0.7,1.9-1.6,2.3L30.8,53.9c-2.5,1.2-5.4,1.2-7.8,0L2,41.7c-0.9-0.4-1.5-1.3-1.6-2.2v-0.7C0.5,39.7,1.1,40.6,2,41z"/>
				<g id="그룹_448">
					<path id="패스_1501" class="st3" d="M2,36.5L62.6,1.2C65.1,0,68,0,70.4,1.2l21,12.2c2.1,1.2,2.1,3.3,0,4.5L30.8,53.2
						c-2.5,1.2-5.4,1.2-7.8,0L2,41C-0.2,39.7-0.1,37.7,2,36.5z"/>
				</g>
			</g>
		</g>
		<g id="그룹_453" transform="translate(57.009 33.208)">
			<g id="그룹_452" transform="translate(0 0)">
				<g id="그룹_451">
					<path id="패스_1502" class="st2" d="M3.2,23.7L43,0.7c0.7-0.5,1.6-0.5,2.2,0c-0.6-0.1-1.2,0-1.7,0.3L3.7,24
						C2,25,1,26.8,0.9,28.8L1,59.3c0,0.6,0.2,1.2,0.6,1.6c-0.8-0.3-1.2-1.1-1.1-1.9L0.4,28.5C0.5,26.5,1.5,24.7,3.2,23.7z"/>
					<path id="패스_1503" class="st4" d="M3.3,60.5l39.8-23c1.6-1.1,2.7-2.9,2.8-4.8L45.8,2.3c0-0.6-0.2-1.2-0.6-1.6
						c0.8,0.3,1.2,1.1,1.1,1.9l0.1,30.5c-0.1,2-1.1,3.7-2.8,4.8l-39.8,23c-0.7,0.5-1.6,0.5-2.2,0C2.2,61,2.8,60.9,3.3,60.5z"/>
					<path id="패스_1504" class="st5" d="M3.7,24.3L44.1,1c0.5-0.3,1.1-0.5,1.7-0.3c0.4,0.4,0.6,1,0.6,1.6l0.1,30.9
						c-0.1,2-1.2,3.8-2.8,4.9L3.3,61.4c-0.5,0.3-1.1,0.5-1.7,0.3c-0.4-0.4-0.6-1-0.6-1.6L0.9,29.2C1,27.2,2.1,25.4,3.7,24.3z"/>
				</g>
			</g>
		</g>
		<g id="그룹_456" transform="translate(0 0)">
			<g id="그룹_455" transform="translate(0)">
				<path id="패스_1505" class="st2" d="M3.1,68.1l35.1,20.4c4.1,2.1,8.9,2.1,13,0l101-58.7c1.8-1,2.7-2.4,2.7-3.8v1.1
					c0,1.4-0.9,2.8-2.7,3.8l-101,58.7c-4.1,2.1-8.9,2.1-13,0L3.1,69.2c-1.8-1-2.7-2.4-2.7-3.7v-1.1C0.4,65.7,1.3,67.1,3.1,68.1z"/>
				<g id="그룹_454" transform="translate(0)">
					<path id="패스_1506" class="st3" d="M3.1,60.6l101-58.7c4.1-2.1,8.9-2.1,13,0l35.1,20.4c3.6,2.1,3.5,5.5,0,7.5l-101,58.7
						c-4.1,2.1-8.9,2.1-13,0L3.1,68.1C-0.5,66-0.5,62.6,3.1,60.6z"/>
				</g>
			</g>
		</g>
		<g id="그룹_458" transform="translate(57.731 15.384)">
			<g id="그룹_457" transform="translate(1.968 19.456)">
				<path id="패스_1507" class="st6" d="M26.1,4.2l9.9,5.9l5.8-0.6v1.9L16.6,25.7l-16.3-9v-1.9L8.5,14L26.1,4.2z"/>
				<path id="패스_1508" class="st5" d="M41.8,9.6L16.6,23.8l-16.3-9L26.1,0.3L41.8,9.6z"/>
				<path id="패스_1509" class="st6" d="M34.9,8.2L14.2,19.8l-10-5.5L25.3,2.5L34.9,8.2z"/>
				<path id="패스_1510" class="st6" d="M31.2,14.1l-5.9,3.3l-2.8-1.6l6-3.4L31.2,14.1z"/>
				<path id="패스_1511" class="st7" d="M22.4,17.9l-1.8,1l-0.9-0.5l1.8-1L22.4,17.9z"/>
			</g>
			<path id="패스_1512" class="st6" d="M28,1.5l-1.9,1.8L26,3.2v15.3l-23,13l-0.6,2.6l-2-1.2V14.8L26,0.3L28,1.5z"/>
			<path id="패스_1513" class="st3" d="M28,19.7L2.4,34.2V16L28,1.5L28,19.7z"/>
			<path id="패스_1514" class="st6" d="M26.8,18.8L3.5,31.9V17L26.8,3.8V18.8z"/>
			<path id="패스_1515" class="st3" d="M24.5,18.6L5.9,29.1v-12L24.5,6.6L24.5,18.6z"/>
		</g>
		<g id="그룹_459" transform="translate(97.716 8.047)">
			<path id="패스_1516" class="st5" d="M21.9,18.9l-10.8,6.2V12.7l10.8-6.2V18.9z"/>
			
				<linearGradient id="패스_1517_1_" gradientUnits="userSpaceOnUse" x1="-815.828" y1="583.9186" x2="-814.828" y2="583.9186" gradientTransform="matrix(10.768 0 0 -18.574 10187.0479 10861.4873)">
				<stop  offset="0" style="stop-color:#F3AACA"/>
				<stop  offset="1.000000e-02" style="stop-color:#F2A7C8"/>
				<stop  offset="0.118" style="stop-color:#EE8AA1"/>
				<stop  offset="0.232" style="stop-color:#E8737F"/>
				<stop  offset="0.352" style="stop-color:#E66264"/>
				<stop  offset="0.479" style="stop-color:#E3544F"/>
				<stop  offset="0.618" style="stop-color:#E34B42"/>
				<stop  offset="0.777" style="stop-color:#E14338"/>
				<stop  offset="1" style="stop-color:#E14236"/>
			</linearGradient>
			<path id="패스_1517" class="st8" d="M11.2,25.1L0.4,18.9V6.5l10.8,6.2V25.1z"/>
			<path id="패스_1518" class="st9" d="M21.9,6.5l-10.8,6.2L0.4,6.5l10.8-6.2L21.9,6.5z"/>
		</g>
		<g id="그룹_460" transform="translate(30.087 48.435)">
			<path id="패스_1519" class="st5" d="M21.9,18.9l-10.8,6.2V12.7l10.8-6.2V18.9z"/>
			
				<linearGradient id="패스_1520_1_" gradientUnits="userSpaceOnUse" x1="-735.639" y1="543.5307" x2="-734.639" y2="543.5307" gradientTransform="matrix(10.768 0 0 -18.5741 9458.8213 10111.3887)">
				<stop  offset="0" style="stop-color:#F3AACA"/>
				<stop  offset="1.000000e-02" style="stop-color:#F2A7C8"/>
				<stop  offset="0.118" style="stop-color:#EE8AA1"/>
				<stop  offset="0.232" style="stop-color:#E8737F"/>
				<stop  offset="0.352" style="stop-color:#E66264"/>
				<stop  offset="0.479" style="stop-color:#E3544F"/>
				<stop  offset="0.618" style="stop-color:#E34B42"/>
				<stop  offset="0.777" style="stop-color:#E14338"/>
				<stop  offset="1" style="stop-color:#E14236"/>
			</linearGradient>
			<path id="패스_1520" class="st10" d="M11.2,25.1L0.4,18.9V6.5l10.8,6.2V25.1z"/>
			<path id="패스_1521" class="st9" d="M21.9,6.5l-10.8,6.2L0.4,6.5l10.8-6.2L21.9,6.5z"/>
		</g>
	</g>
	<g id="그룹_444_00000045595589322273093040000014313674144687432625_" transform="translate(1395.488 1248.707)">
		<path id="패스_1487_00000060010899912066251790000014458056622199646598_" class="st11" d="M16,76.5c5.9-3.4,15.4-3.4,21.3,0
			s5.8,8.9-0.1,12.3s-15.4,3.4-21.3,0S10.1,79.9,16,76.5z"/>
		<g id="그룹_443_00000181082614157142523510000004687675741052211088_" transform="translate(0 0.415)">
			<path id="패스_1488_00000090275967017985585410000011382432223359849127_" class="st12" d="M22.3,84c1,0.6,1.8,1.3,2.7,2.1
				c0.4,0.8,0.4,1.8-0.2,2.5c-1,1.2-8.4-1.3-10-4.6S20.6,82.9,22.3,84z"/>
			<path id="패스_1489_00000142174037360872158740000002810452087035294365_" class="st12" d="M32.3,78.1c1,0.6,1.8,1.3,2.7,2.1
				c0.4,0.8,0.4,1.8-0.2,2.5c-1,1.2-8.4-1.3-10-4.6S30.6,77,32.3,78.1z"/>
			<path id="패스_1490_00000085245990662036931630000005362366921766790552_" class="st13" d="M34.5,79.8c0,1.6-3.8,0.2-3.9-1.7
				s-2-14.8-2-14.8l0.1-12.4l-1.3,0.4l-1.5,15.2c0,0-1.2,19.2-1.3,20.2s-4.1,0.7-4.1-1.7c0-1-1-16.7-1-16.7l-0.1-23.7l16.4-3.3
				C35.6,41.3,34.5,78.3,34.5,79.8z"/>
			
				<linearGradient id="패스_1491_1_" gradientUnits="userSpaceOnUse" x1="-935.9542" y1="573.8821" x2="-934.9542" y2="573.8821" gradientTransform="matrix(18.1302 0 0 -32.7036 17145.1152 18797.584)">
				<stop  offset="5.000000e-03" style="stop-color:#F2F7FC"/>
				<stop  offset="0.233" style="stop-color:#D8E2F3"/>
				<stop  offset="0.713" style="stop-color:#9AAFD8"/>
				<stop  offset="1" style="stop-color:#738FC8"/>
			</linearGradient>
			<path id="패스_1491_00000074412977724799740600000013875058055706144920_" class="st14" d="M20.4,17.6c0,0,10.6-5.5,13.2-4.2
				s2.6,3.1,2.8,9.9s-0.8,18.4-0.8,18.4s-5.4,4.2-10.2,4.2s-6.1-1.3-6.1-1.3S16.3,19.5,20.4,17.6z"/>
			
				<linearGradient id="패스_1492_1_" gradientUnits="userSpaceOnUse" x1="-889.8448" y1="540.0615" x2="-888.8448" y2="540.0615" gradientTransform="matrix(7.4086 0 0 -5.6868 6797.0684 3101.9976)">
				<stop  offset="0" style="stop-color:#FCE0C3"/>
				<stop  offset="1" style="stop-color:#F7B470"/>
			</linearGradient>
			<path id="패스_1492_00000105428157700512927810000016569597426976301707_" class="st15" d="M2.4,28.5c0.4,0.2,0.8,0.4,1.3,0.5
				c0,0-0.6-0.6-0.2-0.9s0.4-0.2,1.8,1s2.1,1.9,2.1,1.9l0.4,2.7c-1.4,0-2.7-0.3-3.9-0.9c-2.5-1.1-3.3-1.7-3.5-3.2S1.4,28,2.4,28.5z"
				/>
			<path id="패스_1493_00000159452182756091725900000013157082548121916827_" class="st16" d="M6,29.4c0.6,0.1,10.5,3,10.5,3
				s1.4,4.3-1.5,4.3c0,0-6.7-1.3-10.1-3.6C4.4,32.8,4.7,30.1,6,29.4z"/>
			<g id="그룹_442_00000075873463941071602080000004739592430764364457_" transform="translate(13.28 17.365)">
				<g id="그룹_441_00000163778779971236932320000003121527840894508958_">
					<path id="패스_1494_00000122681031869602850950000012493362292280638901_" class="st16" d="M3,6.7c1.6-5.3,3.8-6.9,5.8-6.2
						s0.5,5.6-0.3,8.3c-1.1,3.5-4.9,11.2-6.6,10.6c-0.8-0.3-1.7-1.1-1.5-3.2C0.7,13.6,2.2,9.6,3,6.7z"/>
				</g>
			</g>
			
				<linearGradient id="패스_1495_1_" gradientUnits="userSpaceOnUse" x1="-861.9109" y1="545.436" x2="-860.9109" y2="545.436" gradientTransform="matrix(4.9142 0 0 -6.5461 4418.3018 3582.6868)">
				<stop  offset="0" style="stop-color:#FCE0C3"/>
				<stop  offset="1" style="stop-color:#F7B470"/>
			</linearGradient>
			<path id="패스_1495_00000085217508394183191350000005323846253038421675_" class="st17" d="M29.8,8.9v5
				c-1.1,1.3-2.8,1.8-4.5,1.3c-0.5-1.7-0.6-3.5-0.3-5.3C25.4,8.7,29.8,8.9,29.8,8.9z"/>
			
				<linearGradient id="패스_1496_1_" gradientUnits="userSpaceOnUse" x1="-916.3591" y1="563.71" x2="-915.3591" y2="563.71" gradientTransform="matrix(10.6584 0 0 -13.4644 9948.2725 7597.0718)">
				<stop  offset="0" style="stop-color:#FCE0C3"/>
				<stop  offset="1" style="stop-color:#F7B470"/>
			</linearGradient>
			<path id="패스_1496_00000031930039100126032150000007272467527312333484_" class="st18" d="M31,6.6c-0.2,4.1-2.4,7.9-6.9,7.1
				s-3.7-9-3.7-9C21.9-3.5,31.5,1.4,31,6.6z"/>
		</g>
		<path id="패스_1497_00000054949226743308595090000010065910728802322587_" class="st7" d="M24.4,0.4c5.9-0.9,7.4,4.4,7.4,6
			s-1.1,7.3-3.5,7.3S24,11,24,11c0.6-2.9-2.5-4-3.9-5.7S18.5,1.3,24.4,0.4z"/>
		
			<linearGradient id="패스_1498_1_" gradientUnits="userSpaceOnUse" x1="-739.9023" y1="517.7405" x2="-738.9023" y2="517.7405" gradientTransform="matrix(2.2649 0 0 -3.6562 1863.3433 1902.3157)">
			<stop  offset="0" style="stop-color:#FCE0C3"/>
			<stop  offset="1" style="stop-color:#F7B470"/>
		</linearGradient>
		<path id="패스_1498_00000119091250591166275190000002657392299027262096_" class="st19" d="M24.5,7.9c0.8,1.3-0.2,2.4-0.8,3.1
			s-1.7-0.8-0.8-2.3C22.9,8.7,23.7,6.6,24.5,7.9z"/>
	</g>
</g>
</svg>
