<?xml version="1.0" encoding="utf-8"?>
<!-- Generator: Adobe Illustrator 25.3.1, SVG Export Plug-In . SVG Version: 6.00 Build 0)  -->
<svg version="1.1" id="레이어_1" xmlns="http://www.w3.org/2000/svg" xmlns:xlink="http://www.w3.org/1999/xlink" x="0px"
	 y="0px" viewBox="0 0 168 171" style="enable-background:new 0 0 168 171;" xml:space="preserve">
<style type="text/css">
	.st0{fill:url(#패스_1319_1_);}
	.st1{fill:url(#패스_1320_1_);}
	.st2{fill:#014278;}
	.st3{fill:#F2F7FC;}
	.st4{fill:url(#패스_1323_1_);}
	.st5{fill:#EB5F25;}
	.st6{fill:#985289;}
	.st7{fill:#FFFFFF;}
	.st8{fill:url(#패스_1331_1_);}
	.st9{opacity:0.48;fill:#D2E6ED;enable-background:new    ;}
	.st10{fill:#004781;}
	.st11{fill:#09223D;}
	.st12{fill:url(#패스_1346_1_);}
	.st13{fill:#AAC1E4;}
	.st14{fill:url(#패스_1348_1_);}
	.st15{fill:url(#패스_1350_1_);}
	.st16{fill:url(#패스_1351_1_);}
	.st17{fill:url(#패스_1353_1_);}
	.st18{opacity:0.2;}
	.st19{fill:#03459B;}
	.st20{fill:#004983;}
	.st21{fill:#E8EDF7;}
	.st22{fill:#C0D2ED;}
	.st23{fill:url(#패스_1361_1_);}
	.st24{fill:#00469C;}
	.st25{fill:url(#패스_1372_1_);}
	.st26{fill:url(#패스_1375_1_);}
</style>
<g id="그룹_533" transform="translate(-389 -430)">
	<g id="그룹_369" transform="translate(389 430)">
		<g id="그룹_334" transform="translate(9.568 0)">
			
				<linearGradient id="패스_1319_1_" gradientUnits="userSpaceOnUse" x1="-877.1845" y1="614.541" x2="-876.1845" y2="614.541" gradientTransform="matrix(45.5513 0 0 -19.3363 39957.1953 11901.5303)">
				<stop  offset="0" style="stop-color:#F2F7FC"/>
				<stop  offset="0.125" style="stop-color:#DCE6F5"/>
				<stop  offset="0.296" style="stop-color:#C6D5ED"/>
				<stop  offset="0.484" style="stop-color:#B6C9E8"/>
				<stop  offset="0.699" style="stop-color:#ACC2E5"/>
				<stop  offset="1" style="stop-color:#AAC1E4"/>
			</linearGradient>
			<path id="패스_1319" class="st0" d="M14.4,11c3.5-2,7.9-2.7,12.8-1.6c3.4,0.8,6.6,2,9.5,3.8c3.3,1.9,6.4,4.2,9.1,6.8l-14.1,8.2
				c-2.8-2.6-5.8-4.9-9.1-6.8c-3-1.8-6.2-3-9.5-3.8c-4.9-1-9.2-0.4-12.8,1.6L14.4,11z"/>
			
				<linearGradient id="패스_1320_1_" gradientUnits="userSpaceOnUse" x1="-881.6734" y1="624.0616" x2="-880.6734" y2="624.0616" gradientTransform="matrix(116.1904 0 0 -147.328 102483.9219 92015.8516)">
				<stop  offset="0" style="stop-color:#F2F7FC"/>
				<stop  offset="0.125" style="stop-color:#DCE6F5"/>
				<stop  offset="0.296" style="stop-color:#C6D5ED"/>
				<stop  offset="0.484" style="stop-color:#B6C9E8"/>
				<stop  offset="0.699" style="stop-color:#ACC2E5"/>
				<stop  offset="1" style="stop-color:#AAC1E4"/>
			</linearGradient>
			<path id="패스_1320" class="st1" d="M56,2.9c4.1-2.4,9.1-3.1,14.8-1.9c3.9,0.9,7.6,2.4,11,4.4c6.7,4,12.7,9.3,17.6,15.4
				c3.5,4.3,6.6,8.9,9.2,13.7c6.7-3.2,18.1,4.8,25.9,18.2c5.2,9,7.5,18.3,6.5,24.6c0.3,0.4,0.7,0.8,1,1.2
				c9.6,11.7,16.1,27.3,16.1,40.9c0,9.9-3.5,16.8-9.2,20.1l-14.1,8.2c5.6-3.3,9.1-10.2,9.2-20.1c0-13.6-6.5-29.2-16.1-40.9
				c-2-2.4-4.1-4.7-6.5-6.8c-0.4-0.4-0.8-0.7-1.3-1.1c-2.3-2-4.8-3.8-7.5-5.4c-2.8-1.7-5.9-2.9-9.2-3.7c-1.7-14-8.6-29-18.2-40.7
				c-4.9-6.1-10.9-11.4-17.6-15.4c-3.4-2-7.2-3.5-11-4.4C51,8,46,8.7,41.9,11.1L56,2.9z"/>
		</g>
		<path id="패스_1321" class="st2" d="M32.2,21.4c3.3,1.9,6.4,4.2,9.1,6.8c2.7-18.5,17.8-25.2,36-14.7c11,6.3,20.7,17.6,27.4,30.2
			c6.7-2.8,17.9,5.1,25.6,18.3c5,8.7,7.3,17.6,6.6,23.9c9.9,11.8,16.7,27.7,16.7,41.6c-0.1,19.9-14.2,27.9-31.5,17.9l-90-52
			C14.7,83.6,0.7,59.3,0.8,39.4C0.8,19.5,14.9,11.4,32.2,21.4z"/>
		<path id="패스_1322" class="st3" d="M41.2,33c2.6,1.5,5.1,3.4,7.3,5.5c2.2-14.8,14.2-20.1,28.8-11.8c8.8,5.1,16.6,14,21.9,24.2
			c5.4-2.2,14.3,4.1,20.4,14.7c4,6.9,5.8,14,5.3,19.1c7.9,9.4,13.4,22.2,13.3,33.2c0,15.9-11.3,22.3-25.2,14.3L41,90.6
			c-13.8-8-25-27.4-25-43.3C16.1,31.4,27.3,25,41.2,33z"/>
		
			<linearGradient id="패스_1323_1_" gradientUnits="userSpaceOnUse" x1="-872.2407" y1="623.5018" x2="-871.2407" y2="623.5018" gradientTransform="matrix(121.8862 0 0 -106.0481 106330.1406 66203.8125)">
			<stop  offset="0" style="stop-color:#9FB9E0"/>
			<stop  offset="0.209" style="stop-color:#A3BCE2"/>
			<stop  offset="0.437" style="stop-color:#B1C6E7"/>
			<stop  offset="0.674" style="stop-color:#C6D5EE"/>
			<stop  offset="0.915" style="stop-color:#E5EEF8"/>
			<stop  offset="1" style="stop-color:#F2F7FC"/>
		</linearGradient>
		<path id="패스_1323" class="st4" d="M32.6,29.8c-0.2,1.2-0.2,2.5-0.2,3.7c0,15.9,11.2,35.3,25,43.3l72,41.5
			c2.7,1.6,5.6,2.7,8.6,3.2c-1.7,13.2-12.2,18-24.9,10.6L41,90.7c-13.8-8-25-27.4-25-43.3C16.1,34.9,22.9,28.3,32.6,29.8z"/>
		<g id="그룹_344" transform="translate(80.547 45.39)">
			<g id="그룹_343">
				<g id="그룹_335" transform="translate(0 0.724)">
					<path id="패스_1324" class="st5" d="M0.4,0.4l6.8,11l-6.9,2.5l0-6.8L0.4,0.4z"/>
				</g>
				<g id="그룹_337" transform="translate(0.038 0)">
					<g id="그룹_336">
						<path id="패스_1325" class="st6" d="M0.3,1.1l1.2-0.7l6.8,11l-1.2,0.7L0.3,1.1z"/>
					</g>
				</g>
				<g id="그룹_338" transform="translate(0.038 0.724)">
					<path id="패스_1326" class="st5" d="M7.5,11.3l-0.3,0.1l-6.8-11L7.5,11.3z"/>
					<path id="패스_1327" class="st5" d="M9.2,13.9l1.7-0.6l0.3,0.5l-2.1,0.9l-2-3.3l0.3-0.1L9.2,13.9z"/>
				</g>
				<g id="그룹_339" transform="translate(10.945 10.978)">
					<path id="패스_1328" class="st5" d="M0.3,3.5l6.9-3.1l0,6.8l0,6.8L0.3,3.5z"/>
				</g>
				<g id="그룹_340" transform="translate(0 11.734)">
					<path id="패스_1329" class="st7" d="M11.3,2.8l6.8,10.4L9.2,8L0.3,2.9l6.9-2.5l2,3.3L11.3,2.8z"/>
				</g>
				<g id="그룹_341" transform="translate(10.623 10.978)">
					<path id="패스_1330" class="st5" d="M0.3,3l7.2-2.6L0.6,3.5L0.3,3z"/>
				</g>
				
					<linearGradient id="패스_1331_1_" gradientUnits="userSpaceOnUse" x1="-937.851" y1="571.4593" x2="-936.851" y2="571.4593" gradientTransform="matrix(19.0059 0 0 -24.496 17825.0293 14011.1426)">
					<stop  offset="0" style="stop-color:#F3AACA"/>
					<stop  offset="1.000000e-02" style="stop-color:#F2A7C8"/>
					<stop  offset="0.118" style="stop-color:#EE8AA1"/>
					<stop  offset="0.232" style="stop-color:#E8737F"/>
					<stop  offset="0.352" style="stop-color:#E66264"/>
					<stop  offset="0.479" style="stop-color:#E3544F"/>
					<stop  offset="0.618" style="stop-color:#E34B42"/>
					<stop  offset="0.777" style="stop-color:#E14338"/>
					<stop  offset="1" style="stop-color:#E14236"/>
				</linearGradient>
				<path id="패스_1331" class="st8" d="M0.4,1.1l1.2-0.7l8.9,5.1l8.9,5.1l0,6.8l0,6.8l-1.2,0.7l0-6.8l0-6.8L9.2,6.3L0.4,1.1z"/>
				<g id="그룹_342" transform="translate(0.038 0.724)">
					<path id="패스_1332" class="st7" d="M18.1,10.7l-7.2,2.6l-1.7,0.6l-1.7-2.6L0.3,0.4l8.9,5.1L18.1,10.7z"/>
				</g>
			</g>
		</g>
		<path id="패스_1333" class="st9" d="M13.5,141.8l38.8,20.8l-13.1,7.9L0.3,147L13.5,141.8z"/>
		<g id="그룹_345" transform="translate(33.853 105.363)">
			<path id="패스_1334" class="st10" d="M0.3,5.2C0.4,6,0.9,6.7,1.6,7l19.2,11.1c1.7,1,4.3,1.8,3.2,1.9l11.4,6.6
				c1.9,1,4.2,1,6.1,0l3.9-2.3c0.7-0.3,1.2-1,1.3-1.8v1.1c-0.1,0.8-0.6,1.4-1.3,1.8l-3.9,2.3c-1.9,1-4.2,1-6.1,0L16.3,16.6
				c0,0-14.7-8.5-14.7-8.5c-0.7-0.3-1.2-1-1.3-1.8L0.3,5.2z"/>
			<path id="패스_1335" class="st7" d="M1.6,3.4l3.9-2.3c1.9-1,4.2-1,6.1,0l19.2,11.1c0,0,14.7,8.5,14.7,8.5c1.7,1,1.7,2.6,0,3.5
				l-3.9,2.3c-1.9,1-4.2,1-6.1,0L16.3,15.4c0,0-14.7-8.5-14.7-8.5C-0.1,6-0.1,4.4,1.6,3.4z"/>
		</g>
		<g id="그룹_346" transform="translate(23.785 116.429)">
			<path id="패스_1336" class="st10" d="M0.3,5.2C0.4,6,0.9,6.7,1.6,7l19.2,11.1c1.7,1,4.3,1.8,3.2,1.9l11.4,6.6
				c1.9,1,4.2,1,6.1,0l3.9-2.3c0.7-0.3,1.2-1,1.3-1.8v1.1c-0.1,0.8-0.6,1.4-1.3,1.8l-3.9,2.3c-1.9,1-4.2,1-6.1,0L16.3,16.6
				c0,0-14.7-8.5-14.7-8.5c-0.7-0.3-1.2-1-1.3-1.8L0.3,5.2z"/>
			<path id="패스_1337" class="st7" d="M1.6,3.4l3.9-2.3c1.9-1,4.2-1,6.1,0l19.2,11.1c0,0,14.7,8.5,14.7,8.5c1.7,1,1.7,2.6,0,3.5
				l-3.9,2.3c-1.9,1-4.2,1-6.1,0L16.3,15.4c0,0-14.7-8.5-14.7-8.5C-0.1,6-0.1,4.4,1.6,3.4z"/>
		</g>
		<g id="그룹_347" transform="translate(12.178 128.141)">
			<path id="패스_1338" class="st10" d="M0.3,5.2C0.4,6,0.9,6.7,1.6,7l19.2,11.1c1.7,1,4.3,1.8,3.2,1.9l11.4,6.6
				c1.9,1,4.2,1,6.1,0l3.9-2.3c0.7-0.3,1.2-1,1.3-1.8v1.1c-0.1,0.8-0.6,1.4-1.3,1.8l-3.9,2.3c-1.9,1-4.2,1-6.1,0L16.3,16.6
				c0,0-14.7-8.5-14.7-8.5c-0.7-0.3-1.2-1-1.3-1.8L0.3,5.2z"/>
			<path id="패스_1339" class="st7" d="M1.6,3.4l3.9-2.3c1.9-1,4.2-1,6.1,0l19.2,11.1c0,0,14.7,8.5,14.7,8.5c1.7,1,1.7,2.6,0,3.5
				l-3.9,2.3c-1.9,1-4.2,1-6.1,0L16.3,15.4c0,0-14.7-8.5-14.7-8.5C-0.1,6-0.1,4.4,1.6,3.4z"/>
		</g>
		<g id="그룹_348" transform="translate(1.343 139.407)">
			<path id="패스_1340" class="st10" d="M0.3,5.2C0.4,6,0.9,6.7,1.6,7l19.2,11.1c1.7,1,4.3,1.8,3.2,1.9l11.4,6.6
				c1.9,1,4.2,1,6.1,0l3.9-2.3c0.7-0.3,1.2-1,1.3-1.8v1.1c-0.1,0.8-0.6,1.4-1.3,1.8l-3.9,2.3c-1.9,1-4.2,1-6.1,0L16.3,16.6
				c0,0-14.7-8.5-14.7-8.5c-0.7-0.3-1.2-1-1.3-1.8L0.3,5.2z"/>
			<path id="패스_1341" class="st7" d="M1.6,3.4l3.9-2.3c1.9-1,4.2-1,6.1,0l19.2,11.1c0,0,14.7,8.5,14.7,8.5c1.7,1,1.7,2.6,0,3.5
				l-3.9,2.3c-1.9,1-4.2,1-6.1,0L16.3,15.4c0,0-14.7-8.5-14.7-8.5C-0.1,6-0.1,4.4,1.6,3.4z"/>
		</g>
		<g id="그룹_352" transform="translate(1.445 101.393)">
			<path id="패스_1342" class="st11" d="M1.1,60.8c0.6-0.6,1.3-1.1,2-1.6c1.3-0.9,6.9-2.4,5.7,0c-0.7,1.1-1.7,2-2.9,2.5
				c0,0,0,0,0,0.1c0.1,0.4-0.8,0.5-2.1,1.1c-1.2,0.5-2,0.6-2.2,0.3c-0.1-0.1-0.1-0.2-0.1-0.3c-0.1,0-0.2-0.1-0.2-0.2
				C0.9,62.2,0.8,61.4,1.1,60.8z"/>
			<g id="그룹_351">
				<g id="그룹_350" transform="translate(0 0.315)">
					<path id="패스_1343" class="st11" d="M16.8,53.5c1.3-0.9,6.9-2.4,5.7,0s-6.8,4.4-7.6,3.5c-0.4-0.6-0.5-1.3-0.1-1.9
						C15.4,54.5,16.1,53.9,16.8,53.5z"/>
					<path id="패스_1344" class="st11" d="M16.4,55.5c0.8-0.5,4.1-1.6,3.4,0s-4,2.8-4.5,2.2C15,57.4,15,57,15.2,56.6
						C15.5,56.2,15.9,55.8,16.4,55.5z"/>
					<path id="패스_1345" class="st2" d="M19.1,41.6c0,0-0.8,11.9-0.8,12.7c0,1.8-3,2-3.1,1.3s-0.6-12.2-0.6-12.2l-7.7-4.4
						l-0.6,9.3c0,0-1.5,9.8-1.5,11.3s-3,2.5-3,1.3S0.9,31.5,0.9,31.5L13.3,34L19.1,41.6z"/>
					
						<linearGradient id="패스_1346_1_" gradientUnits="userSpaceOnUse" x1="-956.642" y1="515.2509" x2="-955.642" y2="515.2509" gradientTransform="matrix(13.7529 0 0 -24.8101 11717.6846 12806.0322)">
						<stop  offset="5.000000e-03" style="stop-color:#F2F7FC"/>
						<stop  offset="0.233" style="stop-color:#D8E2F3"/>
						<stop  offset="0.713" style="stop-color:#9AAFD8"/>
						<stop  offset="1" style="stop-color:#738FC8"/>
					</linearGradient>
					<path id="패스_1346" class="st12" d="M2.4,10.4c2-1,10,3.2,10,3.2C15.5,15,13.3,34,13.3,34s-1,1-4.6,1s-7.7-3.2-7.7-3.2
						s-0.7-8.8-0.6-14S0.4,11.4,2.4,10.4z"/>
					<g id="그룹_349" transform="translate(9.621 13.029)">
						<path id="패스_1347" class="st13" d="M1.8,0.4c1.6-0.1,2.9,1.5,3,5.7c0,2.3,0.4,5.5,0,7.4c-0.3,1.6-1.1,2-1.8,2.1
							c-1.4,0.1-2.6-6.3-2.7-9C0.3,4.4,0.2,0.5,1.8,0.4z"/>
						
							<linearGradient id="패스_1348_1_" gradientUnits="userSpaceOnUse" x1="-1161.4512" y1="474.7759" x2="-1160.451" y2="474.7759" gradientTransform="matrix(4.0581 0 0 -5.8884 3263.6577 2819.3484)">
							<stop  offset="0" style="stop-color:#FCE0C3"/>
							<stop  offset="1" style="stop-color:#F7B470"/>
						</linearGradient>
						<path id="패스_1348" class="st14" d="M6.3,21.2c0,0,0.5,0.6,1.3,1.7s0.8,1.2,0.6,1.4c-0.2,0.3-0.7-0.2-0.7-0.2
							c0.1,0.3,0.2,0.7,0.3,1c0.3,0.8,0.2,1.7-0.9,1.5s-1.5-0.9-2.2-2.8c-0.4-1-0.5-2-0.4-3L6.3,21.2z"/>
						<path id="패스_1349" class="st13" d="M4.2,9.6c0,0,0.5,1.8,1.4,5.4s1.5,6.6,1.6,7.1c-0.5,1-2.5,1.2-2.8,0.8
							c-1.7-2.6-3.1-12.3-3.1-12.3C1.3,8.3,4.2,9.6,4.2,9.6z"/>
					</g>
					
						<linearGradient id="패스_1350_1_" gradientUnits="userSpaceOnUse" x1="-1172.7156" y1="481.1162" x2="-1171.7156" y2="481.1162" gradientTransform="matrix(3.7268 0 0 -4.9655 2935.2791 2398.4006)">
						<stop  offset="0" style="stop-color:#FCE0C3"/>
						<stop  offset="1" style="stop-color:#F7B470"/>
					</linearGradient>
					<path id="패스_1350" class="st15" d="M8.9,7.7c0.2,1.3,0.2,2.7-0.2,4c-1.2,0.4-2.6,0-3.4-1V6.9C5.3,6.9,8.6,6.7,8.9,7.7z"/>
					
						<linearGradient id="패스_1351_1_" gradientUnits="userSpaceOnUse" x1="-1013.1219" y1="503.0451" x2="-1012.1219" y2="503.0451" gradientTransform="matrix(8.0869 0 0 -10.2139 6755.7725 5143.5811)">
						<stop  offset="0" style="stop-color:#FCE0C3"/>
						<stop  offset="1" style="stop-color:#F7B470"/>
					</linearGradient>
					<path id="패스_1351" class="st16" d="M12.4,3.7c0,0,0.6,6.2-2.8,6.8S4.5,8.3,4.4,5.2C4,1.3,11.3-2.5,12.4,3.7z"/>
				</g>
				<path id="패스_1352" class="st2" d="M9.4,0.5c4.5,0.7,4.4,2.5,3.3,3.8s-3.4,2.1-3,4.3c0,0-1.6,2-3.3,2S3.8,6.3,3.8,5.1
					c0-2.6,2.2-4.7,4.8-4.7C8.9,0.4,9.1,0.4,9.4,0.5z"/>
				
					<linearGradient id="패스_1353_1_" gradientUnits="userSpaceOnUse" x1="-1516.3783" y1="447.6891" x2="-1515.3793" y2="447.6891" gradientTransform="matrix(1.6748 0 0 -2.773 1140.6788 1248.6907)">
					<stop  offset="0" style="stop-color:#FCE0C3"/>
					<stop  offset="1" style="stop-color:#F7B470"/>
				</linearGradient>
				<path id="패스_1353" class="st17" d="M10.5,6.8c0.7,1.1-0.1,2.2-0.6,1.7C9.2,8,8.9,7,9.3,6.2C9.9,5.2,10.5,6.8,10.5,6.8z"/>
			</g>
		</g>
		<g id="그룹_368" transform="translate(46.02 62.555)">
			<g id="그룹_353" transform="translate(0 17.706)" class="st18">
				<path id="패스_1354" class="st19" d="M69.9,28L23.6,1.1c-1.9-1-4.1-1-6,0L1.5,10.5c-1.6,1-1.6,2.5,0,3.5l46.3,26.9
					c1.9,1,4.1,1,6,0l16.1-9.3C71.5,30.5,71.5,29,69.9,28z"/>
			</g>
			<g id="그룹_356" transform="translate(14.152 25.984)">
				<g id="그룹_355">
					<path id="패스_1355" class="st20" d="M42.1,19l-9.6,5.6c-1.1,0.6-2.5,0.6-3.6,0L1.1,8.5c-0.4-0.2-0.7-0.6-0.7-1v0.3
						c0,0.5,0.3,0.9,0.7,1L28.8,25c1.1,0.6,2.5,0.6,3.6,0l9.6-5.6c0.4-0.2,0.7-0.6,0.7-1V18C42.7,18.5,42.5,18.9,42.1,19z"/>
					<g id="그룹_354" transform="translate(0.001)">
						<path id="패스_1356" class="st21" d="M42,17L14.3,0.8c-1.1-0.6-2.5-0.6-3.6,0L1.1,6.4C0.5,6.6,0.2,7.3,0.4,7.8
							c0.1,0.3,0.4,0.6,0.7,0.7l27.8,16.1c1.1,0.6,2.5,0.6,3.6,0l9.6-5.6c0.6-0.2,0.9-0.8,0.7-1.4C42.6,17.3,42.4,17.1,42,17z"/>
					</g>
				</g>
			</g>
			<g id="그룹_359" transform="translate(24.795 15.215)">
				<g id="그룹_358">
					<g id="그룹_357">
						<path id="패스_1357" class="st20" d="M20.2,11.1L1.9,0.6c-0.3-0.2-0.7-0.2-1,0c0.3-0.1,0.6,0,0.8,0.1l18.2,10.5
							c0.8,0.5,1.2,1.3,1.3,2.2l0,14c0,0.3-0.1,0.5-0.3,0.7c0.3-0.1,0.6-0.5,0.5-0.9l0-14C21.4,12.4,20.9,11.6,20.2,11.1z"/>
						<path id="패스_1358" class="st22" d="M20.1,28L1.9,17.5c-0.8-0.5-1.2-1.3-1.3-2.2l0-14c0-0.3,0.1-0.5,0.3-0.7
							C0.6,0.7,0.4,1.1,0.4,1.5l0,14c0,0.9,0.5,1.7,1.3,2.2l18.2,10.5c0.3,0.2,0.7,0.2,1,0C20.6,28.2,20.4,28.2,20.1,28z"/>
						<path id="패스_1359" class="st7" d="M19.9,11.4L1.4,0.7C1.2,0.6,0.9,0.5,0.6,0.6C0.4,0.8,0.3,1,0.4,1.3l0,14.2
							c0,0.9,0.5,1.7,1.3,2.2l18.5,10.7c0.2,0.2,0.5,0.2,0.8,0.1c0.2-0.2,0.3-0.5,0.3-0.7l0-14.2C21.2,12.7,20.7,11.9,19.9,11.4z"/>
					</g>
				</g>
			</g>
			<g id="그룹_363" transform="translate(1.267)">
				<g id="그룹_362">
					<path id="패스_1360" class="st20" d="M69.9,31.5l-16.1,9.3c-1.9,1-4.1,1-6,0L1.6,13.9c-0.7-0.3-1.2-1-1.2-1.7v0.5
						c0.1,0.8,0.5,1.4,1.2,1.7l46.3,26.9c1.9,1,4.1,1,6,0L69.9,32c0.7-0.3,1.2-1,1.2-1.7v-0.5C71,30.5,70.6,31.2,69.9,31.5z"/>
					<g id="그룹_361" transform="translate(0.001)">
						<g id="그룹_360">
							
								<linearGradient id="패스_1361_1_" gradientUnits="userSpaceOnUse" x1="-917.5352" y1="557.7904" x2="-916.5352" y2="557.7904" gradientTransform="matrix(70.7629 0 0 -41.1105 64927.8086 22951.9902)">
								<stop  offset="0" style="stop-color:#F2F7FC"/>
								<stop  offset="0.125" style="stop-color:#DCE6F5"/>
								<stop  offset="0.296" style="stop-color:#C6D5ED"/>
								<stop  offset="0.484" style="stop-color:#B6C9E8"/>
								<stop  offset="0.699" style="stop-color:#ACC2E5"/>
								<stop  offset="1" style="stop-color:#AAC1E4"/>
							</linearGradient>
							<path id="패스_1361" class="st23" d="M69.9,28L23.6,1.1c-1.9-1-4.1-1-6,0L1.5,10.5c-1.6,1-1.6,2.5,0,3.5l46.3,26.9
								c1.9,1,4.1,1,6,0l16.1-9.3C71.5,30.5,71.5,29,69.9,28z"/>
						</g>
					</g>
				</g>
			</g>
			<g id="그룹_365" transform="translate(25.721 7.048)">
				<g id="그룹_364" transform="translate(0 8.914)">
					<path id="패스_1362" class="st10" d="M7.5,2.2L3,4.9L0.3,4.7v0.9l11.5,6.5l7.4-4.1V7l-3.7-0.4L7.5,2.2z"/>
					<path id="패스_1363" class="st7" d="M0.3,4.7l11.5,6.5l7.4-4.1L7.5,0.4L0.3,4.7z"/>
					<path id="패스_1364" class="st10" d="M3.5,4L13,9.4l4.6-2.5L7.9,1.4L3.5,4z"/>
					<path id="패스_1365" class="st10" d="M5.2,6.7l2.7,1.5l1.3-0.7L6.4,6L5.2,6.7z"/>
					<path id="패스_1366" class="st24" d="M9.2,8.5L10,8.9l0.4-0.2L9.6,8.3L9.2,8.5z"/>
				</g>
				<path id="패스_1367" class="st10" d="M7.5,0.9l0.9,0.8l0,0v7l10.6,6l0.3,1.2l0.9-0.5V7.1L8.4,0.4L7.5,0.9z"/>
				<path id="패스_1368" class="st21" d="M7.5,9.3L19.3,16V7.6L7.5,0.9V9.3z"/>
				<path id="패스_1369" class="st10" d="M8.1,8.9l10.7,6V8L8.1,2V8.9z"/>
				<path id="패스_1370" class="st21" d="M9.1,8.8l8.5,4.8V8.1L9.1,3.3V8.8z"/>
			</g>
			<g id="그룹_366" transform="translate(17.428 3.687)">
				<path id="패스_1371" class="st7" d="M0.3,8.9l4.9,2.8V6.1L0.3,3.2V8.9z"/>
				
					<linearGradient id="패스_1372_1_" gradientUnits="userSpaceOnUse" x1="-799.8585" y1="534.3716" x2="-798.8585" y2="534.3716" gradientTransform="matrix(4.9331 0 0 -8.515 4298.3647 4557.6816)">
					<stop  offset="0" style="stop-color:#F3AACA"/>
					<stop  offset="1.000000e-02" style="stop-color:#F2A7C8"/>
					<stop  offset="0.118" style="stop-color:#EE8AA1"/>
					<stop  offset="0.232" style="stop-color:#E8737F"/>
					<stop  offset="0.352" style="stop-color:#E66264"/>
					<stop  offset="0.479" style="stop-color:#E3544F"/>
					<stop  offset="0.618" style="stop-color:#E34B42"/>
					<stop  offset="0.777" style="stop-color:#E14338"/>
					<stop  offset="1" style="stop-color:#E14236"/>
				</linearGradient>
				<path id="패스_1372" class="st25" d="M5.2,11.8l4.9-2.8V3.2L5.2,6.1V11.8z"/>
				<path id="패스_1373" class="st5" d="M0.3,3.2l4.9,2.8l4.9-2.8L5.2,0.4L0.3,3.2z"/>
			</g>
			<g id="그룹_367" transform="translate(48.413 22.191)">
				<path id="패스_1374" class="st7" d="M0.3,8.9l4.9,2.8V6.1L0.3,3.2V8.9z"/>
				
					<linearGradient id="패스_1375_1_" gradientUnits="userSpaceOnUse" x1="-830.8569" y1="515.853" x2="-829.8569" y2="515.853" gradientTransform="matrix(4.9341 0 0 -8.51 4452.1646 4397.416)">
					<stop  offset="0" style="stop-color:#F3AACA"/>
					<stop  offset="1.000000e-02" style="stop-color:#F2A7C8"/>
					<stop  offset="0.118" style="stop-color:#EE8AA1"/>
					<stop  offset="0.232" style="stop-color:#E8737F"/>
					<stop  offset="0.352" style="stop-color:#E66264"/>
					<stop  offset="0.479" style="stop-color:#E3544F"/>
					<stop  offset="0.618" style="stop-color:#E34B42"/>
					<stop  offset="0.777" style="stop-color:#E14338"/>
					<stop  offset="1" style="stop-color:#E14236"/>
				</linearGradient>
				<path id="패스_1375" class="st26" d="M5.2,11.8l4.9-2.8V3.2L5.2,6.1V11.8z"/>
				<path id="패스_1376" class="st5" d="M0.3,3.2l4.9,2.8l4.9-2.8L5.2,0.4L0.3,3.2z"/>
			</g>
		</g>
	</g>
</g>
</svg>
