<?xml version="1.0" encoding="utf-8"?>
<!-- Generator: Adobe Illustrator 25.3.1, SVG Export Plug-In . SVG Version: 6.00 Build 0)  -->
<svg version="1.1" id="레이어_1" xmlns="http://www.w3.org/2000/svg" xmlns:xlink="http://www.w3.org/1999/xlink" x="0px"
	 y="0px" viewBox="0 0 134 164" style="enable-background:new 0 0 134 164;" xml:space="preserve">
<style type="text/css">
	.st0{fill:#004781;}
	.st1{fill:#09223D;}
	.st2{opacity:0.2;}
	.st3{opacity:0.5;fill:#040000;enable-background:new    ;}
	.st4{fill:#004983;}
	.st5{fill:#E8EDF7;}
	.st6{fill:#C0D2ED;}
	.st7{fill:#FFFFFF;}
	.st8{fill:#00469C;}
	.st9{fill:url(#패스_1542_1_);}
	.st10{fill:#EB5F25;}
	.st11{fill:url(#패스_1545_1_);}
	.st12{fill:#C8D9EB;}
	.st13{opacity:0.15;fill:#040000;enable-background:new    ;}
	.st14{fill:#014278;}
	.st15{fill:url(#패스_1572_1_);}
	.st16{fill:url(#패스_1573_1_);}
	.st17{fill:#AAC1E4;}
	.st18{fill:url(#패스_1576_1_);}
	.st19{fill:url(#패스_1577_1_);}
	.st20{fill:url(#패스_1579_1_);}
	.st21{fill:url(#패스_1584_1_);}
	.st22{fill:#E94322;}
	.st23{fill:url(#패스_1586_1_);}
	.st24{fill:url(#패스_1587_1_);}
	.st25{fill:url(#패스_1589_1_);}
	.st26{fill:url(#패스_1591_1_);}
	.st27{fill:url(#패스_1593_1_);}
	.st28{fill:url(#패스_1594_1_);}
	.st29{fill:url(#패스_1595_1_);}
	.st30{fill:url(#패스_1597_1_);}
</style>
<g id="그룹_718" transform="translate(17616.283 13099.468)">
	<g id="그룹_715" transform="translate(-17616.283 -13099.468)">
		<rect id="사각형_950" x="90" y="65.2" class="st0" width="13.1" height="35.4"/>
		<g id="그룹_464" transform="translate(72.381 0)">
			<g id="그룹_463">
				<g id="그룹_462">
					<path id="패스_1522" class="st1" d="M45.8,22.7l-36-21C6.8-0.1,4,0,2.3,1.6c2-0.5,4.1-0.1,5.8,1.1l36,21
						c5.2,3,9.5,10.4,9.5,16.4l-0.3,38.2c0.1,2-0.6,4-2,5.5c2.3-0.7,3.7-3,3.7-6.5l0.3-38.2C55.3,33,51.1,25.7,45.8,22.7z"/>
					<path id="패스_1523" class="st0" d="M44.1,23.7l-36-21C6.4,1.5,4.3,1.2,2.3,1.6c-1.4,1.5-2.1,3.4-2,5.5L0,45.3
						c0,6,4.2,13.3,9.5,16.4l36,21c1.7,1.1,3.8,1.5,5.8,1.1c1.4-1.5,2.1-3.5,2-5.5l0.3-38.2C53.5,34.1,49.3,26.7,44.1,23.7z"/>
				</g>
			</g>
		</g>
		<g id="그룹_465" transform="translate(0 86.838)" class="st2">
			<path id="패스_1524" class="st3" d="M129.3,51.7l-86-50c-3.5-1.8-7.6-1.8-11.1,0L2.3,19c-3,1.8-3,4.7,0,6.4l86,50
				c3.5,1.8,7.6,1.8,11.1,0l29.9-17.4C132.4,56.3,132.4,53.5,129.3,51.7z"/>
		</g>
		<g id="그룹_468" transform="translate(26.309 102.227)">
			<g id="그룹_467" transform="translate(0)">
				<path id="패스_1525" class="st4" d="M77.6,35L59.7,45.4c-2.1,1.1-4.6,1.1-6.7,0l-51.6-30c-0.8-0.3-1.3-1.1-1.4-1.9v0.6
					c0.1,0.9,0.6,1.6,1.4,1.9L53,46c2.1,1.1,4.6,1.1,6.7,0l17.9-10.4c0.8-0.3,1.3-1.1,1.4-1.9v-0.6C78.9,33.9,78.4,34.7,77.6,35z"/>
				<g id="그룹_466" transform="translate(0.002)">
					<path id="패스_1526" class="st5" d="M77.6,31.2L26,1.2c-2.1-1.1-4.6-1.1-6.7,0L1.4,11.6c-1.8,1.1-1.8,2.8,0,3.9l51.6,30
						c2.1,1.1,4.6,1.1,6.7,0L77.6,35C79.4,34,79.4,32.2,77.6,31.2z"/>
				</g>
			</g>
		</g>
		<g id="그룹_471" transform="translate(46.094 82.205)">
			<g id="그룹_470" transform="translate(0 0)">
				<g id="그룹_469">
					<path id="패스_1527" class="st4" d="M36.9,20.3L3,0.7c-0.6-0.4-1.3-0.4-1.9,0c0.5-0.1,1,0,1.4,0.3l33.9,19.6
						c1.4,0.9,2.3,2.4,2.4,4.1l-0.1,26c0,0.5-0.1,1-0.5,1.4c0.6-0.3,1-0.9,0.9-1.6l0.1-26C39.2,22.7,38.3,21.2,36.9,20.3z"/>
					<path id="패스_1528" class="st6" d="M36.9,51.7L3,32.1c-1.4-0.9-2.3-2.4-2.4-4.1L0.7,2c0-0.5,0.1-1,0.5-1.4
						c-0.6,0.3-1,0.9-0.9,1.6l-0.1,26c0.1,1.7,1,3.2,2.4,4.1l33.9,19.6c0.6,0.4,1.3,0.4,1.9,0C37.8,52.1,37.3,52,36.9,51.7z"/>
					<path id="패스_1529" class="st7" d="M36.5,20.8L2.1,1c-0.4-0.3-1-0.4-1.5-0.3C0.3,1.1,0.1,1.6,0.1,2.1L0,28.4
						c0.1,1.7,1,3.2,2.4,4.2l34.4,19.8c0.4,0.3,1,0.4,1.5,0.3c0.4-0.4,0.5-0.9,0.5-1.4L38.9,25C38.8,23.3,37.9,21.7,36.5,20.8z"/>
				</g>
			</g>
		</g>
		<g id="그룹_474" transform="translate(2.356 53.921)">
			<g id="그룹_473" transform="translate(0)">
				<path id="패스_1530" class="st4" d="M129.3,58.1L99.5,75.5c-3.5,1.8-7.6,1.8-11.1,0l-86-50c-1.3-0.6-2.2-1.8-2.3-3.2v1
					c0.1,1.4,1,2.7,2.3,3.2l86,50c3.5,1.8,7.6,1.8,11.1,0l29.9-17.4c1.3-0.6,2.1-1.8,2.3-3.2v-1C131.5,56.3,130.6,57.5,129.3,58.1z"
					/>
				<g id="그룹_472" transform="translate(0.003)">
					<path id="패스_1531" class="st5" d="M129.3,51.7l-86-50c-3.5-1.8-7.6-1.8-11.1,0L2.3,19c-3,1.8-3,4.7,0,6.4l86,50
						c3.5,1.8,7.6,1.8,11.1,0l29.9-17.4C132.4,56.3,132.4,53.5,129.3,51.7z"/>
				</g>
			</g>
		</g>
		<g id="그룹_476" transform="translate(47.816 67.024)">
			<g id="그룹_475" transform="translate(0 16.571)">
				<path id="패스_1532" class="st0" d="M13.4,3.7L5,8.7L0,8.3v1.7L21.4,22l13.8-7.6v-1.7l-6.9-0.7L13.4,3.7z"/>
				<path id="패스_1533" class="st7" d="M0,8.3l21.4,12.1l13.8-7.6L13.4,0.4L0,8.3z"/>
				<path id="패스_1534" class="st0" d="M5.9,7.1L23.5,17l8.5-4.6l-18-10.1L5.9,7.1z"/>
				<path id="패스_1535" class="st0" d="M9,12.1l5,2.8l2.4-1.3l-5.1-2.9L9,12.1z"/>
				<path id="패스_1536" class="st8" d="M16.6,15.4l1.5,0.8l0.7-0.4L17.2,15L16.6,15.4z"/>
			</g>
			<path id="패스_1537" class="st0" d="M13.5,1.4l1.6,1.5l0.1-0.1v13L34.8,27l0.5,2.2l1.7-1V12.7L15.1,0.4L13.5,1.4z"/>
			<path id="패스_1538" class="st5" d="M13.5,16.9l21.8,12.4V13.7L13.5,1.4V16.9z"/>
			<path id="패스_1539" class="st0" d="M14.5,16.1l19.8,11.2V14.6L14.5,3.3V16.1z"/>
			<path id="패스_1540" class="st5" d="M16.4,15.9l15.9,9V14.7l-15.9-9V15.9z"/>
		</g>
		<g id="그룹_477" transform="translate(32.399 60.775)">
			<path id="패스_1541" class="st7" d="M0,16.2l9.2,5.3V10.9L0,5.6V16.2z"/>
			
				<linearGradient id="패스_1542_1_" gradientUnits="userSpaceOnUse" x1="-815.4957" y1="548.1473" x2="-814.4957" y2="548.1473" gradientTransform="matrix(9.172 0 0 -15.8251 8134.6987 8688.0254)">
				<stop  offset="0" style="stop-color:#F3AACA"/>
				<stop  offset="1.000000e-02" style="stop-color:#F2A7C8"/>
				<stop  offset="0.118" style="stop-color:#EE8AA1"/>
				<stop  offset="0.232" style="stop-color:#E8737F"/>
				<stop  offset="0.352" style="stop-color:#E66264"/>
				<stop  offset="0.479" style="stop-color:#E3544F"/>
				<stop  offset="0.618" style="stop-color:#E34B42"/>
				<stop  offset="0.777" style="stop-color:#E14338"/>
				<stop  offset="1" style="stop-color:#E14236"/>
			</linearGradient>
			<path id="패스_1542" class="st9" d="M9.2,21.5l9.2-5.3V5.6l-9.2,5.3V21.5z"/>
			<path id="패스_1543" class="st10" d="M0,5.6l9.2,5.3l9.1-5.3L9.2,0.4L0,5.6z"/>
		</g>
		<g id="그룹_478" transform="translate(90.002 95.175)">
			<path id="패스_1544" class="st7" d="M0,16.2l9.2,5.3V10.9L0,5.6V16.2z"/>
			
				<linearGradient id="패스_1545_1_" gradientUnits="userSpaceOnUse" x1="-873.0992" y1="513.7473" x2="-872.0992" y2="513.7473" gradientTransform="matrix(9.1721 0 0 -15.8251 8663.1543 8143.647)">
				<stop  offset="0" style="stop-color:#F3AACA"/>
				<stop  offset="1.000000e-02" style="stop-color:#F2A7C8"/>
				<stop  offset="0.118" style="stop-color:#EE8AA1"/>
				<stop  offset="0.232" style="stop-color:#E8737F"/>
				<stop  offset="0.352" style="stop-color:#E66264"/>
				<stop  offset="0.479" style="stop-color:#E3544F"/>
				<stop  offset="0.618" style="stop-color:#E34B42"/>
				<stop  offset="0.777" style="stop-color:#E14338"/>
				<stop  offset="1" style="stop-color:#E14236"/>
			</linearGradient>
			<path id="패스_1545" class="st11" d="M9.2,21.5l9.2-5.3V5.6l-9.2,5.3V21.5z"/>
			<path id="패스_1546" class="st10" d="M0,5.6l9.2,5.3l9.1-5.3L9.2,0.4L0,5.6z"/>
		</g>
		<g id="그룹_485" transform="translate(78.123 29.413)">
			<g id="그룹_479">
				<path id="패스_1547" class="st12" d="M0,2.3l42.3,24.4v-2L0,0.4V2.3z"/>
			</g>
			<g id="그룹_480" transform="translate(0 4.502)">
				<path id="패스_1548" class="st12" d="M0,2.3l41,23.7v-2L0,0.4V2.3z"/>
			</g>
			<g id="그룹_481" transform="translate(0 9.004)">
				<path id="패스_1549" class="st12" d="M0,2.3l37.4,21.6v-2L0,0.4V2.3z"/>
			</g>
			<g id="그룹_482" transform="translate(0 13.505)">
				<path id="패스_1550" class="st12" d="M0,2.3l35,20.2v-2L0,0.4V2.3z"/>
			</g>
			<g id="그룹_483" transform="translate(0 18.006)">
				<path id="패스_1551" class="st12" d="M0,2.3l32.9,19v-2L0,0.4V2.3z"/>
			</g>
			<g id="그룹_484" transform="translate(0 22.508)">
				<path id="패스_1552" class="st12" d="M0,2.3l30.3,17.5v-2L0,0.4V2.3z"/>
			</g>
		</g>
		<g id="그룹_496" transform="translate(85.859 13.65)">
			<g id="그룹_487" transform="translate(0 0)">
				<g id="그룹_486">
					<path id="패스_1553" class="st7" d="M2,0.6C0.9,0,0,0.5,0,1.7C0.1,3.1,0.8,4.3,2,5.1C3,5.7,3.9,5.2,3.9,4
						C3.8,2.6,3.1,1.4,2,0.6z"/>
				</g>
			</g>
			<g id="그룹_489" transform="translate(5.752 3.321)">
				<g id="그룹_488">
					<path id="패스_1554" class="st10" d="M2,0.6C0.9,0,0,0.5,0,1.7C0.1,3.1,0.8,4.3,2,5.1C3,5.7,3.9,5.2,3.9,4
						C3.8,2.6,3.1,1.4,2,0.6z"/>
				</g>
			</g>
			<g id="그룹_491" transform="translate(11.505 6.643)">
				<g id="그룹_490">
					<path id="패스_1555" class="st7" d="M2,0.6C0.9,0,0,0.5,0,1.7C0.1,3.1,0.8,4.3,2,5.1C3,5.7,3.9,5.2,3.9,4
						C3.8,2.6,3.1,1.4,2,0.6z"/>
				</g>
			</g>
			<g id="그룹_493" transform="translate(17.257 9.964)">
				<g id="그룹_492">
					<path id="패스_1556" class="st7" d="M2,0.6C0.9,0,0,0.5,0,1.7C0.1,3.1,0.8,4.3,2,5.1C3,5.7,3.9,5.2,3.9,4
						C3.8,2.6,3.1,1.4,2,0.6z"/>
				</g>
			</g>
			<g id="그룹_495" transform="translate(23.01 13.284)">
				<g id="그룹_494">
					<path id="패스_1557" class="st7" d="M2,0.6C0.9,0,0,0.5,0,1.7C0.1,3.1,0.8,4.3,2,5.1C3,5.7,3.9,5.2,3.9,4
						C3.8,2.6,3.1,1.4,2,0.6z"/>
				</g>
			</g>
		</g>
		<g id="그룹_507" transform="translate(85.859 20.141)">
			<g id="그룹_498">
				<g id="그룹_497">
					<path id="패스_1558" class="st7" d="M2,0.6C0.9,0,0,0.5,0,1.7C0.1,3.1,0.8,4.3,2,5.1C3,5.7,3.9,5.2,3.9,4
						C3.8,2.6,3.1,1.4,2,0.6z"/>
				</g>
			</g>
			<g id="그룹_500" transform="translate(5.752 3.321)">
				<g id="그룹_499">
					<path id="패스_1559" class="st7" d="M2,0.6C0.9,0,0,0.5,0,1.7C0.1,3.1,0.8,4.3,2,5.1C3,5.7,3.9,5.2,3.9,4
						C3.8,2.6,3.1,1.4,2,0.6z"/>
				</g>
			</g>
			<g id="그룹_502" transform="translate(11.505 6.643)">
				<g id="그룹_501">
					<path id="패스_1560" class="st10" d="M2,0.6C0.9,0,0,0.5,0,1.7C0.1,3.1,0.8,4.3,2,5.1C3,5.7,3.9,5.2,3.9,4
						C3.8,2.6,3.1,1.4,2,0.6z"/>
				</g>
			</g>
			<g id="그룹_504" transform="translate(17.257 9.963)">
				<g id="그룹_503">
					<path id="패스_1561" class="st7" d="M2,0.6C0.9,0,0,0.5,0,1.7C0.1,3.1,0.8,4.3,2,5.1C3,5.7,3.9,5.2,3.9,4
						C3.8,2.6,3.1,1.4,2,0.6z"/>
				</g>
			</g>
			<g id="그룹_506" transform="translate(23.01 13.284)">
				<g id="그룹_505">
					<path id="패스_1562" class="st7" d="M2,0.6C0.9,0,0,0.5,0,1.7C0.1,3.1,0.8,4.3,2,5.1C3,5.7,3.9,5.2,3.9,4
						C3.8,2.6,3.1,1.4,2,0.6z"/>
				</g>
			</g>
		</g>
		<g id="그룹_518" transform="translate(85.859 26.632)">
			<g id="그룹_509">
				<g id="그룹_508">
					<path id="패스_1563" class="st10" d="M2,0.6C0.9,0,0,0.5,0,1.7C0.1,3.1,0.8,4.3,2,5.1C3,5.7,3.9,5.2,3.9,4
						C3.8,2.6,3.1,1.4,2,0.6z"/>
				</g>
			</g>
			<g id="그룹_511" transform="translate(5.752 3.321)">
				<g id="그룹_510">
					<path id="패스_1564" class="st7" d="M2,0.6C0.9,0,0,0.5,0,1.7C0.1,3.1,0.8,4.3,2,5.1C3,5.7,3.9,5.2,3.9,4
						C3.8,2.6,3.1,1.4,2,0.6z"/>
				</g>
			</g>
			<g id="그룹_513" transform="translate(11.505 6.642)">
				<g id="그룹_512">
					<path id="패스_1565" class="st7" d="M2,0.6C0.9,0,0,0.5,0,1.7C0.1,3.1,0.8,4.3,2,5.1C3,5.7,3.9,5.2,3.9,4
						C3.8,2.6,3.1,1.4,2,0.6z"/>
				</g>
			</g>
			<g id="그룹_515" transform="translate(17.257 9.963)">
				<g id="그룹_514">
					<path id="패스_1566" class="st10" d="M2,0.6C0.9,0,0,0.5,0,1.7C0.1,3.1,0.8,4.3,2,5.1C3,5.7,3.9,5.2,3.9,4
						C3.8,2.6,3.1,1.4,2,0.6z"/>
				</g>
			</g>
			<g id="그룹_517" transform="translate(23.01 13.284)">
				<g id="그룹_516">
					<path id="패스_1567" class="st10" d="M2,0.6C0.9,0,0,0.5,0,1.7C0.1,3.1,0.8,4.3,2,5.1C3,5.7,3.9,5.2,3.9,4
						C3.8,2.6,3.1,1.4,2,0.6z"/>
				</g>
			</g>
		</g>
	</g>
	<g id="그룹_716" transform="translate(-17606.389 -13013.469)">
		<g id="그룹_523" transform="translate(32.321 0)">
			<path id="패스_1568" class="st13" d="M27.4,65c-5-2.9-13-2.9-18,0c-5,2.9-5,7.6-0.1,10.4s13,2.9,18,0S32.3,67.9,27.4,65z"/>
			<g id="그룹_522" transform="translate(0 0.352)">
				<path id="패스_1569" class="st1" d="M14.7,71.4c-1.5-1-7.7-2.7-6.4,0s7.6,4.9,8.5,3.9c0.5-0.6,0.5-1.5,0.2-2.2
					C16.3,72.6,15.6,71.9,14.7,71.4z"/>
				<path id="패스_1570" class="st1" d="M23.2,66.4c-1.5-1-7.7-2.7-6.4,0c1.3,2.8,7.6,4.9,8.5,3.9c0.5-0.6,0.5-1.5,0.2-2.2
					C24.8,67.5,24,66.9,23.2,66.4z"/>
				<path id="패스_1571" class="st14" d="M12.2,58.1c0,0,0.9,13.3,0.9,14.2c0,2,3.4,2.3,3.5,1.4s1.1-17.2,1.1-17.2l1-13.2l1.2-0.1
					L20,53.9c0,0,1.6,11,1.7,12.6s3.3,2.7,3.3,1.4s1-32.7,1-32.7L12.1,38L12.2,58.1z"/>
				
					<linearGradient id="패스_1572_1_" gradientUnits="userSpaceOnUse" x1="-909.8987" y1="528.4105" x2="-908.8987" y2="528.4105" gradientTransform="matrix(14.5184 0 0 -27.7662 13222.4229 14697.1748)">
					<stop  offset="5.000000e-03" style="stop-color:#F2F7FC"/>
					<stop  offset="0.233" style="stop-color:#D8E2F3"/>
					<stop  offset="0.713" style="stop-color:#9AAFD8"/>
					<stop  offset="1" style="stop-color:#738FC8"/>
				</linearGradient>
				<path id="패스_1572" class="st15" d="M24.3,11.5c-2.3-1.1-11.2,3.6-11.2,3.6c0,2.8-0.9,22.9-0.9,22.9s1.2,1.1,5.2,1.1
					s8.7-3.5,8.7-3.5s0.8-9.9,0.6-15.7S26.6,12.6,24.3,11.5z"/>
				
					<linearGradient id="패스_1573_1_" gradientUnits="userSpaceOnUse" x1="-846.8323" y1="506.985" x2="-845.8323" y2="506.985" gradientTransform="matrix(4.0402 0 0 -7.3676 3421.3811 3756.7576)">
					<stop  offset="0" style="stop-color:#FCE0C3"/>
					<stop  offset="1" style="stop-color:#F7B470"/>
				</linearGradient>
				<path id="패스_1573" class="st16" d="M3.4,19.3C3,19.2,3,20,3,20c-0.2-0.3-0.4-0.7-0.5-1.1c-0.3-0.9-1.1-1.6-1.8-0.6
					c-0.9,1.3-0.9,2.2,0.2,4c1.2,2,1.8,2.9,1.8,2.9l1.4-1.9c0,0,0-0.8-0.1-2.4C3.8,19.4,3.8,19.3,3.4,19.3z"/>
				<path id="패스_1574" class="st17" d="M1.8,24.3c1.6,3,6.1,6.7,6.1,6.7c2.2,1.2,2.9-2.6,2.9-2.6s-6.2-6.1-6.7-6.4
					C2.8,21.9,1.6,23.8,1.8,24.3z"/>
				<g id="그룹_521" transform="translate(7.333 14.744)">
					<g id="그룹_520">
						<path id="패스_1575" class="st17" d="M7.2,0.5C5.5-0.1,3.6,1.2,2.3,5.8c-0.7,2.5-2,5.9-2.2,8c-0.2,1.8,0.6,2.5,1.3,2.7
							c1.5,0.5,4.6-6,5.6-9C7.7,5.3,8.9,1.1,7.2,0.5z"/>
					</g>
				</g>
				
					<linearGradient id="패스_1576_1_" gradientUnits="userSpaceOnUse" x1="-849.5887" y1="497.4906" x2="-848.5887" y2="497.4906" gradientTransform="matrix(4.1718 0 0 -5.5581 3561.2126 2775.5518)">
					<stop  offset="0" style="stop-color:#FCE0C3"/>
					<stop  offset="1" style="stop-color:#F7B470"/>
				</linearGradient>
				<path id="패스_1576" class="st18" d="M17.1,8.6c-0.3,1.5-0.2,3,0.2,4.5c1.4,0.5,2.9,0,3.8-1.1V7.7C21.1,7.7,17.3,7.4,17.1,8.6
					z"/>
				
					<linearGradient id="패스_1577_1_" gradientUnits="userSpaceOnUse" x1="-895.2145" y1="517.3527" x2="-894.2145" y2="517.3527" gradientTransform="matrix(9.0521 0 0 -11.4314 8116.6592 5920.1475)">
					<stop  offset="0" style="stop-color:#FCE0C3"/>
					<stop  offset="1" style="stop-color:#F7B470"/>
				</linearGradient>
				<path id="패스_1577" class="st19" d="M13.1,4c0,0-0.7,7,3.1,7.7s5.7-2.5,5.9-6C22.5,1.3,14.4-2.9,13.1,4z"/>
			</g>
			<path id="패스_1578" class="st14" d="M16.5,0.5c-5,0.8-4.9,2.8-3.7,4.2s3.8,2.3,3.3,4.8c0,0,1.7,2.3,3.7,2.3s2.9-4.8,2.9-6.2
				S21.5-0.3,16.5,0.5z"/>
			
				<linearGradient id="패스_1579_1_" gradientUnits="userSpaceOnUse" x1="-745.7546" y1="467.2865" x2="-744.7546" y2="467.2865" gradientTransform="matrix(1.8733 0 0 -3.1044 1411.9226 1458.6501)">
				<stop  offset="0" style="stop-color:#FCE0C3"/>
				<stop  offset="1" style="stop-color:#F7B470"/>
			</linearGradient>
			<path id="패스_1579" class="st20" d="M15.2,7.5c-0.8,1.2,0.2,2.5,0.7,1.9c0.8-0.6,1.1-1.7,0.7-2.6C15.9,5.7,15.2,7.5,15.2,7.5z
				"/>
		</g>
		<g id="그룹_525" transform="translate(0 1.536)">
			<path id="패스_1580" class="st13" d="M21.9,62.8c-5-2.9-13-2.9-18,0c-5,2.9-5,7.6-0.1,10.4s13,2.9,18,0S26.8,65.7,21.9,62.8z"
				/>
			<path id="패스_1581" class="st1" d="M7.1,64.4c-0.6-0.2-1.3,0-1.7,0.5c-0.6,0.8,2.8,5.4,4.7,5.9c2.4,0.7-0.1-4.1-1.1-5
				C8.4,65.3,7.8,64.8,7.1,64.4z"/>
			<path id="패스_1582" class="st1" d="M19.6,66.2c-0.7-0.3-1.5-0.4-2.3-0.5c-0.6,0.1-1.1,0.6-1.3,1.2c-0.2,1,5.2,3.4,6.7,3.4
				C24.9,70.3,21,66.7,19.6,66.2z"/>
			<path id="패스_1583" class="st14" d="M15.6,0.4c-3.5,0-4.1,2.4-4.9,5.6s-3.3,2-4.1,4.1s0.8,4.1,0.1,5.4s-3.8,1.3-4.4,3.7
				s2.9,7.3,5.7,6.8s9.2-5.9,9.2-7.8S21,4.7,21,4.7C21,2.7,19.1,0.4,15.6,0.4z"/>
			<g id="그룹_524" transform="translate(11.219 17.237)">
				
					<linearGradient id="패스_1584_1_" gradientUnits="userSpaceOnUse" x1="-852.7233" y1="463.3893" x2="-851.7232" y2="463.3893" gradientTransform="matrix(5.846 0 0 -3.9542 4993.2593 1842.9924)">
					<stop  offset="0" style="stop-color:#FCE0C3"/>
					<stop  offset="1" style="stop-color:#F7B470"/>
				</linearGradient>
				<path id="패스_1584" class="st21" d="M13.4,10.8c-0.3-0.2-0.6-0.4-0.8-0.6c0,0,0.6,0.1,0.6-0.2s0-0.3-1.3-0.7
					s-1.9-0.6-1.9-0.6L8.2,9.4c0.5,0.8,1.2,1.5,2,2.1c1.6,1.1,2.3,1.3,3.2,0.9S14.1,11.3,13.4,10.8z"/>
				<path id="패스_1585" class="st22" d="M5.2,3.9L0.6,0.4c0,0-1.3,2.3,0.1,4.2c0,0,5.8,5.4,8.9,6.4c0.5,0.2,1.8-1,1.6-2.2
					C10.8,8.5,5.2,3.9,5.2,3.9z"/>
			</g>
			
				<linearGradient id="패스_1586_1_" gradientUnits="userSpaceOnUse" x1="-866.9571" y1="520.6064" x2="-865.9571" y2="520.6064" gradientTransform="matrix(10.105 0 0 -14.9644 8767.2432 7849.021)">
				<stop  offset="0" style="stop-color:#FCE0C3"/>
				<stop  offset="1" style="stop-color:#F7B470"/>
			</linearGradient>
			<path id="패스_1586" class="st23" d="M6.7,65.1c0.3,0.7,1.1,1,1.8,0.9c0.8-1.5,8.3-13.8,8.3-13.8L13.3,51L6.7,65.1z"/>
			
				<linearGradient id="패스_1587_1_" gradientUnits="userSpaceOnUse" x1="-804.3427" y1="521.8385" x2="-803.3427" y2="521.8385" gradientTransform="matrix(3.619 0 0 -16.369 2928.177 8600.6494)">
				<stop  offset="0" style="stop-color:#FCE0C3"/>
				<stop  offset="1" style="stop-color:#F7B470"/>
			</linearGradient>
			<path id="패스_1587" class="st24" d="M17.2,66.5c0.6,0.5,1.4,0.5,2,0c0.1-1.7,1.6-16,1.6-16l-3.6,0.5L17.2,66.5z"/>
			<path id="패스_1588" class="st14" d="M11.6,29.7c0,0-1.2,0.9-1.6,3.9s0.9,7.8,1,11.8s-2.4,5.1-2.4,5.1s3.6,2.7,6.1,2.7
				s5,0.1,6.7-0.8c1-4.8-0.6-21.9-0.6-21.9L11.6,29.7z"/>
			
				<linearGradient id="패스_1589_1_" gradientUnits="userSpaceOnUse" x1="-874.5434" y1="523.4506" x2="-873.5434" y2="523.4506" gradientTransform="matrix(12.9078 0 0 -18.6608 11297.54 9789.4492)">
				<stop  offset="0" style="stop-color:#F3AACA"/>
				<stop  offset="0.597" style="stop-color:#E86870"/>
				<stop  offset="1" style="stop-color:#E14236"/>
			</linearGradient>
			<path id="패스_1589" class="st25" d="M18.6,12.2c-1.4-0.3-6.3,2.2-7.7,2.9c-3.3,1.7-1.3,3.8,0.2,7.9c0.4,1.2,0.6,7.3,0.6,7.3
				s-0.5,0.5,2.6,0.5s6.4-0.4,6.4-0.4l0.6-7.7c1.8-2.9-0.3-6.2-0.3-6.8S20,12.5,18.6,12.2z"/>
			<path id="패스_1590" class="st22" d="M11.3,15.4c-1.6-0.6-2.2,0.6-3.8,4.2c-1.2,2.7-2.7,7.2-1.4,7.8c0.6,0.2,1.5,2.2,2.5,0.9
				c1.2-1.6,1.4-4.9,2.4-7.1C12.8,17.1,12.8,16.1,11.3,15.4z"/>
			
				<linearGradient id="패스_1591_1_" gradientUnits="userSpaceOnUse" x1="-836.8702" y1="483.5529" x2="-835.9783" y2="483.5529" gradientTransform="matrix(5.6174 0 0 -4.1793 4723.251 2053.467)">
				<stop  offset="0" style="stop-color:#FCE0C3"/>
				<stop  offset="1" style="stop-color:#F7B470"/>
			</linearGradient>
			<path id="패스_1591" class="st26" d="M14.3,32.2c0,0,0.6,0.2,0.7-0.2s0-0.3-1.2-0.9s-1.9-0.8-1.9-0.8L10,31.1
				c0.4,0.9,1.1,1.6,1.8,2.2c1.5,1.2,2.2,1.5,3.1,1.2s0.6-1.1,0-1.6C14.8,32.7,14.5,32.5,14.3,32.2z"/>
			<path id="패스_1592" class="st22" d="M6.9,25c-1,0.4-1.5,1.6-1.1,2.7C5.9,27.8,6,27.9,6,28c1.4,2,3.1,3.6,5.2,4.7
				c0.5,0.2,1.9-0.8,1.7-2c-0.4-0.4-4.4-5.4-4.4-5.4L6.9,25z"/>
			
				<linearGradient id="패스_1593_1_" gradientUnits="userSpaceOnUse" x1="-817.8921" y1="493.6469" x2="-816.892" y2="493.6469" gradientTransform="matrix(4.2028 0 0 -5.2003 3450.5791 2579.6658)">
				<stop  offset="0" style="stop-color:#FCE0C3"/>
				<stop  offset="1" style="stop-color:#F7B470"/>
			</linearGradient>
			<path id="패스_1593" class="st27" d="M13.2,9.9v4c0.4,0.9,1.4,1.3,2.4,1.1c1.7-0.3,2-2.3,1.7-3.4S13.2,9.9,13.2,9.9z"/>
			
				<linearGradient id="패스_1594_1_" gradientUnits="userSpaceOnUse" x1="-860.3771" y1="514.9587" x2="-859.3771" y2="514.9587" gradientTransform="matrix(8.5035 0 0 -10.74 7328.4282 5538.0947)">
				<stop  offset="0" style="stop-color:#FCE0C3"/>
				<stop  offset="1" style="stop-color:#F7B470"/>
			</linearGradient>
			<path id="패스_1594" class="st28" d="M12.2,7.1c0.1,3.3,1.9,6.3,5.5,5.6s2.9-7.2,2.9-7.2C19.5-1,11.9,3,12.2,7.1z"/>
			
				<linearGradient id="패스_1595_1_" gradientUnits="userSpaceOnUse" x1="-806.0893" y1="488.2978" x2="-805.0893" y2="488.2978" gradientTransform="matrix(3.685 0 0 -4.6042 2984.1411 2263.6885)">
				<stop  offset="0" style="stop-color:#FCE0C3"/>
				<stop  offset="1" style="stop-color:#F7B470"/>
			</linearGradient>
			<path id="패스_1595" class="st29" d="M17.3,13.3c0.1-0.4-1.9,0.2-1.9,0.2l-1.7,1.1c0,0,3.1,2.1,3.7,3.1
				C17.2,16.3,17.2,14.8,17.3,13.3z"/>
			<path id="패스_1596" class="st14" d="M20,2.1c-1.2-1.4-5.6-0.7-5.6-0.7l-1.8,3.8C12.3,6,12,6.8,11.7,7.6c0,0.3,0.1,1.7,0.1,1.8
				c0,0.1,0.6,1.2,0.8,1.7c0,0,0.1,0,0.1,0c0,0,0,0,0-0.1l0.4-0.3c0,0,0.8-1.5,1.7-3s3.3-1.6,5.5-2C23.3,5.1,20,2.1,20,2.1z"/>
			
				<linearGradient id="패스_1597_1_" gradientUnits="userSpaceOnUse" x1="-701.3661" y1="461.255" x2="-700.3661" y2="461.255" gradientTransform="matrix(1.7606 0 0 -2.915 1247.6451 1353.1313)">
				<stop  offset="0" style="stop-color:#FCE0C3"/>
				<stop  offset="1" style="stop-color:#F7B470"/>
			</linearGradient>
			<path id="패스_1597" class="st30" d="M13,7.4c-0.4,0.9-0.1,1.9,0.6,2.4c0.5,0.5,1.4-0.7,0.6-1.8C14.3,8.1,13.7,6.4,13,7.4z"/>
			<path id="패스_1598" class="st1" d="M18.2,69.3L16.3,68l-0.1-1.3l1.9,1.7L18.2,69.3z"/>
			<path id="패스_1599" class="st1" d="M6.2,67.9l-1.1-2l0.5-1.2l1,2.4L6.2,67.9z"/>
			<path id="패스_1600" class="st1" d="M19.8,68h-1.6v1.2l1.8-0.6L19.8,68z"/>
			<path id="패스_1601" class="st1" d="M7.8,66.7H6.2v1.2L8,67.3L7.8,66.7z"/>
		</g>
	</g>
</g>
</svg>
