<?xml version="1.0" encoding="utf-8"?>
<!-- Generator: Adobe Illustrator 25.3.1, SVG Export Plug-In . SVG Version: 6.00 Build 0)  -->
<svg version="1.1" id="레이어_1" xmlns="http://www.w3.org/2000/svg" xmlns:xlink="http://www.w3.org/1999/xlink" x="0px"
	 y="0px" viewBox="0 0 104 113" style="enable-background:new 0 0 104 113;" xml:space="preserve">
<style type="text/css">
	.st0{fill:#D5D8ED;}
	.st1{fill:#9CA2C8;}
	.st2{fill:#4E3570;}
	.st3{fill:#F2F3FA;}
	.st4{fill:#FFFFFF;}
	.st5{opacity:0.3;fill:url(#패스_1627_1_);enable-background:new    ;}
	.st6{fill:url(#패스_1763_1_);}
	.st7{fill:url(#패스_1764_1_);}
	.st8{fill:url(#패스_1766_1_);}
	.st9{fill:#9583BC;}
	.st10{fill:url(#패스_1768_1_);}
	.st11{fill:url(#패스_1769_1_);}
	.st12{fill:#84529E;}
</style>
<g id="그룹_731" transform="translate(-1367.217 -1215.238)">
	<g id="그룹_541" transform="translate(-2549.645 -1.627)">
		<path id="패스_1616" class="st0" d="M3919.7,1248.9c-1.4,0.8-2.3,2.3-2.5,3.9v49.4c0,1.4,1.1,1.8,2.5,1.1l54.7-31.6
			c1.4-0.8,2.3-2.3,2.5-3.9v-49.4c0-1.4-1.1-1.8-2.5-1.1L3919.7,1248.9z"/>
		<path id="패스_1617" class="st1" d="M3917.5,1302.1c0,1.2,1,1.6,2.2,0.9l54.7-31.6c1.2-0.7,2.1-2,2.2-3.5v-49.4
			c0-1.2-1-1.6-2.2-0.9l-54.7,31.6c-1.2,0.7-2.1,2-2.2,3.5V1302.1z"/>
		<path id="패스_1618" class="st2" d="M3919.5,1251.5v46.8l55-31.6V1220L3919.5,1251.5z"/>
		<path id="패스_1619" class="st3" d="M3960.6,1327.5c20-11.4,39.9-23,59.7-34.5c0.2-0.1,0.2-0.3,0-0.4
			c-14.1-8.3-28.6-16.4-42.7-24.7c-0.2-0.1-0.4-0.1-0.7,0c-19.9,11.5-39.8,23-59.6,34.5c-0.2,0.1-0.1,0.3,0,0.4
			c14.1,8.3,28.2,16.5,42.6,24.7C3960.2,1327.6,3960.4,1327.6,3960.6,1327.5z"/>
		<path id="패스_1620" class="st0" d="M3960,1327.5c-14.3-8.2-28.5-16.4-42.6-24.7c-0.1-0.1-0.2-0.2-0.1-0.3h0v2.2h0
			c0,0.1,0.1,0.1,0.1,0.2c14.1,8.3,28.2,16.5,42.6,24.7c0.1,0.1,0.2,0.1,0.3,0.1v-2.1C3960.2,1327.6,3960.1,1327.6,3960,1327.5z"/>
		<path id="패스_1621" class="st1" d="M4020.4,1293c-19.9,11.5-39.7,23.1-59.7,34.5c-0.1,0.1-0.2,0.1-0.3,0.1v2.1
			c0.1,0,0.2,0,0.3-0.1c20-11.4,39.9-23,59.7-34.5c0.1,0,0.1-0.1,0.1-0.2v-2.1C4020.5,1292.9,4020.4,1293,4020.4,1293z"/>
		<path id="패스_1622" class="st1" d="M4020.5,1329L4020.5,1329L4020.5,1329C4020.5,1329,4020.5,1329,4020.5,1329z"/>
		<path id="패스_1623" class="st0" d="M3981.5,1312.7c4.2-2.5,8.5-4.9,12.8-7.4c0.2-0.1,0.1-0.3,0-0.4c-2.4-1.4-7.9-4.6-10.4-6.1
			c-0.2-0.1-0.4-0.1-0.6,0c-4.3,2.5-8.6,5-12.8,7.5c-0.2,0.1-0.1,0.3,0,0.4c2.5,1.4,8,4.6,10.4,6
			C3981,1312.8,3981.3,1312.8,3981.5,1312.7z"/>
		<path id="패스_1624" class="st0" d="M3927.9,1302.2c-0.6-0.4-1.4-0.4-2.1-0.1c-0.5,0.3-0.5,0.9,0.1,1.2c0.6,0.4,1.4,0.4,2.1,0.1
			C3928.5,1303.1,3928.5,1302.6,3927.9,1302.2z"/>
		<path id="패스_1625" class="st4" d="M3926.8,1302.8L3926.8,1302.8L3926.8,1302.8C3926.9,1302.8,3926.9,1302.7,3926.8,1302.8
			C3926.9,1302.7,3926.9,1302.7,3926.8,1302.8C3926.9,1302.7,3926.9,1302.7,3926.8,1302.8
			C3926.9,1302.7,3926.9,1302.7,3926.8,1302.8l-0.2-0.3h0c0,0,0,0,0,0l0,0l0,0c0,0,0,0,0,0c0,0,0,0,0,0c0,0,0,0,0,0c0,0,0,0,0,0
			L3926.8,1302.8L3926.8,1302.8C3926.8,1302.8,3926.8,1302.8,3926.8,1302.8z M3926.7,1302.5c0,0,0.1,0.1,0.1,0.1c0.1,0,0.1,0,0.2,0
			c0.1,0.1,0.1,0.1,0,0.2c-0.1,0.1-0.2,0-0.3,0c0,0-0.1-0.1-0.1-0.1c0,0-0.1-0.1-0.2-0.1c-0.1,0.1,0,0.2,0.1,0.3
			c0.2,0.1,0.4,0.1,0.6,0c0.2-0.1,0.1-0.2,0-0.3C3927,1302.5,3926.9,1302.5,3926.7,1302.5L3926.7,1302.5z"/>
		<path id="패스_1626" class="st1" d="M3981.8,1275c-0.2-0.1-0.4-0.1-0.7,0c-17.3,10-34.5,19.9-51.8,29.9c-0.2,0.1-0.2,0.3,0,0.4
			c6.8,4,13.7,7.9,20.5,11.9c0.2,0.1,0.4,0.1,0.7,0c17.2-9.9,34.4-20,51.5-30c0.2-0.1,0.2-0.3,0-0.4
			C3995.4,1282.9,3988.6,1279,3981.8,1275z M3995,1286.7c0.1,0.1,0.1,0.2,0,0.2c-1,0.6-1.5,0.9-2.5,1.4c-0.1,0.1-0.2,0.1-0.4,0
			c-1.1-0.6-1.6-0.9-2.6-1.5c-0.1-0.1-0.1-0.2,0-0.2l2.5-1.4c0.1-0.1,0.2-0.1,0.4,0L3995,1286.7z M3991.6,1284.9
			c-2.9,1.7-5.7,3.3-8.6,5c-0.1,0.1-0.2,0.1-0.3,0l-2.6-1.6c-0.1-0.1-0.1-0.2,0-0.2c1.5-0.9,3.1-1.8,4.6-2.7
			c-1.3-0.8-1.9-1.1-3.2-1.9c-0.1-0.1-0.1-0.2,0-0.2l3.8-2.2c0.1-0.1,0.2,0,0.4,0c2,1.2,4,2.4,6.1,3.5
			C3991.7,1284.8,3991.7,1284.9,3991.6,1284.9L3991.6,1284.9z M3946.6,1307.7c-0.1-0.1-0.1-0.1,0-0.2c1-0.6,1.5-0.8,2.4-1.4
			c0.1-0.1,0.2,0,0.4,0c1.1,0.6,1.6,0.9,2.7,1.5c0.1,0.1,0.1,0.1,0,0.2c-1,0.6-1.5,0.8-2.4,1.4c-0.1,0.1-0.2,0-0.4,0
			C3948.2,1308.6,3947.7,1308.3,3946.6,1307.7L3946.6,1307.7z M3944.8,1308.1c-0.1,0.1-0.2,0-0.4,0l-2.7-1.6c-0.1-0.1-0.1-0.2,0-0.2
			l2.4-1.4c0.1-0.1,0.2,0,0.4,0c1.1,0.6,1.6,0.9,2.7,1.6c0.1,0.1,0.1,0.2,0,0.2L3944.8,1308.1z M3947.5,1306.3l-2.7-1.6
			c-0.1-0.1-0.1-0.2,0-0.2l2.4-1.4c0.1-0.1,0.2,0,0.4,0l2.7,1.6c0.1,0.1,0.1,0.1,0,0.2l-2.4,1.4
			C3947.8,1306.3,3947.6,1306.3,3947.5,1306.3L3947.5,1306.3z M3951.8,1308.7c-0.1-0.1-0.1-0.1,0-0.2c1-0.6,1.5-0.8,2.4-1.4
			c0.1-0.1,0.2,0,0.3,0l2.7,1.5c0.1,0.1,0.1,0.1,0,0.2c-1,0.6-1.4,0.8-2.4,1.4c-0.1,0.1-0.2,0-0.4,0L3951.8,1308.7z M3952.7,1307.5
			c-0.1,0.1-0.2,0-0.4,0l-2.7-1.5c-0.1-0.1-0.1-0.2,0-0.2l2.4-1.4c0.1-0.1,0.2,0,0.4,0c1.1,0.6,1.6,0.9,2.7,1.5
			c0.1,0.1,0.1,0.1,0,0.2L3952.7,1307.5z M3950.6,1304.5c-1.1-0.6-1.6-0.9-2.7-1.6c-0.1-0.1-0.1-0.1,0-0.2c1-0.6,1.5-0.8,2.4-1.4
			c0.1-0.1,0.2,0,0.4,0c1.1,0.6,1.6,0.9,2.7,1.6c0.1,0.1,0.1,0.2,0,0.2l-2.4,1.4C3950.8,1304.6,3950.7,1304.6,3950.6,1304.5
			L3950.6,1304.5z M3954.8,1307c-0.1-0.1-0.1-0.2,0-0.2c1-0.6,1.4-0.8,2.4-1.4c0.1-0.1,0.2,0,0.4,0l2.7,1.5c0.1,0.1,0.1,0.1,0,0.2
			l-2.4,1.4c-0.1,0.1-0.2,0-0.4,0C3956.4,1307.9,3955.9,1307.6,3954.8,1307L3954.8,1307z M3955.7,1305.7c-0.1,0.1-0.2,0-0.4,0
			c-1.1-0.6-1.6-0.9-2.7-1.5c-0.1-0.1-0.1-0.2,0-0.2l2.4-1.4c0.1-0.1,0.2,0,0.4,0l2.7,1.5c0.1,0.1,0.1,0.1,0,0.2L3955.7,1305.7z
			 M3953.6,1302.8l-2.7-1.6c-0.1-0.1-0.1-0.1,0-0.2c1-0.6,1.4-0.8,2.4-1.4c0.1-0.1,0.2,0,0.4,0c1.1,0.6,1.6,0.9,2.7,1.6
			c0.1,0.1,0.1,0.1,0,0.2l-2.4,1.4C3953.8,1302.8,3953.7,1302.8,3953.6,1302.8L3953.6,1302.8z M3957.8,1305.2
			c-0.1-0.1-0.1-0.2,0-0.2c1-0.6,1.4-0.8,2.4-1.4c0.1-0.1,0.2,0,0.3,0c1.1,0.6,1.6,0.9,2.7,1.5c0.1,0.1,0.1,0.1,0,0.2
			c-1,0.6-1.4,0.8-2.4,1.4c-0.1,0.1-0.2,0-0.3,0C3959.5,1306.1,3958.9,1305.8,3957.8,1305.2L3957.8,1305.2z M3958.8,1304
			c-0.1,0.1-0.2,0-0.4,0c-1.1-0.6-1.6-0.9-2.7-1.5c-0.1-0.1-0.1-0.1,0-0.2c1-0.6,1.4-0.8,2.4-1.4c0.1-0.1,0.2,0,0.3,0
			c1.1,0.6,1.6,0.9,2.7,1.5c0.1,0.1,0.1,0.1,0,0.2C3960.2,1303.2,3959.7,1303.4,3958.8,1304L3958.8,1304z M3956.6,1301
			c-1.1-0.6-1.6-0.9-2.7-1.6c-0.1-0.1-0.1-0.2,0-0.2c1-0.6,1.4-0.8,2.4-1.4c0.1-0.1,0.2,0,0.4,0c1.1,0.6,1.6,0.9,2.7,1.6
			c0.1,0.1,0.1,0.1,0,0.2l-2.4,1.4C3956.9,1301.1,3956.7,1301.1,3956.6,1301L3956.6,1301z M3960.9,1303.5c-0.1-0.1-0.1-0.1,0-0.2
			c1-0.6,1.4-0.8,2.4-1.4c0.1-0.1,0.2,0,0.3,0l2.7,1.5c0.1,0.1,0.1,0.1,0,0.2c-1,0.6-1.4,0.8-2.4,1.4c-0.1,0.1-0.2,0-0.3,0
			L3960.9,1303.5z M3961.8,1302.2c-0.1,0.1-0.2,0-0.3,0c-1.1-0.6-1.6-0.9-2.7-1.5c-0.1-0.1-0.1-0.1,0-0.2l2.4-1.4
			c0.1-0.1,0.2,0,0.3,0l2.7,1.6c0.1,0.1,0.1,0.2,0,0.2C3963.2,1301.4,3962.7,1301.7,3961.8,1302.2L3961.8,1302.2z M3959.7,1299.3
			l-2.7-1.6c-0.1-0.1-0.1-0.2,0-0.2c1-0.6,1.4-0.8,2.4-1.4c0.1-0.1,0.2,0,0.4,0c1.1,0.6,1.6,0.9,2.7,1.6c0.1,0.1,0.1,0.2,0,0.2
			l-2.4,1.4C3959.9,1299.3,3959.8,1299.3,3959.7,1299.3L3959.7,1299.3z M3963.9,1301.7c-0.1-0.1-0.1-0.1,0-0.2
			c1-0.6,1.4-0.8,2.4-1.4c0.1-0.1,0.2,0,0.3,0l2.7,1.5c0.1,0.1,0.1,0.2,0,0.2c-1,0.6-1.4,0.8-2.4,1.4c-0.1,0.1-0.2,0-0.3,0
			L3963.9,1301.7z M3964.8,1300.5c-0.1,0.1-0.2,0-0.3,0l-2.7-1.6c-0.1-0.1-0.1-0.2,0-0.2c1-0.6,1.4-0.8,2.4-1.4c0.1-0.1,0.2,0,0.3,0
			l2.7,1.6c0.1,0.1,0.1,0.2,0,0.2C3966.2,1299.7,3965.8,1299.9,3964.8,1300.5L3964.8,1300.5z M3962.7,1297.5
			c-1.1-0.6-1.6-0.9-2.7-1.6c-0.1-0.1-0.1-0.2,0-0.2c1-0.6,1.4-0.8,2.4-1.4c0.1-0.1,0.2,0,0.3,0c1.1,0.6,1.6,0.9,2.7,1.6
			c0.1,0.1,0.1,0.2,0,0.2l-2.4,1.4C3962.9,1297.6,3962.8,1297.6,3962.7,1297.5L3962.7,1297.5z M3966.9,1300c-0.1-0.1-0.1-0.1,0-0.2
			c1-0.6,1.4-0.8,2.4-1.4c0.1-0.1,0.2,0,0.3,0l2.7,1.6c0.1,0.1,0.1,0.2,0,0.2c-1,0.6-1.4,0.8-2.4,1.4c-0.1,0.1-0.2,0-0.3,0
			L3966.9,1300z M3967.8,1298.7c-0.1,0.1-0.2,0-0.3,0l-2.7-1.6c-0.1-0.1-0.1-0.2,0-0.2l2.4-1.4c0.1-0.1,0.2,0,0.3,0
			c1.1,0.6,1.6,0.9,2.7,1.6c0.1,0.1,0.1,0.2,0,0.2L3967.8,1298.7z M3965.7,1295.8c-1.1-0.6-1.6-0.9-2.7-1.6c-0.1-0.1-0.1-0.2,0-0.2
			l2.4-1.4c0.1-0.1,0.2,0,0.3,0l2.7,1.6c0.1,0.1,0.1,0.2,0,0.2c-1,0.6-1.4,0.8-2.4,1.4C3966,1295.8,3965.8,1295.8,3965.7,1295.8
			L3965.7,1295.8z M3969.9,1298.2c-0.1-0.1-0.1-0.2,0-0.2l2.4-1.4c0.1-0.1,0.2,0,0.3,0c1.1,0.6,1.6,0.9,2.6,1.6
			c0.1,0.1,0.1,0.2,0,0.2c-1,0.6-1.4,0.8-2.4,1.4c-0.1,0.1-0.2,0-0.3,0C3971.5,1299.1,3971,1298.8,3969.9,1298.2L3969.9,1298.2z
			 M3970.9,1297c-0.1,0.1-0.2,0-0.3,0l-2.6-1.6c-0.1-0.1-0.1-0.2,0-0.2l2.4-1.4c0.1-0.1,0.2,0,0.3,0l2.6,1.6c0.1,0.1,0.1,0.2,0,0.2
			C3972.3,1296.1,3971.8,1296.4,3970.9,1297L3970.9,1297z M3968.8,1294l-2.7-1.6c-0.1-0.1-0.1-0.2,0-0.2c1-0.6,1.4-0.8,2.4-1.4
			c0.1-0.1,0.2,0,0.4,0c1.1,0.6,1.6,0.9,2.6,1.6c0.1,0.1,0.1,0.2,0,0.2l-2.4,1.4C3969,1294.1,3968.9,1294.1,3968.8,1294L3968.8,1294
			z M3972.9,1296.5c-0.1-0.1-0.1-0.2,0-0.2c1-0.6,1.4-0.8,2.4-1.4c0.1-0.1,0.2,0,0.3,0c1.1,0.6,1.6,0.9,2.6,1.6
			c0.1,0.1,0.1,0.2,0,0.2c-1,0.6-1.4,0.8-2.4,1.4c-0.1,0.1-0.2,0-0.3,0L3972.9,1296.5z M3973.9,1295.2c-0.1,0.1-0.2,0-0.3,0
			l-2.6-1.6c-0.1-0.1-0.1-0.2,0-0.2l2.4-1.4c0.1-0.1,0.2,0,0.3,0l2.6,1.6c0.1,0.1,0.1,0.2,0,0.2
			C3975.3,1294.4,3974.8,1294.7,3973.9,1295.2L3973.9,1295.2z M3971.8,1292.2l-2.6-1.6c-0.1-0.1-0.1-0.2,0-0.2l2.4-1.4
			c0.1-0.1,0.2,0,0.3,0l2.6,1.6c0.1,0.1,0.1,0.2,0,0.2l-2.4,1.4C3972,1292.3,3971.9,1292.3,3971.8,1292.2L3971.8,1292.2z
			 M3976,1294.7c-0.1-0.1-0.1-0.2,0-0.2c1-0.6,1.4-0.8,2.4-1.4c0.1-0.1,0.2,0,0.3,0c1.1,0.6,1.6,0.9,2.6,1.6c0.1,0.1,0.1,0.2,0,0.2
			c-1,0.6-1.4,0.8-2.4,1.4c-0.1,0.1-0.2,0-0.3,0C3977.6,1295.6,3977,1295.3,3976,1294.7L3976,1294.7z M3976.9,1293.5
			c-0.1,0.1-0.2,0-0.3,0c-1.1-0.6-1.6-0.9-2.6-1.6c-0.1-0.1-0.1-0.2,0-0.2l2.4-1.4c0.1-0.1,0.2,0,0.3,0l2.6,1.6
			c0.1,0.1,0.1,0.2,0,0.2L3976.9,1293.5z M3974.8,1290.5l-2.6-1.6c-0.1-0.1-0.1-0.2,0-0.2c1-0.6,1.5-0.8,2.4-1.4
			c0.1-0.1,0.2,0,0.3,0c1.1,0.6,1.6,0.9,2.6,1.6c0.1,0.1,0.1,0.2,0,0.2c-1,0.6-1.5,0.8-2.4,1.4
			C3975.1,1290.5,3974.9,1290.5,3974.8,1290.5L3974.8,1290.5z M3979,1292.9c-0.1-0.1-0.1-0.2,0-0.2c1-0.6,1.4-0.8,2.4-1.4
			c0.1-0.1,0.2,0,0.3,0l2.6,1.6c0.1,0.1,0.1,0.2,0,0.2c-1,0.6-1.4,0.8-2.4,1.4c-0.1,0.1-0.2,0-0.3,0
			C3980.6,1293.9,3980.1,1293.6,3979,1292.9L3979,1292.9z M3980,1291.7c-0.1,0.1-0.2,0-0.3,0l-2.6-1.6c-0.1-0.1-0.1-0.2,0-0.2
			c1-0.6,1.5-0.8,2.4-1.4c0.1-0.1,0.2,0,0.3,0l2.6,1.6c0.1,0.1,0.1,0.2,0,0.2C3981.4,1290.9,3980.9,1291.1,3980,1291.7L3980,1291.7z
			 M3977.9,1288.7c-1.1-0.6-1.6-0.9-2.6-1.6c-0.1-0.1-0.1-0.2,0-0.2l2.4-1.4c0.1-0.1,0.2,0,0.3,0l2.6,1.6c0.1,0.1,0.1,0.2,0,0.2
			c-1,0.6-1.5,0.8-2.4,1.4C3978.1,1288.8,3978,1288.8,3977.9,1288.7L3977.9,1288.7z M3982.2,1291.1c-0.1-0.1-0.1-0.2,0-0.2
			c2.2-1.3,4.5-2.6,6.7-3.9c0.1-0.1,0.2-0.1,0.4,0c1.1,0.6,1.6,0.9,2.6,1.5c0.1,0.1,0.1,0.2,0,0.2c-2.2,1.3-4.5,2.6-6.7,3.9
			c-0.1,0.1-0.2,0-0.3,0L3982.2,1291.1z M3981,1286.9l-2.6-1.6c-0.1-0.1-0.1-0.2,0-0.2l2.4-1.4c0.1-0.1,0.2,0,0.3,0
			c1.1,0.6,1.6,0.9,2.6,1.6c0.1,0.1,0.1,0.2,0,0.2c-1,0.6-1.5,0.8-2.4,1.4C3981.2,1287,3981.1,1287,3981,1286.9L3981,1286.9z
			 M3984.8,1280.9c-2.8,1.6-5.7,3.3-8.5,4.9c-0.1,0.1-0.2,0-0.4,0c-1.1-0.6-1.6-0.9-2.6-1.6c-0.1-0.1-0.1-0.2,0-0.2
			c2.8-1.6,5.7-3.3,8.5-4.9c0.1-0.1,0.2,0,0.4,0c1.1,0.6,1.6,0.9,2.7,1.6C3984.9,1280.8,3984.9,1280.9,3984.8,1280.9L3984.8,1280.9z
			 M3975.9,1278.7c-0.1-0.1-0.1-0.2,0-0.2l2.4-1.4c0.1-0.1,0.2,0,0.4,0l2.7,1.6c0.1,0.1,0.1,0.2,0,0.2l-2.4,1.4
			c-0.1,0.1-0.2,0-0.4,0L3975.9,1278.7z M3972.8,1280.5c-0.1-0.1-0.1-0.2,0-0.2l2.4-1.4c0.1-0.1,0.2,0,0.4,0l2.7,1.6
			c0.1,0.1,0.1,0.2,0,0.2l-2.4,1.4c-0.1,0.1-0.2,0-0.3,0C3974.4,1281.5,3973.9,1281.1,3972.8,1280.5L3972.8,1280.5z M3969.8,1282.3
			c-0.1-0.1-0.1-0.2,0-0.2l2.4-1.4c0.1-0.1,0.2,0,0.4,0c1.1,0.6,1.6,1,2.7,1.6c0.1,0.1,0.1,0.2,0,0.2l-2.4,1.4c-0.1,0.1-0.2,0-0.4,0
			C3971.4,1283.2,3970.8,1282.9,3969.8,1282.3L3969.8,1282.3z M3966.7,1284c-0.1-0.1-0.1-0.2,0-0.2l2.4-1.4c0.1-0.1,0.2,0,0.4,0
			c1.1,0.6,1.6,1,2.7,1.6c0.1,0.1,0.1,0.2,0,0.2c-1,0.6-1.5,0.8-2.4,1.4c-0.1,0.1-0.2,0-0.4,0
			C3968.3,1285,3967.8,1284.7,3966.7,1284L3966.7,1284z M3970.1,1286.1c-0.1-0.1-0.1-0.2,0-0.2c1-0.6,1.5-0.8,2.4-1.4
			c0.1-0.1,0.2,0,0.4,0c1.1,0.6,1.6,0.9,2.7,1.6c0.1,0.1,0.1,0.2,0,0.2c-1,0.6-1.5,0.8-2.4,1.4c-0.1,0.1-0.2,0-0.3,0
			C3971.7,1287,3971.2,1286.7,3970.1,1286.1L3970.1,1286.1z M3963.6,1285.8c-0.1-0.1-0.1-0.2,0-0.2l2.4-1.4c0.1-0.1,0.2,0,0.4,0
			c1.1,0.6,1.6,1,2.7,1.6c0.1,0.1,0.1,0.2,0,0.2l-2.4,1.4c-0.1,0.1-0.2,0-0.3,0C3965.2,1286.8,3964.7,1286.4,3963.6,1285.8
			L3963.6,1285.8z M3967.1,1287.9c-0.1-0.1-0.1-0.2,0-0.2c1-0.6,1.5-0.8,2.4-1.4c0.1-0.1,0.2,0,0.4,0l2.6,1.6c0.1,0.1,0.1,0.2,0,0.2
			l-2.4,1.4c-0.1,0.1-0.2,0-0.3,0C3968.7,1288.8,3968.1,1288.5,3967.1,1287.9L3967.1,1287.9z M3960.6,1287.6c-0.1-0.1-0.1-0.2,0-0.2
			l2.4-1.4c0.1-0.1,0.2,0,0.4,0l2.7,1.6c0.1,0.1,0.1,0.2,0,0.2l-2.4,1.4c-0.1,0.1-0.2,0-0.4,0
			C3962.2,1288.5,3961.7,1288.2,3960.6,1287.6L3960.6,1287.6z M3964,1289.6c-0.1-0.1-0.1-0.2,0-0.2l2.4-1.4c0.1-0.1,0.2,0,0.3,0
			c1.1,0.6,1.6,0.9,2.7,1.6c0.1,0.1,0.1,0.2,0,0.2c-1,0.6-1.4,0.8-2.4,1.4c-0.1,0.1-0.2,0-0.3,0L3964,1289.6z M3957.5,1289.3
			c-0.1-0.1-0.1-0.2,0-0.2c1-0.6,1.5-0.8,2.4-1.4c0.1-0.1,0.2,0,0.4,0c1.1,0.6,1.6,1,2.7,1.6c0.1,0.1,0.1,0.2,0,0.2
			c-1,0.6-1.5,0.8-2.4,1.4c-0.1,0.1-0.2,0-0.3,0C3959.1,1290.3,3958.6,1290,3957.5,1289.3L3957.5,1289.3z M3961,1291.4
			c-0.1-0.1-0.1-0.2,0-0.2l2.4-1.4c0.1-0.1,0.2,0,0.4,0l2.7,1.6c0.1,0.1,0.1,0.2,0,0.2l-2.4,1.4c-0.1,0.1-0.2,0-0.3,0L3961,1291.4z
			 M3954.5,1291.1c-0.1-0.1-0.1-0.2,0-0.2c1-0.6,1.5-0.8,2.4-1.4c0.1-0.1,0.2,0,0.4,0c1.1,0.6,1.6,1,2.7,1.6c0.1,0.1,0.1,0.2,0,0.2
			l-2.4,1.4c-0.1,0.1-0.2,0-0.4,0C3956.1,1292.1,3955.6,1291.7,3954.5,1291.1L3954.5,1291.1z M3957.9,1292.9l2.4-1.4
			c0.1-0.1,0.2,0,0.3,0c1.1,0.6,1.6,0.9,2.7,1.6c0.1,0.1,0.1,0.2,0,0.2c-1,0.6-1.4,0.8-2.4,1.4c-0.1,0.1-0.2,0-0.4,0
			c-1.1-0.6-1.6-0.9-2.7-1.6C3957.8,1293.1,3957.8,1293,3957.9,1292.9L3957.9,1292.9z M3951.4,1292.9c-0.1-0.1-0.1-0.2,0-0.2
			l2.4-1.4c0.1-0.1,0.2,0,0.4,0c1.1,0.6,1.6,1,2.7,1.6c0.1,0.1,0.1,0.2,0,0.2l-2.4,1.4c-0.1,0.1-0.2,0-0.4,0
			C3953,1293.8,3952.5,1293.5,3951.4,1292.9L3951.4,1292.9z M3954.9,1294.7c1-0.6,1.4-0.8,2.4-1.4c0.1-0.1,0.2,0,0.4,0
			c1.1,0.6,1.6,0.9,2.7,1.6c0.1,0.1,0.1,0.2,0,0.2l-2.4,1.4c-0.1,0.1-0.2,0-0.4,0c-1.1-0.6-1.6-0.9-2.7-1.6
			C3954.8,1294.8,3954.8,1294.7,3954.9,1294.7L3954.9,1294.7z M3948.4,1294.6c-0.1-0.1-0.1-0.2,0-0.2l2.4-1.4c0.1-0.1,0.2,0,0.4,0
			c1.1,0.6,1.6,0.9,2.7,1.6c0.1,0.1,0.1,0.2,0,0.2c-1,0.6-1.4,0.8-2.4,1.4c-0.1,0.1-0.2,0-0.4,0
			C3950,1295.6,3949.5,1295.3,3948.4,1294.6L3948.4,1294.6z M3951.8,1296.4c1-0.6,1.4-0.8,2.4-1.4c0.1-0.1,0.2,0,0.4,0
			c1.1,0.6,1.6,0.9,2.7,1.6c0.1,0.1,0.1,0.2,0,0.2c-1,0.6-1.4,0.8-2.4,1.4c-0.1,0.1-0.2,0-0.4,0c-1.1-0.6-1.6-0.9-2.7-1.6
			C3951.8,1296.6,3951.7,1296.5,3951.8,1296.4L3951.8,1296.4z M3945.3,1296.4c-0.1-0.1-0.1-0.2,0-0.2l2.4-1.4c0.1-0.1,0.2,0,0.4,0
			l2.7,1.6c0.1,0.1,0.1,0.2,0,0.2l-2.4,1.4c-0.1,0.1-0.2,0-0.4,0C3946.9,1297.3,3946.4,1297,3945.3,1296.4L3945.3,1296.4z
			 M3948.8,1298.2l2.4-1.4c0.1-0.1,0.2,0,0.4,0c1.1,0.6,1.6,0.9,2.7,1.6c0.1,0.1,0.1,0.2,0,0.2l-2.4,1.4c-0.1,0.1-0.2,0-0.3,0
			c-1.1-0.6-1.6-0.9-2.7-1.6C3948.7,1298.4,3948.7,1298.3,3948.8,1298.2L3948.8,1298.2z M3942.3,1298.1c-0.1-0.1-0.1-0.2,0-0.2
			l2.4-1.4c0.1-0.1,0.2,0,0.4,0l2.7,1.6c0.1,0.1,0.1,0.2,0,0.2l-2.4,1.4c-0.1,0.1-0.2,0-0.4,0
			C3943.9,1299.1,3943.4,1298.8,3942.3,1298.1L3942.3,1298.1z M3945.8,1300l2.4-1.4c0.1-0.1,0.2,0,0.4,0c1.1,0.6,1.6,0.9,2.7,1.6
			c0.1,0.1,0.1,0.2,0,0.2l-2.4,1.4c-0.1,0.1-0.2,0-0.3,0c-1.1-0.6-1.6-0.9-2.7-1.6C3945.7,1300.1,3945.7,1300,3945.8,1300
			L3945.8,1300z M3939.2,1299.9c-0.1-0.1-0.1-0.2,0-0.2l2.4-1.4c0.1-0.1,0.2,0,0.4,0c1.1,0.6,1.6,0.9,2.7,1.6c0.1,0.1,0.1,0.2,0,0.2
			l-2.4,1.4c-0.1,0.1-0.2,0-0.4,0C3940.8,1300.8,3940.3,1300.5,3939.2,1299.9L3939.2,1299.9z M3942.7,1301.7c1-0.6,1.5-0.8,2.4-1.4
			c0.1-0.1,0.2,0,0.4,0c1.1,0.6,1.6,0.9,2.7,1.6c0.1,0.1,0.1,0.2,0,0.2l-2.4,1.4c-0.1,0.1-0.2,0-0.4,0l-2.7-1.6
			C3942.6,1301.9,3942.6,1301.8,3942.7,1301.7L3942.7,1301.7z M3936.2,1301.7c-0.1-0.1-0.1-0.2,0-0.2l2.4-1.4c0.1-0.1,0.2,0,0.4,0
			l2.7,1.6c0.1,0.1,0.1,0.2,0,0.2l-2.4,1.4c-0.1,0.1-0.2,0-0.4,0L3936.2,1301.7z M3939.6,1303.5l2.4-1.4c0.1-0.1,0.2,0,0.4,0
			l2.7,1.6c0.1,0.1,0.1,0.2,0,0.2l-2.4,1.4c-0.1,0.1-0.2,0-0.4,0c-1.1-0.6-1.6-0.9-2.7-1.6
			C3939.5,1303.6,3939.5,1303.5,3939.6,1303.5L3939.6,1303.5z M3933.1,1303.4c-0.1-0.1-0.1-0.2,0-0.2l2.4-1.4c0.1-0.1,0.2,0,0.4,0
			l2.7,1.6c0.1,0.1,0.1,0.2,0,0.2l-2.4,1.4c-0.1,0.1-0.2,0-0.4,0L3933.1,1303.4z M3936.6,1305.2l2.4-1.4c0.1-0.1,0.2,0,0.4,0
			c1.1,0.6,1.6,0.9,2.7,1.6c0.1,0.1,0.1,0.2,0,0.2c-1,0.6-1.5,0.8-2.4,1.4c-0.1,0.1-0.2,0-0.4,0c-1.1-0.6-1.6-0.9-2.7-1.6
			C3936.5,1305.4,3936.5,1305.3,3936.6,1305.2L3936.6,1305.2z M3930,1305.2c-0.1-0.1-0.1-0.2,0-0.2l2.4-1.4c0.1-0.1,0.2,0,0.4,0
			l2.7,1.6c0.1,0.1,0.1,0.2,0,0.2c-1,0.6-1.5,0.8-2.4,1.4c-0.1,0.1-0.2,0-0.4,0L3930,1305.2z M3933.5,1307.2c-0.1-0.1-0.1-0.2,0-0.2
			l2.4-1.4c0.1-0.1,0.2,0,0.4,0c1.1,0.6,1.6,0.9,2.7,1.6c0.1,0.1,0.1,0.2,0,0.2c-1,0.6-1.5,0.8-2.4,1.4c-0.1,0.1-0.2,0-0.4,0
			C3935.1,1308.2,3934.6,1307.8,3933.5,1307.2L3933.5,1307.2z M3937,1309.2c-0.1-0.1-0.1-0.2,0-0.2l4.1-2.4c0.1-0.1,0.2,0,0.4,0
			l2.7,1.6c0.1,0.1,0.1,0.2,0,0.2c-1.4,0.8-2.7,1.6-4.1,2.4c-0.1,0.1-0.2,0-0.4,0L3937,1309.2z M3940.5,1311.2
			c-0.1-0.1-0.1-0.2,0-0.2c1.8-1,3.6-2.1,5.5-3.1c0.1-0.1,0.2,0,0.4,0c1.1,0.6,1.6,0.9,2.7,1.5c0.1,0.1,0.1,0.1,0,0.2
			c-1.8,1.1-3.6,2.1-5.5,3.2c-0.1,0.1-0.2,0-0.4,0L3940.5,1311.2z M3943.9,1313.2c-0.1-0.1-0.1-0.1,0-0.2c2.4-1.4,4.8-2.7,7.2-4.1
			c0.1-0.1,0.2,0,0.4,0c1.1,0.6,1.6,0.9,2.7,1.5c0.1,0.1,0.1,0.2,0,0.2c-2.4,1.4-4.8,2.8-7.2,4.1c-0.1,0.1-0.2,0.1-0.4,0
			L3943.9,1313.2z M3952.9,1315.2c0.1,0.1,0.1,0.2,0,0.2c-1,0.6-1.5,0.8-2.5,1.4c-0.1,0.1-0.2,0-0.4,0l-2.7-1.5
			c-0.1-0.1-0.1-0.2,0-0.2c1-0.6,1.5-0.8,2.4-1.4c0.1-0.1,0.2,0,0.4,0C3951.3,1314.3,3951.8,1314.6,3952.9,1315.2L3952.9,1315.2z
			 M3956,1313.4c0.1,0.1,0.1,0.2,0,0.2c-1,0.6-1.5,0.8-2.4,1.4c-0.1,0.1-0.2,0-0.4,0c-1.1-0.6-1.6-0.9-2.7-1.5
			c-0.1-0.1-0.1-0.2,0-0.2c1-0.6,1.5-0.8,2.4-1.4c0.1-0.1,0.2,0,0.4,0C3954.3,1312.5,3954.9,1312.8,3956,1313.4L3956,1313.4z
			 M3986.1,1295.9c0.1,0.1,0.1,0.2,0,0.2c-9.8,5.7-19.6,11.4-29.4,17.1c-0.1,0.1-0.2,0-0.4,0c-1.1-0.6-1.6-0.9-2.7-1.5
			c-0.1-0.1-0.1-0.1,0-0.2c9.9-5.7,19.7-11.4,29.5-17.1c0.1-0.1,0.2,0,0.3,0C3984.5,1295,3985,1295.3,3986.1,1295.9L3986.1,1295.9z
			 M3989.2,1294.1c0.1,0.1,0.1,0.2,0,0.2c-1,0.6-1.5,0.8-2.4,1.4c-0.1,0.1-0.2,0-0.3,0c-1.1-0.6-1.6-0.9-2.6-1.6
			c-0.1-0.1-0.1-0.2,0-0.2c1-0.6,1.5-0.8,2.4-1.4c0.1-0.1,0.2,0,0.3,0C3987.6,1293.2,3988.1,1293.5,3989.2,1294.1L3989.2,1294.1z
			 M3992.2,1292.3c0.1,0.1,0.1,0.2,0,0.2l-2.4,1.4c-0.1,0.1-0.2,0-0.3,0c-1.1-0.6-1.6-0.9-2.6-1.6c-0.1-0.1-0.1-0.2,0-0.2l2.4-1.4
			c0.1-0.1,0.2,0,0.3,0C3990.6,1291.4,3991.2,1291.7,3992.2,1292.3L3992.2,1292.3z M3995.3,1290.5c0.1,0.1,0.1,0.2,0,0.2
			c-1,0.6-1.5,0.9-2.4,1.4c-0.1,0.1-0.2,0.1-0.4,0l-2.6-1.6c-0.1-0.1-0.1-0.2,0-0.2c1-0.6,1.5-0.9,2.4-1.4c0.1-0.1,0.2,0,0.3,0
			C3993.7,1289.6,3994.3,1289.9,3995.3,1290.5L3995.3,1290.5z M3998.4,1288.9c-1,0.6-1.5,0.9-2.5,1.4c-0.1,0.1-0.2,0.1-0.4,0
			l-2.6-1.6c-0.1-0.1-0.1-0.2,0-0.2l2.5-1.4c0.1-0.1,0.2-0.1,0.4,0c1.1,0.6,1.6,0.9,2.6,1.5
			C3998.5,1288.8,3998.5,1288.9,3998.4,1288.9L3998.4,1288.9z M3979,1277c-0.1-0.1-0.1-0.2,0-0.2l2.4-1.4c0.1-0.1,0.2,0,0.4,0
			c1.1,0.6,1.6,0.9,2.7,1.6c0.1,0.1,0.1,0.2,0,0.2l-2.5,1.4c-0.1,0.1-0.2,0-0.4,0C3980.6,1277.9,3980,1277.6,3979,1277L3979,1277z
			 M3982.4,1279c-0.1-0.1-0.1-0.2,0-0.2c1-0.6,1.5-0.8,2.5-1.4c0.1-0.1,0.2,0,0.4,0c1.1,0.6,1.6,0.9,2.7,1.6c0.1,0.1,0.1,0.2,0,0.2
			l-2.5,1.4c-0.1,0.1-0.2,0.1-0.4,0L3982.4,1279z M3985.9,1281c-0.1-0.1-0.1-0.2,0-0.2c1-0.6,1.5-0.9,2.5-1.4c0.1-0.1,0.2-0.1,0.4,0
			c1.1,0.6,1.6,0.9,2.7,1.5c0.1,0.1,0.1,0.2,0,0.2l-2.5,1.4c-0.1,0.1-0.2,0.1-0.4,0C3987.5,1281.9,3986.9,1281.6,3985.9,1281
			L3985.9,1281z M3989.3,1283c-0.1-0.1-0.1-0.2,0-0.2l2.5-1.4c0.1-0.1,0.2-0.1,0.4,0l2.6,1.5c0.1,0.1,0.1,0.2,0,0.2l-2.5,1.4
			c-0.1,0.1-0.2,0.1-0.4,0C3990.9,1283.9,3990.3,1283.6,3989.3,1283L3989.3,1283z M3992.7,1284.8l2.5-1.4c0.1-0.1,0.2-0.1,0.4,0
			c1.1,0.6,1.6,0.9,2.6,1.5c0.1,0.1,0.1,0.2,0,0.2c-1,0.6-1.5,0.9-2.5,1.4c-0.1,0.1-0.2,0.1-0.4,0c-1.1-0.6-1.6-0.9-2.6-1.5
			C3992.6,1284.9,3992.6,1284.8,3992.7,1284.8L3992.7,1284.8z M4001.6,1287.1c-1,0.6-1.5,0.9-2.5,1.5c-0.1,0.1-0.2,0.1-0.4,0
			c-1.1-0.6-1.6-0.9-2.6-1.5c-0.1-0.1-0.1-0.2,0-0.2c1-0.6,1.5-0.9,2.5-1.4c0.1-0.1,0.2-0.1,0.4,0c1.1,0.6,1.6,0.9,2.6,1.5
			C4001.7,1286.9,4001.7,1287,4001.6,1287.1L4001.6,1287.1z"/>
		
			<linearGradient id="패스_1627_1_" gradientUnits="userSpaceOnUse" x1="3013.4526" y1="1806.3395" x2="3014.4526" y2="1806.3395" gradientTransform="matrix(102.5906 0 0 -34.249 -305233.9375 63150.3242)">
			<stop  offset="0" style="stop-color:#040000"/>
			<stop  offset="1" style="stop-color:#FFFFFF"/>
		</linearGradient>
		<path id="패스_1627" class="st5" d="M4020.3,1292.6c-14.1-8.3-28.6-16.4-42.7-24.7c-0.2-0.1-0.4-0.1-0.7,0
			c-19.7,11.4-39.4,22.8-59.1,34.2h86.8c5.2-3,10.4-6.1,15.7-9.1C4020.5,1292.9,4020.5,1292.7,4020.3,1292.6z"/>
	</g>
	<g id="그룹_681" transform="translate(-2682.238 -200.867)">
		
			<linearGradient id="패스_1763_1_" gradientUnits="userSpaceOnUse" x1="3151.9756" y1="2001.8339" x2="3152.9756" y2="2001.8339" gradientTransform="matrix(38.6924 0 0 -22.339 -117871.9531 46179.5)">
			<stop  offset="0" style="stop-color:#84529E"/>
			<stop  offset="1" style="stop-color:#4E3570"/>
		</linearGradient>
		<path id="패스_1763" class="st6" d="M4123.1,1456.8c-2.7-4.3-9.8-7.4-18.2-7.4s-15.6,3.1-18.2,7.4h-1.1v3.7
			c0,6.2,8.7,11.2,19.3,11.2s19.3-5,19.3-11.2l0,0v-3.7H4123.1z"/>
		
			<linearGradient id="패스_1764_1_" gradientUnits="userSpaceOnUse" x1="3154.8799" y1="1999.6797" x2="3153.8799" y2="1999.6797" gradientTransform="matrix(32.2432 0 0 -18.616 -97602.3516 38682.7461)">
			<stop  offset="0" style="stop-color:#84529E"/>
			<stop  offset="1" style="stop-color:#4E3570"/>
		</linearGradient>
		<path id="패스_1764" class="st7" d="M4121,1456.8c0,5.1-7.2,9.3-16.1,9.3s-16.1-4.2-16.1-9.3s7.2-9.3,16.1-9.3
			S4121,1451.6,4121,1456.8z"/>
		<path id="패스_1765" class="st3" d="M4121,1457.7c0,5.1-7.2,9.3-16.1,9.3s-16.1-4.2-16.1-9.3s7.2-9.3,16.1-9.3
			S4121,1452.6,4121,1457.7z"/>
		
			<linearGradient id="패스_1766_1_" gradientUnits="userSpaceOnUse" x1="3154.8799" y1="1987.7837" x2="3153.8799" y2="1987.7837" gradientTransform="matrix(32.2432 0 0 -9.694 -97602.3516 20723.1719)">
			<stop  offset="0" style="stop-color:#D5D8ED"/>
			<stop  offset="1" style="stop-color:#9CA2C8"/>
		</linearGradient>
		<path id="패스_1766" class="st8" d="M4104.8,1449.6c8.7,0,15.8,4,16.1,8.9c0-0.1,0-0.3,0-0.4c0-5.1-7.2-9.3-16.1-9.3
			s-16.1,4.2-16.1,9.3c0,0.1,0,0.3,0,0.4C4089.1,1453.5,4096.2,1449.6,4104.8,1449.6z"/>
		<path id="패스_1767" class="st9" d="M4104.8,1445.6c-10.7,0-19.3,5-19.3,11.2s8.7,11.2,19.3,11.2s19.3-5,19.3-11.2
			S4115.5,1445.6,4104.8,1445.6z M4104.8,1466.1c-8.9,0-16.1-4.2-16.1-9.3s7.2-9.3,16.1-9.3s16.1,4.2,16.1,9.3
			S4113.7,1466.1,4104.8,1466.1L4104.8,1466.1z"/>
		
			<linearGradient id="패스_1768_1_" gradientUnits="userSpaceOnUse" x1="3179.8696" y1="1982.5396" x2="3180.0637" y2="1982.1185" gradientTransform="matrix(9.9595 0 0 -7.9403 -27583.1094 17208.8398)">
			<stop  offset="0.217" style="stop-color:#9583BC"/>
			<stop  offset="0.882" style="stop-color:#4E3570"/>
		</linearGradient>
		<path id="패스_1768" class="st10" d="M4092.4,1467.3c0-1-0.5-1.8-1.3-2.4c-0.3-0.2-0.6-0.2-0.9-0.1l0,0l0,0l0,0l-7.7,4.4
			l1.8,3.4l7.7-4.5l0,0C4092.3,1468,4092.4,1467.7,4092.4,1467.3z"/>
		
			<linearGradient id="패스_1769_1_" gradientUnits="userSpaceOnUse" x1="3162.6333" y1="1996.67" x2="3162.8274" y2="1996.249" gradientTransform="matrix(18.6511 0 0 -14.8779 -54908.207 31176.0215)">
			<stop  offset="0.217" style="stop-color:#9583BC"/>
			<stop  offset="0.882" style="stop-color:#4E3570"/>
		</linearGradient>
		<path id="패스_1769" class="st11" d="M4089.1,1470.6c-0.1-1.8-1-3.5-2.5-4.5c-0.5-0.4-1.2-0.4-1.7-0.2l0,0l0,0l0,0l-14.4,8.3
			l3.4,6.4l14.5-8.4l0,0C4088.9,1471.9,4089.2,1471.3,4089.1,1470.6z"/>
		<path id="패스_1770" class="st12" d="M4069.7,1476c0.1,1.8,1,3.5,2.5,4.5c1.4,0.8,2.5,0.1,2.5-1.6c-0.1-1.8-1-3.5-2.5-4.5
			C4070.8,1473.7,4069.7,1474.4,4069.7,1476z"/>
	</g>
</g>
</svg>
