<?xml version="1.0" encoding="utf-8"?>
<!-- Generator: Adobe Illustrator 25.3.1, SVG Export Plug-In . SVG Version: 6.00 Build 0)  -->
<svg version="1.1" id="레이어_1" xmlns="http://www.w3.org/2000/svg" xmlns:xlink="http://www.w3.org/1999/xlink" x="0px"
	 y="0px" viewBox="0 0 172 175" style="enable-background:new 0 0 172 175;" xml:space="preserve">
<style type="text/css">
	.st0{fill:#004983;}
	.st1{fill:#E8EDF7;}
	.st2{fill:url(#패스_1425_1_);}
	.st3{opacity:0.2;fill:#03459B;enable-background:new    ;}
	.st4{fill:#004781;}
	.st5{fill:#FFFFFF;}
	.st6{fill:#00469C;}
	.st7{fill:#E94322;}
	.st8{fill:url(#패스_1438_1_);}
	.st9{fill:#F4F5F6;}
	.st10{fill:#D5E0EB;}
	.st11{fill:#DDE8F4;}
	.st12{fill:#569CD1;}
	.st13{fill:url(#패스_1453_1_);}
	.st14{fill:url(#패스_1454_1_);}
	.st15{fill:#014278;}
	.st16{fill:url(#패스_1456_1_);}
	.st17{fill:#347BB8;}
	.st18{fill:url(#패스_1468_1_);}
	.st19{fill:#EB5F25;}
	.st20{fill:url(#패스_1471_1_);}
	.st21{fill:url(#패스_1472_1_);}
	.st22{fill:#C8D9EB;}
	.st23{fill:url(#패스_1481_1_);}
	.st24{fill:url(#패스_1483_1_);}
	.st25{fill:url(#패스_1484_1_);}
	.st26{fill:url(#패스_1485_1_);}
	.st27{fill:url(#패스_1486_1_);}
	.st28{fill:#09223D;}
	.st29{fill:url(#패스_1491_1_);}
	.st30{fill:url(#패스_1492_1_);}
	.st31{fill:#AAC1E4;}
	.st32{fill:url(#패스_1495_1_);}
	.st33{fill:url(#패스_1496_1_);}
	.st34{fill:url(#패스_1498_1_);}
</style>
<g id="그룹_445" transform="translate(0 0)">
	<g id="그룹_401" transform="translate(0 79.283)">
		<g id="그룹_400" transform="translate(0)">
			<path id="패스_1422" class="st0" d="M162.1,50.4L89.2,91.8c-4.1,2.1-9,2.1-13.1,0L2.8,50.4c-1.8-1-2.7-2.4-2.7-3.7l0,2.4
				c0,1.4,0.9,2.7,2.7,3.7l73.3,41.4c4.1,2.1,9,2.1,13.1,0l72.9-41.4c1.8-1,2.7-2.4,2.7-3.7l0-2.4C164.8,48,163.9,49.4,162.1,50.4z"
				/>
			<g id="그룹_399" transform="translate(0.007)">
				<path id="패스_1423" class="st1" d="M162.1,43L88.7,1.5c-4.1-2.1-9-2.1-13.1,0L2.8,43c-3.6,2.1-3.6,5.4,0,7.4l73.3,41.4
					c4.1,2.1,9,2.1,13.1,0l72.9-41.4C165.7,48.3,165.7,45,162.1,43z"/>
			</g>
		</g>
	</g>
	<g id="그룹_403" transform="translate(43.723 75.411)">
		<path id="패스_1424" class="st0" d="M21,15.7c3.3-1.7,7.1-1.7,10.4,0l12.2,7l28.4,4.4v23c-0.2,1.3-1,2.3-2.1,2.9L51,64
			c-3.3,1.7-7.1,1.7-10.4,0L2.2,41.8c-1.2-0.5-2-1.7-2.2-3V16l16.2,2.5L21,15.7z"/>
		
			<linearGradient id="패스_1425_1_" gradientUnits="userSpaceOnUse" x1="-911.1627" y1="547.9637" x2="-912.1627" y2="547.9637" gradientTransform="matrix(71.8671 0 0 -50.7847 65548.1953 27867.2812)">
			<stop  offset="0" style="stop-color:#F2F7FC"/>
			<stop  offset="0.125" style="stop-color:#DCE6F5"/>
			<stop  offset="0.296" style="stop-color:#C6D5ED"/>
			<stop  offset="0.484" style="stop-color:#B6C9E8"/>
			<stop  offset="0.699" style="stop-color:#ACC2E5"/>
			<stop  offset="1" style="stop-color:#AAC1E4"/>
		</linearGradient>
		<path id="패스_1425" class="st2" d="M21,15c3.3-1.7,7.1-1.7,10.4,0l12.2,7l28.4,4.4v23c-0.2,1.3-1,2.3-2.1,2.9L51,63.3
			c-3.3,1.7-7.1,1.7-10.4,0L2.2,41.1c-1.2-0.5-2-1.7-2.2-3V15.2l16.2,2.5L21,15z"/>
		<g id="그룹_402" transform="translate(0 15.237)">
			<path id="패스_1426" class="st0" d="M2.2,3l38.4,22.2c3.3,1.7,7.2,1.6,10.4,0l18.8-10.9c1.2-0.5,2-1.7,2.1-3v1.9
				c-0.5,0.7-1.1,1.2-1.8,1.6L51.3,25.7c-3.5,1.8-7.6,1.8-11,0L1.9,3.5c-0.7-0.4-1.4-1-1.8-1.6V0C0.2,1.3,1,2.5,2.2,3z"/>
		</g>
		<path id="패스_1427" class="st1" d="M2.2,12.2L21,1.3c3.3-1.7,7.1-1.7,10.4,0l38.4,22.2c2.9,1.7,2.9,4.4,0,6L51,40.4
			c-3.3,1.7-7.1,1.7-10.4,0L2.2,18.2C-0.7,16.6-0.7,13.9,2.2,12.2z"/>
	</g>
	<path id="패스_1428" class="st3" d="M59.9,89.7l11.3-6.5c1-0.5,2.2-0.5,3.2,0l25.2,14.5c0.5,0.2,0.8,0.7,0.6,1.2
		c-0.1,0.3-0.3,0.5-0.6,0.6l-11.3,6.5c-1,0.5-2.2,0.5-3.2,0L59.9,91.5c-0.5-0.2-0.8-0.7-0.6-1.2C59.4,90,59.6,89.8,59.9,89.7z"/>
	<g id="그룹_405" transform="translate(69.515 75.711)">
		<g id="그룹_404" transform="translate(0 11.073)">
			<path id="패스_1429" class="st4" d="M9,2.2L3.4,5.6L0.1,5.3v1.1l14.3,8.1l9.2-5.1V8.3L19,7.8L9,2.2z"/>
			<path id="패스_1430" class="st5" d="M0.1,5.3l14.3,8.1l9.2-5.1L9,0L0.1,5.3z"/>
			<path id="패스_1431" class="st4" d="M4,4.5l11.8,6.6L21.4,8l-12-6.8L4,4.5z"/>
			<path id="패스_1432" class="st4" d="M6.1,7.9l3.3,1.9L11,8.9L7.6,6.9L6.1,7.9z"/>
			<path id="패스_1433" class="st6" d="M11.1,10l1,0.6l0.5-0.3l-1-0.6L11.1,10z"/>
		</g>
		<path id="패스_1434" class="st4" d="M9,0.7l1.1,1l0,0v8.7l13.1,7.4l0.3,1.5l1.1-0.7V8.3L10.1,0L9,0.7z"/>
		<path id="패스_1435" class="st1" d="M9,11.1l14.6,8.3V8.9L9,0.7V11.1z"/>
		<path id="패스_1436" class="st4" d="M9.7,10.5L23,18V9.5L9.7,2V10.5z"/>
	</g>
	<g id="그룹_406" transform="translate(74.178 101.597)">
		<path id="패스_1437" class="st7" d="M0.1,5.7l13.1,7.6V12L0.1,4.4L0.1,5.7z"/>
		
			<linearGradient id="패스_1438_1_" gradientUnits="userSpaceOnUse" x1="-930.3528" y1="508.376" x2="-931.3528" y2="508.376" gradientTransform="matrix(20.7091 0 0 -11.953 19281.2109 6082.6006)">
			<stop  offset="0" style="stop-color:#F3AACA"/>
			<stop  offset="1.000000e-02" style="stop-color:#F2A7C8"/>
			<stop  offset="0.118" style="stop-color:#EE8AA1"/>
			<stop  offset="0.232" style="stop-color:#E8737F"/>
			<stop  offset="0.352" style="stop-color:#E66264"/>
			<stop  offset="0.479" style="stop-color:#E3544F"/>
			<stop  offset="0.618" style="stop-color:#E34B42"/>
			<stop  offset="0.777" style="stop-color:#E14338"/>
			<stop  offset="1" style="stop-color:#E14236"/>
		</linearGradient>
		<path id="패스_1438" class="st8" d="M0.1,4.4L13.1,12l7.6-4.4L7.7,0L5.5,1.3L2.1,3.2L0.1,4.4z"/>
		<path id="패스_1439" class="st7" d="M13.1,13.2l7.6-4.4V7.6L13.1,12L13.1,13.2z"/>
	</g>
	<g id="그룹_410" transform="translate(89.613 96.444)">
		<path id="패스_1440" class="st9" d="M19.2,4.5L11.4,0L0.1,6.5l7.8,4.5L19.2,4.5z"/>
		<path id="패스_1441" class="st10" d="M19.2,4.5v0.8L7.9,11.8v-0.8L19.2,4.5z"/>
		<path id="패스_1442" class="st11" d="M7.9,11.8v-0.8L0.1,6.5v0.8L7.9,11.8z"/>
		<g id="그룹_407" transform="translate(8.901 1.159)">
			<path id="패스_1443" class="st12" d="M8.3,3.5L2.2,0L1.8,0.3l6.1,3.5L8.3,3.5z"/>
			<path id="패스_1444" class="st12" d="M7.5,4L1.4,0.5L0.9,0.8L7,4.3L7.5,4z"/>
			<path id="패스_1445" class="st12" d="M6.6,4.5L0.5,1L0.1,1.3l6.1,3.5L6.6,4.5z"/>
			<path id="패스_1446" class="st12" d="M5.7,5L3.1,3.5L2.7,3.8l2.6,1.5L5.7,5z"/>
		</g>
		<g id="그룹_408" transform="translate(4.978 3.428)">
			<path id="패스_1447" class="st12" d="M8.3,3.5L2.2,0L1.8,0.3l6.1,3.5L8.3,3.5z"/>
			<path id="패스_1448" class="st12" d="M7.5,4L1.4,0.5L0.9,0.8L7,4.3L7.5,4z"/>
			<path id="패스_1449" class="st12" d="M6.6,4.5L0.5,1L0.1,1.3l6.1,3.5L6.6,4.5z"/>
			<path id="패스_1450" class="st12" d="M5.7,5L1.4,2.5L0.9,2.8l4.4,2.5L5.7,5z"/>
		</g>
		<g id="그룹_409" transform="translate(1.925 5.69)">
			<path id="패스_1451" class="st12" d="M7.5,3.5L1.4,0L0.9,0.2L7,3.8L7.5,3.5z"/>
			<path id="패스_1452" class="st12" d="M6.6,4L0.5,0.5L0.1,0.8l6.1,3.5L6.6,4z"/>
		</g>
	</g>
	<g id="그룹_440" transform="translate(71.944 0)">
		<g id="그룹_411" transform="translate(31.099 68.125)">
			
				<linearGradient id="패스_1453_1_" gradientUnits="userSpaceOnUse" x1="-1023.2512" y1="554.3869" x2="-1024.2512" y2="554.3869" gradientTransform="matrix(28.804 0 0 -42 27784.3633 23305.248)">
				<stop  offset="0" style="stop-color:#F2F7FC"/>
				<stop  offset="0.125" style="stop-color:#DCE6F5"/>
				<stop  offset="0.296" style="stop-color:#C6D5ED"/>
				<stop  offset="0.484" style="stop-color:#B6C9E8"/>
				<stop  offset="0.699" style="stop-color:#ACC2E5"/>
				<stop  offset="1" style="stop-color:#AAC1E4"/>
			</linearGradient>
			<path id="패스_1453" class="st13" d="M33.3,39.5L28.9,42L4.5,0l28.8,16.6L33.3,39.5z"/>
			
				<linearGradient id="패스_1454_1_" gradientUnits="userSpaceOnUse" x1="-1022.9416" y1="554.0673" x2="-1023.9416" y2="554.0673" gradientTransform="matrix(28.8 0 0 -39.471 27776.0898 21891.8574)">
				<stop  offset="0" style="stop-color:#9FB9E0"/>
				<stop  offset="0.209" style="stop-color:#A3BCE2"/>
				<stop  offset="0.437" style="stop-color:#B1C6E7"/>
				<stop  offset="0.674" style="stop-color:#C6D5EE"/>
				<stop  offset="0.915" style="stop-color:#E5EEF8"/>
				<stop  offset="1" style="stop-color:#F2F7FC"/>
			</linearGradient>
			<path id="패스_1454" class="st14" d="M28.9,42L0.1,25.4V2.5l28.8,16.6V42z"/>
		</g>
		<g id="그룹_412">
			<path id="패스_1455" class="st15" d="M100,55.1v59.2l-4.7,2.7V57.7L100,55.1z"/>
			
				<linearGradient id="패스_1456_1_" gradientUnits="userSpaceOnUse" x1="-958.4705" y1="625.6663" x2="-959.4705" y2="625.6663" gradientTransform="matrix(95.268 0 0 -114.248 89688.9297 71540.9219)">
				<stop  offset="0" style="stop-color:#9FB9E0"/>
				<stop  offset="0.209" style="stop-color:#A3BCE2"/>
				<stop  offset="0.437" style="stop-color:#B1C6E7"/>
				<stop  offset="0.674" style="stop-color:#C6D5EE"/>
				<stop  offset="0.915" style="stop-color:#E5EEF8"/>
				<stop  offset="1" style="stop-color:#F2F7FC"/>
			</linearGradient>
			<path id="패스_1456" class="st16" d="M95.3,57.8L0.1,2.7l0,59.2l95.3,55.1V57.8z"/>
			<path id="패스_1457" class="st15" d="M100,55.1l-4.7,2.7L0.1,2.7L4.7,0L100,55.1z"/>
		</g>
		<g id="그룹_413" transform="translate(48.151 35.673)">
			<path id="패스_1458" class="st17" d="M39.6,43l-1.5,0.9v-21l1.5-0.9L39.6,43z"/>
			<path id="패스_1459" class="st15" d="M38.1,43.8l-38-21.9v-21l38,21.9L38.1,43.8z"/>
			<path id="패스_1460" class="st17" d="M0.1,0.9L1.6,0l38,21.9l-1.5,0.9L0.1,0.9z"/>
		</g>
		<g id="그룹_414" transform="translate(48.151 62.797)">
			<path id="패스_1461" class="st17" d="M39.6,43l-1.5,0.9v-21l1.5-0.9L39.6,43z"/>
			<path id="패스_1462" class="st15" d="M38.1,43.8l-38-21.9v-21l38,21.9L38.1,43.8z"/>
			<path id="패스_1463" class="st17" d="M0.1,0.9L1.6,0l38,21.9l-1.5,0.9L0.1,0.9z"/>
		</g>
		<g id="그룹_415" transform="translate(7.458 58.002)">
			<path id="패스_1464" class="st17" d="M28.8,20.5v-3.2l1.4-0.8v3.2L28.8,20.5z"/>
			<path id="패스_1465" class="st15" d="M28.8,17.4L0.1,0.8v3.2l28.7,16.6V17.4z"/>
			<path id="패스_1466" class="st17" d="M0.1,0.8L1.4,0l28.7,16.6l-1.4,0.8L0.1,0.8z"/>
		</g>
		<g id="그룹_419" transform="translate(68.564 54.492)">
			<g id="그룹_416" transform="translate(0)">
				<path id="패스_1467" class="st5" d="M7.3,1c4.2,2.8,6.9,7.4,7.2,12.4c0,4.6-3.2,6.4-7.2,4.1C3,14.8,0.4,10.1,0.1,5.1
					C0.1,0.5,3.3-1.3,7.3,1z M7.3,14.4c2.5,1.4,4.5,0.3,4.5-2.6c-0.2-3.2-1.9-6.1-4.5-7.8C4.8,2.6,2.7,3.8,2.7,6.6
					C2.9,9.8,4.6,12.7,7.3,14.4z"/>
			</g>
			<g id="그룹_417" transform="translate(0 0.986)">
				
					<linearGradient id="패스_1468_1_" gradientUnits="userSpaceOnUse" x1="-863.2503" y1="560.0599" x2="-864.2503" y2="560.0599" gradientTransform="matrix(14.4007 0 0 -17.5136 14261.2207 9817.4277)">
					<stop  offset="0" style="stop-color:#F3AACA"/>
					<stop  offset="1.000000e-02" style="stop-color:#F2A7C8"/>
					<stop  offset="0.118" style="stop-color:#EE8AA1"/>
					<stop  offset="0.232" style="stop-color:#E8737F"/>
					<stop  offset="0.352" style="stop-color:#E66264"/>
					<stop  offset="0.479" style="stop-color:#E3544F"/>
					<stop  offset="0.618" style="stop-color:#E34B42"/>
					<stop  offset="0.777" style="stop-color:#E14338"/>
					<stop  offset="1" style="stop-color:#E14236"/>
				</linearGradient>
				<path id="패스_1468" class="st18" d="M2.9,4.3C2.8,4.7,2.7,5.2,2.7,5.6c0.2,3.2,1.9,6.1,4.5,7.8c2.5,1.4,4.5,0.3,4.5-2.6
					c-0.2-3.2-1.9-6.1-4.5-7.8V0c4.2,2.8,6.9,7.4,7.2,12.4c0,4.6-3.2,6.4-7.2,4.1C3,13.8,0.4,9.2,0.1,4.1c0-0.7,0.1-1.5,0.3-2.2
					L2.9,4.3z"/>
			</g>
			<g id="그룹_418" transform="translate(0 4.131)">
				<path id="패스_1469" class="st19" d="M4,6.9c0.8,1.4,1.9,2.6,3.2,3.4c2.5,1.4,4.5,0.3,4.5-2.6c-0.1-2.1-0.9-4.2-2.3-5.8
					L10.8,0c2.2,2.6,3.5,5.9,3.6,9.3c0,4.6-3.2,6.4-7.2,4.1C5.1,12,3.4,10.2,2.1,8c-1.3-2.1-2-4.5-2.1-7l2.7,1.5
					C2.8,4.1,3.2,5.6,4,6.9z"/>
			</g>
		</g>
		<g id="그룹_421" transform="translate(50.371 43.356)">
			<g id="그룹_420" transform="translate(0)">
				<path id="패스_1470" class="st19" d="M7.3,1c4.2,2.8,6.9,7.4,7.2,12.4c0,4.6-3.2,6.4-7.2,4.1C3,14.8,0.4,10.1,0.1,5.1
					C0.1,0.5,3.3-1.3,7.3,1z M7.3,14.4c2.5,1.4,4.5,0.3,4.5-2.6c-0.2-3.2-1.9-6.1-4.5-7.8C4.8,2.6,2.7,3.8,2.7,6.6
					C2.9,9.8,4.6,12.7,7.3,14.4z"/>
			</g>
			
				<linearGradient id="패스_1471_1_" gradientUnits="userSpaceOnUse" x1="-845.0515" y1="572.1879" x2="-846.0515" y2="572.1879" gradientTransform="matrix(14.3971 0 0 -17.5225 13995.6465 10035.9297)">
				<stop  offset="0" style="stop-color:#F3AACA"/>
				<stop  offset="1.000000e-02" style="stop-color:#F2A7C8"/>
				<stop  offset="0.118" style="stop-color:#EE8AA1"/>
				<stop  offset="0.232" style="stop-color:#E8737F"/>
				<stop  offset="0.352" style="stop-color:#E66264"/>
				<stop  offset="0.479" style="stop-color:#E3544F"/>
				<stop  offset="0.618" style="stop-color:#E34B42"/>
				<stop  offset="0.777" style="stop-color:#E14338"/>
				<stop  offset="1" style="stop-color:#E14236"/>
			</linearGradient>
			<path id="패스_1471" class="st20" d="M1.7,11.4c-0.1-0.1-0.1-0.2-0.2-0.3c-0.1-0.2-0.2-0.4-0.2-0.5c-0.1-0.1-0.1-0.2-0.2-0.4
				C1.1,10,1,9.8,1,9.6c0-0.1-0.1-0.2-0.1-0.4C0.8,9,0.7,8.9,0.6,8.7c0-0.1-0.1-0.2-0.1-0.3C0.5,8.2,0.4,7.9,0.4,7.7
				c0-0.1,0-0.1,0-0.2C0.3,7.3,0.2,7.1,0.2,6.8c0,0,0-0.1,0-0.1c0-0.3-0.1-0.5-0.1-0.8c0,0,0,0,0-0.1c0-0.3,0-0.5,0-0.8
				c0-0.7,0.1-1.5,0.3-2.2l2.6,2.4C2.8,5.7,2.7,6.2,2.7,6.6c0,0.2,0,0.4,0,0.5c0,0,0,0.1,0,0.1c0,0.1,0,0.3,0.1,0.4c0,0,0,0.1,0,0.1
				c0,0.2,0.1,0.3,0.1,0.5c0,0,0,0,0,0c0.6,2.3,1.9,4.4,3.8,5.8l0,0c0.2,0.1,0.3,0.2,0.5,0.3c2.5,1.4,4.5,0.3,4.5-2.6
				c0-0.2,0-0.3,0-0.5c0,0,0-0.1,0-0.1c0-0.1,0-0.3-0.1-0.4c0,0,0-0.1,0-0.1c0-0.1,0-0.2-0.1-0.4c0-0.1,0-0.1,0-0.2
				c0-0.1-0.1-0.3-0.1-0.4c0-0.1,0-0.1-0.1-0.2c0-0.1-0.1-0.2-0.1-0.3c0-0.1,0-0.1-0.1-0.2c-0.1-0.2-0.1-0.3-0.2-0.5l0,0
				c-0.1-0.2-0.1-0.3-0.2-0.5l0-0.1c-0.2-0.3-0.4-0.7-0.6-1l0,0C9.4,5.7,8.4,4.8,7.3,4.1V1c1.4,0.8,2.6,1.9,3.6,3.1l0,0
				c0,0.1,0.1,0.1,0.1,0.2l0.1,0.1c0.3,0.3,0.5,0.7,0.7,1l0.1,0.1c0.1,0.1,0.1,0.2,0.2,0.3L12.2,6c0.1,0.2,0.2,0.4,0.4,0.6
				c0,0.1,0.1,0.1,0.1,0.2c0,0.1,0.1,0.2,0.1,0.3s0.1,0.2,0.1,0.3c0,0.1,0.1,0.1,0.1,0.2c0.2,0.4,0.3,0.7,0.5,1.1l0,0.1
				c0.4,1.1,0.7,2.3,0.9,3.5c0,0,0,0.1,0,0.1c0,0.1,0,0.3,0,0.4c0,0,0,0.1,0,0.1c0,0.2,0,0.3,0,0.5c0,4.6-3.2,6.4-7.2,4.1
				c-0.1-0.1-0.2-0.1-0.4-0.2l0,0c-2-1.3-3.6-3.1-4.7-5.2c0-0.1-0.1-0.1-0.1-0.2C1.9,11.7,1.8,11.6,1.7,11.4z"/>
		</g>
		<g id="그룹_426" transform="translate(52.767 75.903)">
			<g id="그룹_423" transform="translate(0 1.548)">
				<g id="그룹_422">
					
						<linearGradient id="패스_1472_1_" gradientUnits="userSpaceOnUse" x1="-921.3488" y1="541.0421" x2="-922.3488" y2="541.0421" gradientTransform="matrix(28.525 0 0 -23.26 28125.7305 12596.2744)">
						<stop  offset="0" style="stop-color:#F3AACA"/>
						<stop  offset="1.000000e-02" style="stop-color:#F2A7C8"/>
						<stop  offset="0.118" style="stop-color:#EE8AA1"/>
						<stop  offset="0.232" style="stop-color:#E8737F"/>
						<stop  offset="0.352" style="stop-color:#E66264"/>
						<stop  offset="0.479" style="stop-color:#E3544F"/>
						<stop  offset="0.618" style="stop-color:#E34B42"/>
						<stop  offset="0.777" style="stop-color:#E14338"/>
						<stop  offset="1" style="stop-color:#E14236"/>
					</linearGradient>
					<path id="패스_1472" class="st21" d="M5.1,1.4c1-0.9,2-1.7,3.9,0c1.5,1.5,2.7,3.3,3.4,5.2c0.9,2.4,2.4,4.6,4.4,6.4
						c2.1,2,4,2.3,6.5,0.9c1.5-0.8,3.2-5.4,5.3-4.2v13.7C26.6,22.1,0.1,6.9,0.1,6.9l0-6.9C2.7,1.5,4,2.3,5.1,1.4z"/>
				</g>
			</g>
			<g id="그룹_425" transform="translate(0.003)">
				<g id="그룹_424">
					<path id="패스_1473" class="st19" d="M4.6,5.1c0.8,1.9,2.2,3.5,4,4.6c2,1.1,2.9-0.8,4-2.8c1.2-2.4,2.4-4.8,5.4-3.1
						c3.1,1.8,4.9,5.9,6.6,9.6c1.3,2.9,2.5,5.6,4.1,6.6v0.4c-1.8-1-3.1-3.9-4.4-6.9c-1.6-3.5-3.4-7.6-6.3-9.2
						c-2.7-1.6-3.9,0.8-5.1,3.1c-1.1,2.1-2.1,4.1-4.3,2.9C6.7,8.9,5.2,7.2,4.3,5.2c-0.9-2-2.4-3.7-4.2-4.8V0C2,1.2,3.6,3,4.6,5.1z"
						/>
				</g>
			</g>
		</g>
		<g id="그룹_427" transform="translate(8.521 13.723)">
			<path id="패스_1474" class="st17" d="M29.4,16.1v17.4L28,34.3V16.9L29.4,16.1z"/>
			<path id="패스_1475" class="st15" d="M28,16.9L0.1,0.8l0,17.4L28,34.3V16.9z"/>
			<path id="패스_1476" class="st17" d="M29.4,16.1L28,16.9L0.1,0.8L1.4,0L29.4,16.1z"/>
		</g>
		<g id="그룹_428" transform="translate(8.521 35.723)">
			<path id="패스_1477" class="st17" d="M29.4,16.1v17.4L28,34.3V16.9L29.4,16.1z"/>
			<path id="패스_1478" class="st15" d="M28,16.9L0.1,0.8l0,17.4L28,34.3V16.9z"/>
			<path id="패스_1479" class="st17" d="M29.4,16.1L28,16.9L0.1,0.8L1.4,0L29.4,16.1z"/>
		</g>
		<g id="그룹_430" transform="translate(23.685 50.045)">
			<g id="그룹_429">
				<path id="패스_1480" class="st22" d="M5.8,0.8c3.4,2.2,5.5,5.9,5.8,9.9c0,3.6-2.6,5.1-5.8,3.3c-3.4-2.2-5.5-5.9-5.8-9.9
					C0.1,0.4,2.6-1,5.8,0.8z M5.8,11.6c2,1.2,3.6,0.2,3.6-2.1C9.3,7,8,4.6,5.8,3.2C3.8,2.1,2.2,3,2.2,5.3C2.3,7.9,3.7,10.2,5.8,11.6
					L5.8,11.6z"/>
			</g>
			
				<linearGradient id="패스_1481_1_" gradientUnits="userSpaceOnUse" x1="-781.0411" y1="562.5031" x2="-782.0411" y2="562.5031" gradientTransform="matrix(11.5143 0 0 -14.0116 10819.0674 7889.3613)">
				<stop  offset="0" style="stop-color:#E14236"/>
				<stop  offset="0.223" style="stop-color:#E14338"/>
				<stop  offset="0.382" style="stop-color:#E34B42"/>
				<stop  offset="0.521" style="stop-color:#E3544F"/>
				<stop  offset="0.648" style="stop-color:#E66264"/>
				<stop  offset="0.768" style="stop-color:#E8737F"/>
				<stop  offset="0.882" style="stop-color:#EE8AA1"/>
				<stop  offset="0.99" style="stop-color:#F2A7C8"/>
				<stop  offset="1" style="stop-color:#F3AACA"/>
			</linearGradient>
			<path id="패스_1481" class="st23" d="M0.3,6.2c0-0.2-0.1-0.4-0.1-0.6c0,0,0-0.1,0-0.1c0-0.2-0.1-0.4-0.1-0.6c0,0,0-0.1,0-0.1
				c0-0.2,0-0.5,0-0.7c0-0.6,0.1-1.2,0.2-1.8l2,1.9C2.2,4.6,2.2,4.9,2.2,5.3c0,0.1,0,0.3,0,0.4c0,0,0,0.1,0,0.1c0,0.1,0,0.2,0,0.4
				c0,0,0,0,0,0.1c0,0.1,0,0.3,0.1,0.4v0c0.5,1.9,1.5,3.5,3.1,4.7l0,0c0.1,0.1,0.2,0.2,0.4,0.2c2,1.2,3.6,0.2,3.6-2.1
				c0-0.2,0-0.3,0-0.5c0,0,0-0.1,0-0.1c0-0.1,0-0.3-0.1-0.4c0,0,0-0.1,0-0.1C9.2,7.9,9.1,7.5,9,7.2c0,0,0-0.1-0.1-0.1
				C8.9,6.9,8.8,6.8,8.7,6.6c0-0.1-0.1-0.1-0.1-0.2C8.6,6.3,8.5,6.1,8.4,6c0,0-0.1-0.1-0.1-0.1C8.2,5.7,8.2,5.6,8.1,5.4
				C8,5.4,8,5.3,7.9,5.2C7.9,5.1,7.8,5,7.7,4.9C7.2,4.3,6.6,3.7,5.8,3.2V0.8c1.1,0.7,2.1,1.5,2.9,2.5l0,0C9,3.7,9.2,4,9.5,4.4l0,0
				c0.3,0.4,0.5,0.8,0.7,1.3l0.1,0.1c0.1,0.2,0.2,0.4,0.3,0.6l0,0c0.1,0.2,0.2,0.4,0.2,0.6c0,0.1,0.1,0.2,0.1,0.2
				C11,7.4,11,7.6,11.1,7.7c0,0.1,0.1,0.2,0.1,0.3c0,0.2,0.1,0.3,0.1,0.5c0,0.1,0,0.2,0.1,0.2c0,0.2,0.1,0.3,0.1,0.5
				c0,0.1,0,0.1,0,0.2c0,0.2,0.1,0.4,0.1,0.6c0,0.1,0,0.1,0,0.2c0,0.2,0,0.4,0,0.6c0,3.6-2.6,5.1-5.8,3.3c-0.2-0.1-0.4-0.2-0.6-0.4
				l0,0c-1.4-1-2.6-2.4-3.5-3.9C1.1,8.6,0.6,7.4,0.3,6.2C0.3,6.2,0.3,6.2,0.3,6.2z"/>
		</g>
		<g id="그룹_434" transform="translate(9.13 41.551)">
			<g id="그룹_431">
				<path id="패스_1482" class="st22" d="M5.8,0.8c3.4,2.2,5.5,5.9,5.8,9.9c0,3.6-2.6,5.1-5.8,3.3c-3.4-2.2-5.5-5.9-5.8-9.9
					C0.1,0.4,2.6-1,5.8,0.8z M5.8,11.6c2,1.2,3.6,0.2,3.6-2.1C9.3,6.9,8,4.6,5.8,3.2C3.8,2.1,2.2,3,2.2,5.3
					C2.3,7.8,3.7,10.2,5.8,11.6L5.8,11.6z"/>
			</g>
			<g id="그룹_432" transform="translate(0 0.789)">
				
					<linearGradient id="패스_1483_1_" gradientUnits="userSpaceOnUse" x1="-766.5077" y1="570.2072" x2="-767.5076" y2="570.2072" gradientTransform="matrix(11.5225 0 0 -14.0107 10659.2803 7996.0312)">
					<stop  offset="0" style="stop-color:#E14236"/>
					<stop  offset="0.223" style="stop-color:#E14338"/>
					<stop  offset="0.382" style="stop-color:#E34B42"/>
					<stop  offset="0.521" style="stop-color:#E3544F"/>
					<stop  offset="0.648" style="stop-color:#E66264"/>
					<stop  offset="0.768" style="stop-color:#E8737F"/>
					<stop  offset="0.882" style="stop-color:#EE8AA1"/>
					<stop  offset="0.99" style="stop-color:#F2A7C8"/>
					<stop  offset="1" style="stop-color:#F3AACA"/>
				</linearGradient>
				<path id="패스_1483" class="st24" d="M2.4,3.4C2.2,3.8,2.2,4.1,2.2,4.5c0.1,2.5,1.5,4.9,3.6,6.3c2,1.2,3.6,0.2,3.6-2.1
					C9.3,6.2,8,3.8,5.8,2.5V0c3.4,2.2,5.5,5.9,5.8,9.9c0,3.6-2.6,5.1-5.8,3.3C2.4,11,0.3,7.3,0.1,3.3c0-0.6,0.1-1.2,0.2-1.8L2.4,3.4
					z"/>
			</g>
			<g id="그룹_433" transform="translate(0 3.305)">
				
					<linearGradient id="패스_1484_1_" gradientUnits="userSpaceOnUse" x1="-766.5114" y1="564.4183" x2="-767.5114" y2="564.4183" gradientTransform="matrix(11.5239 0 0 -11.4948 10660.6758 6493.5962)">
					<stop  offset="0" style="stop-color:#F3AACA"/>
					<stop  offset="1.000000e-02" style="stop-color:#F2A7C8"/>
					<stop  offset="0.118" style="stop-color:#EE8AA1"/>
					<stop  offset="0.232" style="stop-color:#E8737F"/>
					<stop  offset="0.352" style="stop-color:#E66264"/>
					<stop  offset="0.479" style="stop-color:#E3544F"/>
					<stop  offset="0.618" style="stop-color:#E34B42"/>
					<stop  offset="0.777" style="stop-color:#E14338"/>
					<stop  offset="1" style="stop-color:#E14236"/>
				</linearGradient>
				<path id="패스_1484" class="st25" d="M3.2,5.5c0.6,1.1,1.5,2.1,2.6,2.7c2,1.2,3.6,0.2,3.6-2.1C9.4,4.5,8.7,2.8,7.6,1.5L8.7,0
					c1.7,2.1,2.8,4.7,2.9,7.4c0,3.6-2.6,5.1-5.8,3.3C4.1,9.6,2.7,8.1,1.7,6.4c-1-1.7-1.6-3.6-1.7-5.6L2.2,2C2.2,3.2,2.6,4.5,3.2,5.5
					z"/>
			</g>
		</g>
		<g id="그룹_439" transform="translate(11.692 24.196)">
			<g id="그룹_436" transform="translate(0 1.084)">
				<g id="그룹_435">
					
						<linearGradient id="패스_1485_1_" gradientUnits="userSpaceOnUse" x1="-847.9711" y1="589.3546" x2="-848.9711" y2="589.3546" gradientTransform="matrix(19.962 0 0 -16.284 18762.4062 9605.1885)">
						<stop  offset="0" style="stop-color:#E14236"/>
						<stop  offset="0.223" style="stop-color:#E14338"/>
						<stop  offset="0.382" style="stop-color:#E34B42"/>
						<stop  offset="0.521" style="stop-color:#E3544F"/>
						<stop  offset="0.648" style="stop-color:#E66264"/>
						<stop  offset="0.768" style="stop-color:#E8737F"/>
						<stop  offset="0.882" style="stop-color:#EE8AA1"/>
						<stop  offset="0.99" style="stop-color:#F2A7C8"/>
						<stop  offset="1" style="stop-color:#F3AACA"/>
					</linearGradient>
					<path id="패스_1485" class="st26" d="M3.6,1c0.7-0.6,1.4-1.2,2.8,0c1.1,1,1.9,2.3,2.3,3.7c0.7,1.7,1.7,3.2,3.1,4.5
						c1.1,1.3,3.1,1.6,4.5,0.6c1-0.6,2.3-3.8,3.7-3v9.6c-1.4-0.8-20-11.5-20-11.5V0C1.9,1,2.8,1.6,3.6,1z"/>
				</g>
			</g>
			<g id="그룹_438" transform="translate(0.002)">
				<g id="그룹_437">
					
						<linearGradient id="패스_1486_1_" gradientUnits="userSpaceOnUse" x1="-847.9637" y1="588.5515" x2="-848.9637" y2="588.5515" gradientTransform="matrix(19.964 0 0 -14.201 18764.3105 8365.1123)">
						<stop  offset="0" style="stop-color:#F3AACA"/>
						<stop  offset="1.000000e-02" style="stop-color:#F2A7C8"/>
						<stop  offset="0.118" style="stop-color:#EE8AA1"/>
						<stop  offset="0.232" style="stop-color:#E8737F"/>
						<stop  offset="0.352" style="stop-color:#E66264"/>
						<stop  offset="0.479" style="stop-color:#E3544F"/>
						<stop  offset="0.618" style="stop-color:#E34B42"/>
						<stop  offset="0.777" style="stop-color:#E14338"/>
						<stop  offset="1" style="stop-color:#E14236"/>
					</linearGradient>
					<path id="패스_1486" class="st27" d="M3.2,3.6C3.8,4.9,4.8,6,6,6.8c1.4,0.8,2.1-0.5,2.8-2c0.8-1.7,1.7-3.4,3.8-2.2
						c2.2,1.2,3.5,4.1,4.6,6.7c0.9,2,1.8,4,2.9,4.6v0.3c-1.2-0.7-2.1-2.7-3.1-4.8c-1.1-2.5-2.4-5.3-4.4-6.5C10.6,1.8,9.8,3.4,9,5
						C8.2,6.5,7.5,7.9,6,7c-1.3-0.8-2.3-2-3-3.4c-0.6-1.4-1.7-2.6-3-3.4V0C1.4,0.8,2.5,2.1,3.2,3.6z"/>
				</g>
			</g>
		</g>
	</g>
	<g id="그룹_444" transform="translate(44.305 76.889)">
		<path id="패스_1487" class="st3" d="M17.9,53.2c-4.7-2.4-10.2-2.4-14.8,0c-4.1,2.4-4.1,6.2,0,8.6c4.7,2.4,10.2,2.4,14.8,0
			C22.1,59.4,22,55.5,17.9,53.2z"/>
		<g id="그룹_443" transform="translate(3.652 0.289)">
			<path id="패스_1488" class="st28" d="M9.8,58.4c-0.7,0.4-1.3,0.9-1.8,1.5c-0.3,0.6-0.3,1.3,0.1,1.8c0.7,0.8,5.9-0.9,6.9-3.2
				S11,57.6,9.8,58.4z"/>
			<path id="패스_1489" class="st28" d="M2.9,54.3c-0.7,0.4-1.3,0.9-1.8,1.5c-0.3,0.6-0.3,1.3,0.1,1.8c0.7,0.8,5.9-0.9,6.9-3.2
				S4.1,53.5,2.9,54.3z"/>
			<path id="패스_1490" class="st15" d="M1.4,55.5c0,1.1,2.7,0.1,2.7-1.2S5.5,44,5.5,44l0-8.6l0.9,0.3l1.1,10.6
				c0,0,0.8,13.4,0.9,14.1s2.9,0.5,2.9-1.2c0-0.7,0.7-11.7,0.7-11.7L12,30.9L0.6,28.6C0.6,28.6,1.4,54.4,1.4,55.5z"/>
			
				<linearGradient id="패스_1491_1_" gradientUnits="userSpaceOnUse" x1="-902.2511" y1="541.1392" x2="-903.2511" y2="541.1392" gradientTransform="matrix(12.6492 0 0 -22.8143 11315.3418 12366.1348)">
				<stop  offset="5.000000e-03" style="stop-color:#F2F7FC"/>
				<stop  offset="0.233" style="stop-color:#D8E2F3"/>
				<stop  offset="0.713" style="stop-color:#9AAFD8"/>
				<stop  offset="1" style="stop-color:#738FC8"/>
			</linearGradient>
			<path id="패스_1491" class="st29" d="M11.2,12.1c0,0-7.4-3.9-9.2-2.9S0.2,11.3,0.1,16s0.5,12.9,0.5,12.9s3.8,2.9,7.1,2.9
				s4.3-0.9,4.3-0.9S14,13.4,11.2,12.1z"/>
			
				<linearGradient id="패스_1492_1_" gradientUnits="userSpaceOnUse" x1="-882.8774" y1="497.5459" x2="-883.8774" y2="497.5459" gradientTransform="matrix(5.1678 0 0 -3.9696 4445.2896 1996.3252)">
				<stop  offset="0" style="stop-color:#FCE0C3"/>
				<stop  offset="1" style="stop-color:#F7B470"/>
			</linearGradient>
			<path id="패스_1492" class="st30" d="M23.7,19.7c-0.3,0.2-0.6,0.3-0.9,0.3c0,0,0.4-0.4,0.2-0.6s-0.3-0.1-1.3,0.7
				s-1.5,1.3-1.5,1.3L20,23.2c0.9,0,1.9-0.2,2.7-0.7c1.7-0.7,2.3-1.2,2.4-2.2S24.4,19.3,23.7,19.7z"/>
			<path id="패스_1493" class="st31" d="M21.2,20.3c-0.4,0.1-7.3,2.1-7.3,2.1s-1,3,1.1,3c0,0,4.7-0.9,7-2.5
				C22.4,22.7,22.2,20.8,21.2,20.3z"/>
			<g id="그룹_442" transform="translate(9.233 12.115)">
				<g id="그룹_441">
					<path id="패스_1494" class="st31" d="M4.8,4.4c-1.1-3.7-2.6-4.8-4-4.3S0.4,4.1,1,5.9c0.8,2.4,3.4,7.8,4.6,7.4
						c0.5-0.2,1.2-0.8,1.1-2.3C6.2,8.8,5.6,6.6,4.8,4.4z"/>
				</g>
			</g>
			
				<linearGradient id="패스_1495_1_" gradientUnits="userSpaceOnUse" x1="-854.6641" y1="504.4679" x2="-855.6641" y2="504.4679" gradientTransform="matrix(3.4298 0 0 -4.5688 2829.248 2313.1208)">
				<stop  offset="0" style="stop-color:#FCE0C3"/>
				<stop  offset="1" style="stop-color:#F7B470"/>
			</linearGradient>
			<path id="패스_1495" class="st32" d="M4.6,6v3.5c0.8,0.9,2,1.3,3.1,0.9C8.1,9.2,8.1,8,7.9,6.7C7.7,5.8,4.6,6,4.6,6z"/>
			
				<linearGradient id="패스_1496_1_" gradientUnits="userSpaceOnUse" x1="-890.1422" y1="528.019" x2="-891.1422" y2="528.019" gradientTransform="matrix(7.4379 0 0 -9.3934 6519.668 4964.5757)">
				<stop  offset="0" style="stop-color:#FCE0C3"/>
				<stop  offset="1" style="stop-color:#F7B470"/>
			</linearGradient>
			<path id="패스_1496" class="st33" d="M3.8,4.4c0.1,2.8,1.7,5.5,4.8,4.9S11.2,3,11.2,3C10.2-2.7,3.5,0.8,3.8,4.4z"/>
		</g>
		<path id="패스_1497" class="st6" d="M12.1,0.1C9.7-0.4,7.4,1.2,7,3.5c0,0.2-0.1,0.5-0.1,0.8c0,1.1,0.8,5.1,2.4,5.1
			s3.1-1.9,3.1-1.9c-0.4-2,1.7-2.8,2.7-4S16.2,0.7,12.1,0.1z"/>
		
			<linearGradient id="패스_1498_1_" gradientUnits="userSpaceOnUse" x1="-772.3618" y1="468.4949" x2="-773.3618" y2="468.4949" gradientTransform="matrix(1.5409 0 0 -2.5513 1091.222 1201.5461)">
			<stop  offset="0" style="stop-color:#FCE0C3"/>
			<stop  offset="1" style="stop-color:#F7B470"/>
		</linearGradient>
		<path id="패스_1498" class="st34" d="M12,5.3c-0.4,0.8-0.1,1.7,0.6,2.1c0.4,0.4,1.2-0.6,0.6-1.6C13.1,5.9,12.6,4.4,12,5.3z"/>
	</g>
</g>
</svg>
